<?xml version="1.0" standalone="no"?><!DOCTYPE svg PUBLIC "-//W3C//DTD SVG 1.1//EN" "http://www.w3.org/Graphics/SVG/1.1/DTD/svg11.dtd"><svg t="1714621654095" class="icon" viewBox="0 0 1024 1024" version="1.1" xmlns="http://www.w3.org/2000/svg" p-id="9731" width="64" height="64" xmlns:xlink="http://www.w3.org/1999/xlink"><path d="M1020.586667 361.813333c0-92.16-75.093333-167.253333-167.253334-167.253333h-266.24l23.893334 95.573333 228.693333 51.2c20.48 3.413333 37.546667 23.893333 37.546667 44.373334v245.76c0 20.48-17.066667 40.96-37.546667 44.373333l-228.693333 51.2-27.306667 92.16h266.24c92.16 0 167.253333-75.093333 167.253333-167.253333 3.413333 0 3.413333-290.133333 3.413334-290.133334zM187.733333 672.426667c-20.48-3.413333-37.546667-23.893333-37.546666-44.373334v-245.76c0-20.48 17.066667-40.96 37.546666-44.373333l228.693334-51.2 23.893333-95.573333H174.08C81.92 191.146667 6.826667 266.24 6.826667 358.4V648.533333c0 92.16 75.093333 167.253333 167.253333 167.253334h266.24l-23.893333-95.573334c0 3.413333-228.693333-47.786667-228.693334-47.786666z m215.04-211.626667h218.453334v88.746667h-218.453334v-88.746667z" fill="#ff6b01" p-id="9732"></path></svg>