<?xml version="1.0" standalone="no"?><!DOCTYPE svg PUBLIC "-//W3C//DTD SVG 1.1//EN" "http://www.w3.org/Graphics/SVG/1.1/DTD/svg11.dtd"><svg t="1714621700636" class="icon" viewBox="0 0 1024 1024" version="1.1" xmlns="http://www.w3.org/2000/svg" p-id="12224" width="64" height="64" xmlns:xlink="http://www.w3.org/1999/xlink"><path d="M245.888 653.312V460.992c0-37.568-18.56-72.704-51.328-91.52L63.872 292.032v466.88c0 11.712 7.04 23.424 16.32 28.16l401.472 234.56V869.12c0-37.568-18.688-72.704-51.328-91.52l-168.064-96.128c-9.344-7.04-16.384-16.448-16.384-28.16" fill="#008DD5" p-id="12225"></path><path d="M761.792 681.472l-168.128 98.56c-32.64 18.752-51.328 53.888-51.328 91.456V1024l401.472-234.624a32.512 32.512 0 0 0 16.32-28.16v-469.12L829.44 367.104c-32.64 18.752-51.328 53.888-51.328 91.456v192.384c0 14.08-7.04 23.424-16.32 30.464" fill="#EE3306" p-id="12226"></path><path d="M703.36 102.08L535.36 3.52a39.68 39.68 0 0 0-32.64 0L101.184 238.144l130.688 75.072c32.704 18.752 72.32 18.752 102.656 0l168.064-98.56c2.368-2.304 4.672-2.304 7.04-2.304a32.96 32.96 0 0 1 25.728 2.304l167.936 98.56c32.768 18.752 72.448 18.752 102.72 0l130.752-75.136-233.472-136z" fill="#5AB200" p-id="12227"></path></svg>