<?xml version="1.0" encoding="UTF-8"?>
<svg width="25px" height="25px" viewBox="0 0 25 25" version="1.1" xmlns="http://www.w3.org/2000/svg" xmlns:xlink="http://www.w3.org/1999/xlink">
    <title>appbar_logo_dark.2</title>
    <g id="Page-1" stroke="none" stroke-width="1" fill="none" fill-rule="evenodd">
        <g id="appbar_logo_dark.2" transform="translate(-0.0059, 0.0059)" fill-rule="nonzero">
            <path d="M20.5168594,11.29604 L17.2500594,24.18694 C17.2420594,24.22234 17.2422594,24.25904 17.2505594,24.29424 C17.2589594,24.32954 17.2752594,24.36244 17.2981594,24.39054 C17.3211594,24.41854 17.3502594,24.44094 17.3831594,24.45604 C17.4161594,24.47114 17.4520594,24.47854 17.4883594,24.4777133 L24.0195594,24.4777133 C24.0557594,24.47854 24.0917594,24.47114 24.1246594,24.45604 C24.1576594,24.44094 24.1867594,24.41854 24.2096594,24.39054 C24.2326594,24.36244 24.2489594,24.32954 24.2572594,24.29424 C24.2656594,24.25904 24.2658594,24.22234 24.2578594,24.18694 L20.9743594,11.29604 C20.9599594,11.24654 20.9298594,11.20314 20.8885594,11.17214 C20.8473594,11.14124 20.7971594,11.12454 20.7455594,11.12454 C20.6940594,11.12454 20.6438594,11.14124 20.6026594,11.17214 C20.5613594,11.20314 20.5312594,11.24654 20.5168594,11.29604 L20.5168594,11.29604 Z" id="Path" fill="#00E5E5"></path>
            <path d="M2.53636938,14.21694 L0.00585409293,24.18654 C-0.00213078369,24.22184 -0.00194493369,24.25854 0.00639748731,24.29384 C0.0147399063,24.32914 0.0310189763,24.36204 0.0539958763,24.39004 C0.0769726763,24.41804 0.106041376,24.44054 0.138990376,24.45564 C0.171938376,24.47074 0.207898376,24.47814 0.244132376,24.4773133 L5.28610938,24.4773133 C5.32234938,24.47814 5.35830938,24.47074 5.39124938,24.45564 C5.42419938,24.44054 5.45326938,24.41804 5.47624938,24.39004 C5.49921938,24.36204 5.51549938,24.32914 5.52384938,24.29384 C5.53218938,24.25854 5.53236938,24.22184 5.52438938,24.18654 L2.99148938,14.21694 C2.97639938,14.16834 2.94617938,14.12594 2.90523938,14.09574 C2.86429938,14.06554 2.81477938,14.04934 2.76392938,14.04934 C2.71307938,14.04934 2.66355938,14.06554 2.62261938,14.09574 C2.58167938,14.12594 2.55145938,14.16834 2.53636938,14.21694 L2.53636938,14.21694 Z" id="Path" fill="#00E5E5"></path>
            <path d="M6.99929938,5.96253 L2.38860938,24.18604 C2.38083938,24.22044 2.38079938,24.25614 2.38847938,24.29054 C2.39615938,24.32494 2.41137938,24.35714 2.43302938,24.38494 C2.45467938,24.41274 2.48222938,24.43544 2.51368938,24.45134 C2.54514938,24.46714 2.57973938,24.47584 2.61496938,24.4768133 L11.8387594,24.4768133 C11.8749594,24.47764 11.9109594,24.47024 11.9438594,24.45514 C11.9768594,24.44004 12.0058594,24.41764 12.0288594,24.38964 C12.0518594,24.36164 12.0681594,24.32864 12.0764594,24.29344 C12.0848594,24.25814 12.0849594,24.22144 12.0770594,24.18604 L7.45440938,5.96253 C7.43932938,5.91396 7.40910938,5.8715 7.36816938,5.84134 C7.32721938,5.81119 7.27770938,5.79492 7.22685938,5.79492 C7.17600938,5.79492 7.12648938,5.81119 7.08554938,5.84134 C7.04459938,5.8715 7.01437938,5.91396 6.99929938,5.96253 Z" id="Path" fill="#006EFF"></path>
            <path d="M14.9530594,0.1676 C14.9379594,0.11904 14.9077594,0.07658 14.8668594,0.04642 C14.8258594,0.01627 14.7763594,0 14.7255594,0 C14.6746594,0 14.6251594,0.01627 14.5842594,0.04642 C14.5432594,0.07658 14.5130594,0.11904 14.4979594,0.1676 L8.19548938,24.18614 C8.18750938,24.22144 8.18768938,24.25814 8.19602938,24.29344 C8.20437938,24.32874 8.22065938,24.36164 8.24362938,24.38964 C8.26660938,24.41764 8.29567938,24.44014 8.32862938,24.45524 C8.36157938,24.47034 8.39753938,24.47764 8.43376938,24.4768993 L21.0291594,24.4768993 C21.0654594,24.47764 21.1013594,24.47034 21.1343594,24.45524 C21.1672594,24.44014 21.1963594,24.41764 21.2193594,24.38964 C21.2422594,24.36164 21.2585594,24.32874 21.2669594,24.29344 C21.2752594,24.25814 21.2754594,24.22144 21.2674594,24.18614 L14.9530594,0.1676 Z" id="Path" fill="#006EFF"></path>
            <path d="M10.3233594,8.61294 L6.32500938,24.18444 C6.31659938,24.21994 6.31646938,24.25694 6.32460938,24.29254 C6.33275938,24.32804 6.34896938,24.36134 6.37199938,24.38964 C6.39501938,24.41794 6.42424938,24.44064 6.45740938,24.45584 C6.49057938,24.47104 6.52679938,24.47854 6.56328938,24.4776284 L14.5408594,24.4776284 C14.5773594,24.47854 14.6135594,24.47104 14.6467594,24.45584 C14.6798594,24.44064 14.7091594,24.41794 14.7321594,24.38964 C14.7551594,24.36134 14.7713594,24.32804 14.7795594,24.29254 C14.7876594,24.25694 14.7875594,24.21994 14.7791594,24.18444 L10.7784594,8.61294 C10.7633594,8.56434 10.7331594,8.52194 10.6921594,8.49174 C10.6512594,8.46154 10.6017594,8.44534 10.5508594,8.44534 C10.5000594,8.44534 10.4505594,8.46154 10.4095594,8.49174 C10.3686594,8.52194 10.3384594,8.56434 10.3233594,8.61294 Z" id="Path" fill="#00E5E5"></path>
        </g>
    </g>
</svg>