<svg height="500" width="500" xmlns="http://www.w3.org/2000/svg"><path d="m0 0h500v500c-165 0-330 0-500 0 0-165 0-330 0-500z" fill="#4d70d5"/><path d="m0 0h86v85h85v85h85v86c-28.05 0-56.1 0-85 0v85c-28.05 0-56.1 0-85 0 0-28.05 0-56.1 0-85-28.05 0-56.1 0-85 0v85c-28.38 0-56.76 0-86 0 0-28.38 0-56.76 0-86h85c0-28.05 0-56.1 0-85-27.72 0-55.44 0-84 0 0-28.05 0-56.1 0-85h84c0-28.05 0-56.1 0-85z" fill="#fefefe" transform="translate(175 76)"/><path d="m0 0h1v84h85v1c-28.05 0-56.1 0-85 0v85c-28.38 0-56.76 0-86 0 0-28.38 0-56.76 0-86h85c0-27.72 0-55.44 0-84zm-84 85v84h84c0-27.72 0-55.44 0-84-27.72 0-55.44 0-84 0z" fill="#bcc9ef" transform="translate(175 247)"/></svg>