<svg viewBox="0 0 1024 1024" version="1.1" xmlns="http://www.w3.org/2000/svg" p-id="5156" xmlns:xlink="http://www.w3.org/1999/xlink" width="200" height="200"><path d="M69.530864 0h884.938272v1024H69.530864z" fill="#E0E0E0" fill-opacity="0"></path><path d="M79.560165 259.855802v503.572017l435.09465 250.73251 434.041152-250.73251-1.053498-502.518519-432.987654-250.73251-435.09465 249.679012z" fill="#005EFD"></path><path d="M93.255638 268.283786v486.716049l422.452675 241.251029 419.292181-242.304527v-485.662551l-421.399177-242.304527-420.345679 242.304527z" fill="#FFFFFF"></path><path d="M139.609547 294.621235l95.868313 56.888888 371.884774-218.074074-93.761317-53.728395-373.99177 214.913581z" fill="#005EFD"></path><path d="M139.609547 293.567737v435.09465l243.358025 139.061728 92.707819-55.835391-241.251029-140.115226 1.053498-320.263375-95.868313-57.942386zM791.269663 350.096329v321.780412l95.269925 55.732148V294.364181L645.749992 154.506008 551.527243 210.238156l239.74242 139.858173z" fill="#0854C1"></path><path d="M420.893498 886.470058l93.339918 56.052411 372.306172-214.692346-94.387094-57.110123L420.893498 886.470058zM385.074568 416.826996h49.88102v280.230453l93.3947 55.835391v-474.074075l-143.27572 81.119342v56.888889z" fill="#005EFD"></path><path d="M528.350288 752.89284l31.604938-16.855968v-440.362139l-31.604938-16.855968v474.074075z" fill="#0854C1"></path></svg>