<svg viewBox="0 0 1024 1024" version="1.1" xmlns="http://www.w3.org/2000/svg" xmlns:xlink="http://www.w3.org/1999/xlink" width="200" height="200"><path d="M642.56 946.176h-261.12c-167.936 0-303.616-136.192-303.616-303.616v-261.12c0-167.936 136.192-303.616 303.616-303.616h261.12c167.936 0 303.616 136.192 303.616 303.616v261.12c0 167.424-136.192 303.616-303.616 303.616z" fill="#F2F9FF"></path><path d="M512 808.448l-6.144-2.56c-201.728-78.336-224.768-180.736-224.768-250.88V287.232l17.92 0.512c140.288 4.608 199.68-58.88 200.192-59.392l12.8-14.336 12.8 14.336c0.512 0.512 56.832 59.392 185.344 59.392 5.12 0 9.728 0 14.848-0.512l17.92-0.512v267.776c0 70.144-23.552 172.544-224.768 250.88l-6.144 3.072zM315.904 323.072v232.448c0 37.888 0 137.216 196.096 215.552 196.096-78.336 196.096-178.176 196.096-215.552V323.072c-108.544-0.512-171.008-39.424-196.096-59.392-25.088 19.968-87.552 58.88-196.096 59.392z m0 0" fill="#04AE7F"></path><path d="M674.304 566.272h-78.336v-133.12h28.16v110.08h49.664v23.04z m-114.176-7.68c-9.216 6.656-22.016 10.24-38.4 10.24-15.36 0-27.648-2.56-37.376-7.168v-28.672c10.24 8.704 23.04 13.312 36.352 13.312 7.68 0 13.312-1.536 17.408-4.096 4.096-2.56 5.632-6.144 5.632-10.24 0-3.584-1.536-7.168-4.608-10.24-3.072-3.072-11.264-7.68-24.576-13.312-20.992-8.704-31.232-21.504-31.232-38.4 0-12.288 4.608-22.016 14.336-28.672 9.216-6.656 22.016-10.24 37.376-10.24 12.8 0 24.064 1.536 32.768 5.12v26.624c-8.704-6.144-19.456-9.216-31.232-9.216-7.168 0-12.8 1.024-16.896 3.584-4.096 2.56-6.144 6.144-6.144 10.24 0 3.584 1.536 6.656 4.096 9.728 3.072 3.072 9.728 6.656 20.992 11.776 13.312 5.632 22.528 11.776 27.136 17.92 5.12 6.144 7.68 13.824 7.68 22.528 0.512 12.8-4.096 22.528-13.312 29.184z m-105.472 0c-9.216 6.656-22.016 10.24-38.4 10.24-15.36 0-27.648-2.56-37.376-7.168v-28.672c10.752 8.704 23.04 13.312 36.352 13.312 7.68 0 13.312-1.536 17.408-4.096 4.096-2.56 5.632-6.144 5.632-10.24 0-3.584-1.536-7.168-4.608-10.24-3.072-3.072-11.264-7.68-24.576-13.312-20.992-8.704-31.232-21.504-31.232-38.4 0-12.288 4.608-22.016 14.336-28.672 9.216-6.656 22.016-10.24 37.376-10.24 12.8 0 24.064 1.536 32.768 5.12v26.624c-8.704-6.144-19.456-9.216-31.232-9.216-7.168 0-12.8 1.024-16.896 3.584-4.096 2.56-6.144 6.144-6.144 10.24 0 3.584 1.536 6.656 4.096 9.728 3.072 3.072 9.728 6.656 20.992 11.776 13.312 5.632 22.528 11.776 27.136 17.92 5.12 6.656 7.68 14.336 7.68 22.528 0 12.8-4.608 22.528-13.312 29.184z m332.288-190.464C696.32 386.56 604.16 395.776 512 395.776s-184.32-9.216-274.944-27.648c22.528 61.44 33.792 109.056 33.792 142.848 0 33.792-11.264 81.92-33.792 142.848 121.344-20.992 213.504-31.744 274.944-31.744s153.6 10.752 274.944 31.744c-29.696-61.952-44.544-109.568-44.544-142.848s15.36-80.896 44.544-142.848z m0 0" fill="#04AE7F"></path></svg>
