<svg height="2500" viewBox="123.5 281.88608274 778.8 460.11391726" width="2500" xmlns="http://www.w3.org/2000/svg"><path d="m344.4 449.1c0 9.4 1.1 17.1 2.8 22.7a141 141 0 0 0 8.2 18.5 10.6 10.6 0 0 1 1.8 5.8c0 2.6-1.5 5.2-4.9 7.7l-16 10.8a12.5 12.5 0 0 1 -6.7 2.3c-2.5 0-5.1-1.3-7.6-3.6a81.7 81.7 0 0 1 -9.2-12c-2.6-4.4-5.2-9.3-8-15.1q-29.9 35.3-75.1 35.3c-21.4 0-38.5-6.2-51-18.5s-18.9-28.6-18.9-49.1 7.6-39.4 23.2-52.7 36.3-19.9 62.6-19.9a199 199 0 0 1 27.1 2c9.4 1.3 19.1 3.3 29.3 5.6v-18.6c0-19.5-4.1-33-12-41s-21.9-11.7-41.6-11.7a116.2 116.2 0 0 0 -27.6 3.3 205.5 205.5 0 0 0 -27.6 8.7 68.7 68.7 0 0 1 -8.9 3.3 16.9 16.9 0 0 1 -4.1.8c-3.6 0-5.4-2.6-5.4-8v-12.5c0-4.1.5-7.2 1.8-8.9s3.6-3.6 7.2-5.4a142.4 142.4 0 0 1 32.1-11.5 152 152 0 0 1 39.9-4.9c30.4 0 52.6 6.9 66.9 20.7s21.2 34.8 21.2 63v82.9zm-103.7 38.9a81.7 81.7 0 0 0 26.3-4.7c9.2-3 17.4-8.7 24.3-16.3a40.7 40.7 0 0 0 8.7-16.4 94 94 0 0 0 2.5-22.3v-10.7a228.2 228.2 0 0 0 -23.5-4.4 195.7 195.7 0 0 0 -24-1.5c-17.1 0-29.6 3.3-38 10.2s-12.5 16.7-12.5 29.5 3 20.9 9.4 27.1 15.1 9.5 26.8 9.5zm205.1 27.6c-4.6 0-7.6-.8-9.7-2.6s-3.8-5.1-5.3-10l-60.1-197.7c-1.5-5.1-2.3-8.5-2.3-10.3 0-4 2.1-6.3 6.2-6.3h25c4.9 0 8.2.7 10 2.5s3.5 5.1 5.1 10l42.9 169.4 39.8-169.4c1.3-5.1 2.8-8.5 4.9-10s5.6-2.5 10.2-2.5h20.4c4.9 0 8.2.7 10.3 2.5s3.8 5.1 4.8 10l40.4 171.4 44.2-171.4c1.5-5.1 3.3-8.5 5.1-10s5.3-2.5 9.9-2.5h23.8c4.1 0 6.4 2 6.4 6.3a32.6 32.6 0 0 1 -.5 4.1 41.3 41.3 0 0 1 -1.8 6.4l-61.6 197.8c-1.5 5.1-3.3 8.4-5.4 10s-5.3 2.5-9.7 2.5h-21.9c-4.9 0-8.2-.7-10.2-2.5s-3.9-5.1-4.9-10.3l-39.6-165-39.3 164.8c-1.3 5.1-2.8 8.4-4.9 10.2s-5.6 2.6-10.2 2.6zm328.3 6.9a167.8 167.8 0 0 1 -39.4-4.6c-12.7-3.1-22.7-6.4-29.3-10.2-4.1-2.4-6.9-4.9-8-7.2a18.6 18.6 0 0 1 -1.5-7.2v-13c0-5.4 2-8 5.9-8a15.4 15.4 0 0 1 4.6.8c1.5.5 3.8 1.5 6.4 2.6a135.8 135.8 0 0 0 28.1 8.9 148.7 148.7 0 0 0 30.4 3.1c16 0 28.6-2.8 37.2-8.4s13.3-13.9 13.3-24.4a25.1 25.1 0 0 0 -6.9-17.9c-4.6-4.8-13.3-9.2-25.8-13.3l-37-11.5c-18.7-5.9-32.4-14.6-40.9-26.1a61 61 0 0 1 -12.7-37.1c0-10.7 2.3-20.2 6.9-28.4a64.3 64.3 0 0 1 18.3-20.9 82.2 82.2 0 0 1 26.6-13.4 113.8 113.8 0 0 1 32.2-4.3 140.1 140.1 0 0 1 17.1 1c5.9.8 11.2 1.8 16.6 2.8s10 2.6 14.6 4.1a64 64 0 0 1 10.7 4.6c3.6 2.1 6.1 4.1 7.7 6.4a14.3 14.3 0 0 1 2.3 8.5v12c0 5.4-2.1 8.2-5.9 8.2-2.1 0-5.4-1-9.7-3.1-14.6-6.6-30.9-10-49.1-10-14.5 0-26 2.3-33.9 7.2s-12 12.3-12 22.8a24 24 0 0 0 7.6 18.1c5.1 4.9 14.6 9.8 28.1 14.1l36.3 11.5c18.4 5.9 31.7 14.1 39.6 24.6a58 58 0 0 1 11.7 35.8 66.5 66.5 0 0 1 -6.6 29.7 68.5 68.5 0 0 1 -18.7 22.5c-7.9 6.4-17.3 11-28.3 14.3a120.7 120.7 0 0 1 -36.5 5.4z" fill="#252f3e"/><path d="m822.3 646.8c-84 62.2-206.1 95.2-311.1 95.2-147.1 0-279.7-54.5-379.8-145.1-7.9-7.1-.8-16.8 8.7-11.2 108.3 62.9 241.9 101 380.1 101 93.2 0 195.6-19.4 289.9-59.3 14-6.4 26 9.2 12.2 19.4zm35-39.9c-10.7-13.8-71-6.6-98.3-3.3-8.2 1-9.5-6.1-2.1-11.5 48.1-33.8 127-24.1 136.2-12.8s-2.6 90.6-47.5 128.4c-6.9 5.9-13.6 2.8-10.5-4.8 10.2-25.4 33-82.4 22.2-96z" fill="#f90"/></svg>