<svg viewBox="0 0 1710 1024" version="1.1" xmlns="http://www.w3.org/2000/svg" p-id="4277" width="200" height="200"><path d="M486.118681 373.591209c0 20.817582 2.250549 37.696703 6.189011 50.074725 4.501099 12.378022 10.127473 25.881319 18.004396 40.50989 2.813187 4.501099 3.938462 9.002198 3.938461 12.94066 0 5.626374-3.375824 11.252747-10.690109 16.87912L468.114286 517.626374c-5.063736 3.375824-10.127473 5.063736-14.628572 5.063736-5.626374 0-11.252747-2.813187-16.879121-7.876923-7.876923-8.43956-14.628571-17.441758-20.254945-26.443956-5.626374-9.564835-11.252747-20.254945-17.441758-33.195605-43.885714 51.762637-99.024176 77.643956-165.415385 77.643956-47.261538 0-84.958242-13.503297-112.527472-40.50989-27.569231-27.006593-41.635165-63.015385-41.635165-108.026373 0-47.824176 16.879121-86.646154 51.2-115.903297 34.320879-29.257143 79.894505-43.885714 137.846154-43.885714 19.12967 0 38.821978 1.687912 59.63956 4.501099 20.817582 2.813187 42.197802 7.314286 64.703297 12.378022v-41.072528c0-42.76044-9.002198-72.58022-26.443956-90.021978-18.004396-17.441758-48.386813-25.881319-91.70989-25.881319-19.692308 0-39.947253 2.250549-60.764835 7.314286-20.817582 5.063736-41.072527 11.252747-60.764835 19.12967-9.002198 3.938462-15.753846 6.189011-19.692308 7.314286-3.938462 1.125275-6.751648 1.687912-9.002198 1.687912-7.876923 0-11.815385-5.626374-11.815384-17.441758v-27.569231c0-9.002198 1.125275-15.753846 3.938461-19.692307 2.813187-3.938462 7.876923-7.876923 15.753846-11.815385 19.692308-10.127473 43.323077-18.567033 70.892308-25.318681C230.681319 10.69011 259.938462 7.314286 290.883516 7.314286c66.953846 0 115.903297 15.191209 147.410989 45.573626 30.945055 30.382418 46.698901 76.518681 46.698902 138.408791v182.294506zM257.687912 459.112088c18.567033 0 37.696703-3.375824 57.951648-10.127473 20.254945-6.751648 38.259341-19.12967 53.45055-36.008791 9.002198-10.69011 15.753846-22.505495 19.12967-36.008791 3.375824-13.503297 5.626374-29.81978 5.626374-48.949451v-23.630769c-16.316484-3.938462-33.758242-7.314286-51.762638-9.564835-18.004396-2.250549-35.446154-3.375824-52.887912-3.375824-37.696703 0-65.265934 7.314286-83.832967 22.505494-18.567033 15.191209-27.569231 36.571429-27.56923 64.703297 0 26.443956 6.751648 46.136264 20.817582 59.63956 13.503297 14.065934 33.195604 20.817582 59.076923 20.817583z m451.797802 60.764835c-10.127473 0-16.879121-1.687912-21.380219-5.626374-4.501099-3.375824-8.43956-11.252747-11.815385-21.942857L544.07033 57.389011c-3.375824-11.252747-5.063736-18.567033-5.063737-22.505495 0-9.002198 4.501099-14.065934 13.503297-14.065934h55.138462c10.69011 0 18.004396 1.687912 21.942857 5.626374 4.501099 3.375824 7.876923 11.252747 11.252747 21.942857l94.523077 372.465934 87.771429-372.465934c2.813187-11.252747 6.189011-18.567033 10.690109-21.942857 4.501099-3.375824 12.378022-5.626374 22.505495-5.626374h45.010989c10.69011 0 18.004396 1.687912 22.505494 5.626374 4.501099 3.375824 8.43956 11.252747 10.69011 21.942857l88.896704 376.967033 97.336263-376.967033c3.375824-11.252747 7.314286-18.567033 11.252748-21.942857 4.501099-3.375824 11.815385-5.626374 21.942857-5.626374h52.325274c9.002198 0 14.065934 4.501099 14.065935 14.065934 0 2.813187-0.562637 5.626374-1.125275 9.002198-0.562637 3.375824-1.687912 7.876923-3.938462 14.065934l-135.595604 434.918682c-3.375824 11.252747-7.314286 18.567033-11.815385 21.942857-4.501099 3.375824-11.815385 5.626374-21.380219 5.626373h-48.386814c-10.69011 0-18.004396-1.687912-22.505494-5.626373-4.501099-3.938462-8.43956-11.252747-10.69011-22.505495L877.714286 129.406593l-86.646154 362.338462c-2.813187 11.252747-6.189011 18.567033-10.69011 22.505494-4.501099 3.938462-12.378022 5.626374-22.505495 5.626374h-48.386813z m722.989011 15.191209c-29.257143 0-58.514286-3.375824-86.646154-10.127473-28.131868-6.751648-50.074725-14.065934-64.703296-22.505494-9.002198-5.063736-15.191209-10.69011-17.441759-15.753846-2.250549-5.063736-3.375824-10.69011-3.375824-15.753846v-28.694506c0-11.815385 4.501099-17.441758 12.94066-17.441758 3.375824 0 6.751648 0.562637 10.127472 1.687912 3.375824 1.125275 8.43956 3.375824 14.065934 5.626374 19.12967 8.43956 39.947253 15.191209 61.89011 19.692307 22.505495 4.501099 44.448352 6.751648 66.953846 6.751649 35.446154 0 63.015385-6.189011 82.145055-18.567033 19.12967-12.378022 29.257143-30.382418 29.257143-53.45055 0-15.753846-5.063736-28.694505-15.191209-39.384615-10.127473-10.69011-29.257143-20.254945-56.826373-29.257143L1384.087912 292.571429c-41.072527-12.940659-71.454945-32.07033-90.021978-57.389011-18.567033-24.756044-28.131868-52.325275-28.131868-81.582418 0-23.630769 5.063736-44.448352 15.191209-62.452747 10.127473-18.004396 23.630769-33.758242 40.50989-46.136264 16.879121-12.940659 36.008791-22.505495 58.514286-29.257143 22.505495-6.751648 46.136264-9.564835 70.892307-9.564835 12.378022 0 25.318681 0.562637 37.696704 2.250549 12.940659 1.687912 24.756044 3.938462 36.571428 6.189011 11.252747 2.813187 21.942857 5.626374 32.07033 9.002198 10.127473 3.375824 18.004396 6.751648 23.630769 10.127473 7.876923 4.501099 13.503297 9.002198 16.879121 14.065934 3.375824 4.501099 5.063736 10.69011 5.063736 18.567033v26.443956c0 11.815385-4.501099 18.004396-12.940659 18.004395-4.501099 0-11.815385-2.250549-21.38022-6.751648-32.07033-14.628571-68.079121-21.942857-108.026374-21.942857-32.07033 0-57.389011 5.063736-74.830769 15.753846-17.441758 10.69011-26.443956 27.006593-26.443956 50.074725 0 15.753846 5.626374 29.257143 16.879121 39.947253 11.252747 10.69011 32.07033 21.38022 61.89011 30.945055l79.894505 25.318681c40.50989 12.940659 69.767033 30.945055 87.208792 54.013187 17.441758 23.068132 25.881319 49.512088 25.881318 78.769231 0 24.193407-5.063736 46.136264-14.628571 65.265934-10.127473 19.12967-23.630769 36.008791-41.072528 49.512088-17.441758 14.065934-38.259341 24.193407-62.452747 31.507692-25.318681 7.876923-51.762637 11.815385-80.457143 11.815385z" fill="#252F3E" p-id="4278"></path><path d="M1538.813187 808.50989c-185.107692 136.720879-454.048352 209.301099-685.292308 209.301099-324.079121 0-616.087912-119.841758-836.641758-319.015385-17.441758-15.753846-1.687912-37.134066 19.12967-24.756044 238.558242 138.408791 532.817582 222.241758 837.204396 222.241759 205.362637 0 430.98022-42.76044 638.593406-130.531868 30.945055-14.065934 57.389011 20.254945 27.006594 42.760439z" fill="#FF9900" p-id="4279"></path><path d="M1615.894505 720.738462c-23.630769-30.382418-156.413187-14.628571-216.615384-7.314286-18.004396 2.250549-20.817582-13.503297-4.501099-25.318681 105.775824-74.268132 279.630769-52.887912 299.885714-28.131869 20.254945 25.318681-5.626374 199.173626-104.650549 282.443956-15.191209 12.940659-29.81978 6.189011-23.068132-10.690109 22.505495-55.701099 72.58022-181.169231 48.94945-210.989011z" fill="#FF9900" p-id="4280"></path></svg>
