<svg viewBox="0 0 1024 1024" version="1.1" xmlns="http://www.w3.org/2000/svg" p-id="1684" width="200" height="200"><path d="M482.687 74.101c10.109-5.627 19.662-12.497 30.785-15.998 8.506-2.192 16.685 2.323 23.883 6.38 117.253 68.08 235.062 135.312 352.118 203.753-40.338 22.115-79.662 46.063-119.805 68.506-27.677 15.148-62.814 13.74-89.771-2.388-48.289-28.135-96.871-55.78-145.127-84.014-8.997-5.692-21.232-5.889-30.654-1.21-49.728 28.724-99.456 57.58-149.282 86.173-27.056 15.834-61.963 15.867-89.314 0.687a26252.906 26252.906 0 0 1-113.785-65.628c-0.229-1.178-0.72-3.533-0.949-4.744 110.776-63.533 221.256-127.722 331.9-191.517z" fill="#72AF2D" p-id="1685"></path><path d="M115.552 719.744c0.49-135.148-0.622-270.329 0.556-405.477 32.617 19.367 65.595 38.08 98.441 57.088 12.76 7.427 26.27 14.199 36.74 24.864 15.769 16.39 26.042 38.67 25.845 61.637 0.033 54.57 0.131 109.172-0.065 163.774-1.047 12.203 3.304 25.65 14.493 31.963 40.567 23.72 81.396 47.045 122.095 70.6 14.362 8.638 29.771 15.9 42.4 27.057 18.156 17.11 28.756 41.777 29.116 66.707-0.033 44.559-0.196 89.15 0.066 133.709-10.175-3.468-18.877-9.848-28.201-14.984-108.55-62.716-217.167-125.366-325.652-188.148-10.207-5.66-17.143-16.947-15.834-28.79z" fill="#118CCF" p-id="1686"></path><path d="M815.143 367.397c30.753-17.47 61.015-35.824 92.095-52.705 0.196 135.017-0.066 270.035 0.13 405.052 0.819 11.582-5.3 23.163-15.637 28.627-110.416 63.86-220.896 127.558-331.312 191.386-7.328 4.45-14.722 8.8-22.508 12.432-0.098-44.82 0.065-89.64-0.098-134.428-0.426-31.538 17.47-62.16 44.558-78.06 49.074-28.43 98.245-56.664 147.286-85.159 8.245-4.515 15.311-13.053 14.919-22.9 0.13-55.683 0.065-111.398 0-167.08-0.033-23.784 8.048-47.732 24.21-65.398 12.497-14.362 30.36-22.083 46.357-31.767z" fill="#DA4525" p-id="1687"></path></svg>
