<svg viewBox="0 0 1024 1024" version="1.1" xmlns="http://www.w3.org/2000/svg" width="200" height="200"><path d="M511.968471 1020.934132c-2.043912-4.087824-2.043912-9.197605-3.065868-14.307385V340.311377c0-7.153693 0-14.307385-1.021956-21.461078 0-1.021956 0-2.043912 2.043912-2.043912s4.087824 0 6.131737 1.021956c21.461078 6.131737 41.9002 12.263473 63.361277 17.373254 5.10978 1.021956 7.153693 4.087824 6.131737 9.197605v49.053892c0 6.131737 2.043912 9.197605 8.175648 10.219561 13.285429 3.065868 26.570858 7.153693 39.856288 9.197604h1.021956c5.10978-2.043912 8.175649 1.021956 12.263473 3.065869h1.021956c9.197605 0 1.021956-4.087824 3.065868-6.131737-1.021956-14.307385 0-27.592814 0-41.900199 0-3.065868 0-7.153693 3.065869-9.197605h2.043912c21.461078 6.131737 41.9002 12.263473 63.361277 18.395209 4.087824 1.021956 4.087824 4.087824 4.087825 7.153693v48.031936c0 5.10978 1.021956 8.175649 6.131736 9.197605 12.263473 3.065868 25.548902 6.131737 37.812375 10.219561h1.021956c6.131737-2.043912 11.241517 3.065868 17.373254 2.043912 1.021956 0 2.043912-1.021956 2.043912-2.043912 2.043912-7.153693 0-14.307385 1.021956-21.461078 1.021956-9.197605 0-18.39521 0-26.570858v-2.043912c0-3.065868 1.021956-2.043912 3.065868-2.043913 20.439122 6.131737 41.9002 12.263473 62.339322 18.39521 5.10978 2.043912 4.087824 5.10978 4.087824 9.197605 0 52.11976 1.021956 104.239521 1.021956 156.359281 0 64.383234 0 128.766467 1.021956 193.149701 0 7.153693-2.043912 15.329341-5.10978 21.461078-17.373253 33.724551-40.878244 61.317365-69.493014 86.866267-51.097804 45.988024-110.371257 77.668663-173.732535 104.239521-29.636727 12.263473-59.273453 20.439122-88.91018 31.680639-2.043912 1.021956-3.065868 1.021956-3.065868 1.021956h-1.021956c-2.043912 1.021956-4.087824 2.043912-6.131737 2.043912" fill="#20A43A" p-id="7969"></path><path d="M507.880647 317.828343c2.043912 0 4.087824 2.043912 4.087824 4.087825v701.061876l-2.043912-1.021956s-40.878244-13.285429-61.317365-20.439122c-70.51497-25.548902-136.942116-57.229541-194.171657-105.261477-32.702595-26.570858-60.295409-56.207585-80.734531-92.998004-6.131737-10.219561-9.197605-22.483034-9.197605-33.724551 1.021956-114.459082 1.021956-228.918164 1.021957-343.377245 0-7.153693 2.043912-9.197605 8.175648-11.241517 20.439122-5.10978 39.856287-11.241517 60.295409-17.373254 3.065868 3.065868 2.043912 7.153693 2.043913 10.219561v33.724551c0 8.175649 1.021956 9.197605 9.197604 7.153693 3.065868-1.021956 6.131737-1.021956 9.197605 0 13.285429-3.065868 26.570858-7.153693 40.878244-10.219561 5.10978-1.021956 5.10978-4.087824 5.10978-8.175649v-49.053892c0-3.065868 0-6.131737 4.087824-7.153693l64.383234-18.395209c3.065868 3.065868 2.043912 7.153693 2.043912 11.241517 0 14.307385-1.021956 28.61477 1.021956 43.944111 5.10978 4.087824 9.197605-1.021956 14.307386-1.021956 2.043912-1.021956 4.087824 0 7.153692 0 12.263473-3.065868 24.526946-7.153693 36.790419-10.219561 6.131737-1.021956 8.175649-4.087824 8.175649-10.219561-1.021956-16.351297 0-32.702595 0-50.075848 0-3.065868 0-6.131737 4.087824-7.153692 21.461078-3.065868 43.944112-9.197605 65.40519-14.307386z" fill="#18842D" p-id="7970"></path><path d="M511.968471 159.42515c10.219561 1.021956 17.373253 5.10978 18.39521 16.351297 1.021956 9.197605 2.043912 21.461078 8.175649 27.592814 6.131737 6.131737 18.39521 6.131737 27.592814 9.197605 115.481038 32.702595 230.962076 65.40519 346.443114 97.085829 6.131737 2.043912 10.219561 2.043912 15.329341-3.065869l1.021956-1.021956c16.351297-16.351297 34.746507-21.461078 57.229541-12.263473 1.021956 2.043912-2.043912 3.065868-3.065868 5.109781-18.39521 24.526946-36.790419 48.031936-55.185629 72.558882-3.065868 5.10978-6.131737 6.131737-12.263473 4.087824-131.832335-38.834331-264.686627-76.646707-396.518962-114.459082-4.087824-1.021956-8.175649-2.043912-13.285429-1.021956 3.065868-10.219561 2.043912-21.461078 2.043912-31.680638v-55.185629c1.021956-6.131737 1.021956-10.219561 4.087824-13.285429z" fill="#20A43A" p-id="7971"></path><path d="M511.968471 159.42515v88.910179c0 5.10978 0 8.175649-5.10978 10.219561-36.790419 10.219561-72.558882 21.461078-108.327345 31.680639-97.085828 27.592814-194.171657 56.207585-290.235529 83.800399-3.065868 1.021956-7.153693 3.065868-10.219561-1.021956-20.439122-26.570858-40.878244-53.141717-62.339322-80.734531l31.680639-4.087824c2.043912 0 3.065868 0 5.109781 1.021956s3.065868 2.043912 4.087824 3.065868c16.351297 17.373253 34.746507 17.373253 57.229541 11.241517 114.459082-33.724551 229.94012-65.40519 344.399201-97.085828 5.10978-2.043912 9.197605-4.087824 10.219561-10.219561 1.021956-7.153693 4.087824-14.307385 5.109781-21.461078 1.021956-11.241517 8.175649-15.329341 18.395209-15.329341z" fill="#18842D" p-id="7972"></path><path d="M511.968471 2.043912c16.351297-1.021956 16.351297-1.021956 19.417166 14.307385 4.087824 19.417166 7.153693 39.856287 11.241517 59.273453 0 4.087824 3.065868 7.153693 7.153693 8.175649 107.305389 32.702595 214.610778 64.383234 321.916167 97.085829 3.065868 1.021956 7.153693 1.021956 9.197605-2.043913l1.021956-1.021956c17.373253-15.329341 36.790419-23.50499 60.295409-12.263473 0 2.043912-3.065868 3.065868-4.087824 4.087825-20.439122 20.439122-41.9002 39.856287-61.317365 60.295409-5.10978 5.10978-9.197605 6.131737-16.351298 4.087824-113.437126-31.680639-227.896208-63.361277-341.333333-95.041916-3.065868-1.021956-6.131737-1.021956-8.175649-2.043912-1.021956-3.065868-2.043912-6.131737-1.021956-8.175649V15.329341c-1.021956-4.087824-2.043912-9.197605 2.043912-13.285429z" fill="#20A43A" p-id="7973"></path><path d="M511.968471 2.043912v125.700599c0 3.065868 0 7.153693-2.043912 10.219561-56.207585 15.329341-111.393214 31.680639-167.600798 47.00998-59.273453 16.351297-118.546906 32.702595-177.82036 50.075848-8.175649 2.043912-12.263473 1.021956-18.395209-5.10978-20.439122-22.483034-41.9002-44.966068-61.317365-66.427146 6.131737-1.021956 16.351297-2.043912 26.570858-4.087824 4.087824-1.021956 7.153693 2.043912 9.197605 4.087824 17.373253 17.373253 34.746507 16.351297 57.229541 9.197605 97.085828-30.658683 196.215569-59.273453 293.301397-88.91018 6.131737-2.043912 9.197605-5.10978 10.219561-11.241517 3.065868-20.439122 8.175649-39.856287 11.241517-60.295409 1.021956-9.197605 4.087824-13.285429 14.307385-11.241517 2.043912 1.021956 3.065868 1.021956 5.10978 1.021956z" fill="#18842D" p-id="7974"></path><path d="M255.457493 450.682635c-5.10978 2.043912-11.241517 4.087824-17.373253 5.10978-5.10978 1.021956-4.087824-4.087824-4.087825-6.131736v-50.075849h1.021957c20.439122 3.065868 20.439122 3.065868 20.439121 23.50499-1.021956 8.175649 0 17.373253 0 27.592815z" fill="#20A43A" p-id="7975"></path><path d="M788.918571 398.562874v3.065869c1.021956 18.39521 1.021956 35.768463 0 54.163672-7.153693-1.021956-14.307385-4.087824-21.461078-5.10978v-38.834332c0-6.131737 2.043912-9.197605 8.175649-10.21956 5.10978-1.021956 9.197605-4.087824 13.285429-3.065869z m-143.073852 17.373254l-12.263473-3.065869v-42.922155c0-6.131737 2.043912-9.197605 8.175648-9.197605 4.087824 0 8.175649-3.065868 13.28543-2.043912-3.065868 7.153693-1.021956 15.329341-2.043913 22.483034v31.680638c1.021956 4.087824 1.021956 5.10978-7.153692 3.065869z" fill="#18852D" p-id="7976"></path><path d="M386.267873 413.892216c2.043912 0 5.10978-1.021956 7.153692-1.021957-5.10978 0-3.065868-4.087824-3.065868-6.131736v-37.812375c0-3.065868 1.021956-6.131737-3.065868-6.131737-6.131737-1.021956-11.241517-4.087824-17.373254-3.065868v51.097804c0 1.021956 0 8.175649 2.043912 9.197605h3.065869c1.021956 0 2.043912 0 3.065868-1.021956" fill="#20A53A" p-id="7977"></path><path d="M788.918571 455.792415v-54.163672c3.065868 2.043912 2.043912 6.131737 2.043912 9.197604 1.021956 14.307385-1.021956 29.636727 1.021956 43.944112 0 1.021956-1.021956 1.021956-1.021956 2.043912 0 0-1.021956-1.021956-2.043912-1.021956z" fill="#24A53E" p-id="7978"></path></svg>
