<svg version="1.1" id="Layer_1" xmlns:x="ns_extend;" xmlns:i="ns_ai;" xmlns:graph="ns_graphs;" xmlns="http://www.w3.org/2000/svg" xmlns:xlink="http://www.w3.org/1999/xlink" x="0px" y="0px" viewBox="0 0 38.1 42.7" style="enable-background:new 0 0 38.1 42.7;" xml:space="preserve">
 <style type="text/css">
  .st0{fill-rule:evenodd;clip-rule:evenodd;fill:url(#SVGID_1_);}
	.st1{fill-rule:evenodd;clip-rule:evenodd;fill:url(#SVGID_2_);}
	.st2{fill-rule:evenodd;clip-rule:evenodd;fill:url(#SVGID_3_);}
	.st3{fill-rule:evenodd;clip-rule:evenodd;fill:url(#SVGID_4_);}
	.st4{fill-rule:evenodd;clip-rule:evenodd;fill:url(#SVGID_5_);}
	.st5{fill-rule:evenodd;clip-rule:evenodd;fill:url(#SVGID_6_);}
	.st6{fill-rule:evenodd;clip-rule:evenodd;fill:url(#SVGID_7_);}
	.st7{fill-rule:evenodd;clip-rule:evenodd;fill:url(#SVGID_8_);}
	.st8{fill-rule:evenodd;clip-rule:evenodd;fill:url(#SVGID_9_);}
 </style>
 <metadata>
  <sfw xmlns="ns_sfw;">
   <slices>
   </slices>
   <sliceSourceBounds bottomLeftOrigin="true" height="42.7" width="38.1" x="0" y="0">
   </sliceSourceBounds>
  </sfw>
 </metadata>
 <g id="Layer_2_1_">
  <g id="Layer_1-2">
   <linearGradient id="SVGID_1_" gradientUnits="userSpaceOnUse" x1="16.85" y1="37.895" x2="36.49" y2="37.895" gradientTransform="matrix(1 0 0 -1 4.903450e-08 44)">
    <stop offset="0" style="stop-color:#FBAA19">
    </stop>
    <stop offset="1" style="stop-color:#EF3E23">
    </stop>
   </linearGradient>
   <path class="st0" d="M21,6.8l9.9,5.4L21.8,0C20.3,2,20,4.6,21,6.8z">
   </path>
   <linearGradient id="SVGID_2_" gradientUnits="userSpaceOnUse" x1="15.7715" y1="12.9194" x2="17.3115" y2="17.1294" gradientTransform="matrix(1 0 0 -1 4.903450e-08 44)">
    <stop offset="0" style="stop-color:#F78D1E">
    </stop>
    <stop offset="1" style="stop-color:#F37121">
    </stop>
   </linearGradient>
   <path class="st1" d="M16.5,26.7c1.2,0,2.2,1,2.2,2.3c0,1.2-1,2.2-2.3,2.2c-1.2,0-2.2-1-2.2-2.2C14.3,27.8,15.3,26.7,16.5,26.7
			C16.5,26.7,16.5,26.7,16.5,26.7z">
   </path>
   <linearGradient id="SVGID_3_" gradientUnits="userSpaceOnUse" x1="3.5604" y1="11.4696" x2="27.4904" y2="37.1196" gradientTransform="matrix(1 0 0 -1 4.903450e-08 44)">
    <stop offset="0" style="stop-color:#FEBE2D">
    </stop>
    <stop offset="1" style="stop-color:#F04E23">
    </stop>
   </linearGradient>
   <path class="st2" d="M9.7,1.8l27.6,15c0.7,0.3,0.9,1.1,0.6,1.8c-0.1,0.3-0.3,0.5-0.6,0.6c-2.1,1.3-4.4,2.2-6.8,2.6l-5.8,11.8
			c0,0-1.8,4.1-6.8,2.5c2.1-2.1,4.6-4,4.6-7.2c0-3.4-2.7-6.1-6.1-6.1s-6.1,2.7-6.1,6.1l0,0c0,4.2,4.2,6,6.5,8.9
			c1,1.5,0.9,3.5-0.3,4.8C13.7,39.8,8.2,35,5.9,31.9c-1.2-1.6-1.9-3.5-2-5.5c0.2-4.4,3.2-8.2,7.4-9.5c1.3-0.4,2.6-0.5,3.9-0.5
			c1.8,0.1,3.6,0.7,5.2,1.6c2.5,1.4,3.6,1.1,5.3-0.4c1-0.8,2.1-3.5,0.4-4.1c-0.6-0.2-1.1-0.3-1.7-0.4c-3.1-0.6-8.6-1.2-10.6-2.3
			C10.6,9,8.4,5.3,9.7,1.8z">
   </path>
   <linearGradient id="SVGID_4_" gradientUnits="userSpaceOnUse" x1="20.5027" y1="26.4387" x2="7.2627" y2="6.0587" gradientTransform="matrix(1 0 0 -1 4.903450e-08 44)">
    <stop offset="0" style="stop-color:#EA4425">
    </stop>
    <stop offset="1" style="stop-color:#FDBB27">
    </stop>
   </linearGradient>
   <path class="st3" d="M22.5,29.4L22.5,29.4z M22.5,29c1.3-6.7-5.5-13.1-10.8-12.2l0.4-0.1c-0.3,0.1-0.6,0.1-0.8,0.2
			c-4.2,1.3-7.2,5.1-7.4,9.5c0,2,0.7,4,2,5.5c2.3,3.1,7.8,7.9,10.7,10.8c1.2-1.3,1.4-3.3,0.3-4.8c-2.4-2.9-6.5-4.7-6.5-8.9
			c0-3.4,2.7-6.1,6.1-6.1C19.9,22.9,22.6,25.6,22.5,29L22.5,29z">
   </path>
   <linearGradient id="SVGID_5_" gradientUnits="userSpaceOnUse" x1="0.24" y1="33.4281" x2="42.04" y2="33.4281" gradientTransform="matrix(1 0 0 -1 4.903450e-08 44)">
    <stop offset="0" style="stop-color:#F47920">
    </stop>
    <stop offset="1" style="stop-color:#E93825">
    </stop>
   </linearGradient>
   <path class="st4" d="M9.7,1.8l21,11.4l0,0l0.6,0.3c0.5,0.4,1,1.2,0.4,2.6c-1,2.1-5,4.2-9.6,2.6c1.4,0.4,2.4-0.1,3.7-1.1
			c1-0.8,2.1-3.5,0.4-4.1c-0.6-0.2-1.1-0.3-1.7-0.4c-3.1-0.6-8.6-1.2-10.6-2.3C10.6,9,8.4,5.3,9.7,1.8z">
   </path>
   <linearGradient id="SVGID_6_" gradientUnits="userSpaceOnUse" x1="-21.84" y1="36.21" x2="63.21" y2="36.21" gradientTransform="matrix(1 0 0 -1 4.903450e-08 44)">
    <stop offset="0" style="stop-color:#FDCA0B">
    </stop>
    <stop offset="1" style="stop-color:#F5841F">
    </stop>
   </linearGradient>
   <path class="st5" d="M9.7,1.8c2.2,8,15.4,8.7,22,12L9.7,1.8z">
   </path>
   <linearGradient id="SVGID_7_" gradientUnits="userSpaceOnUse" x1="8.5447" y1="25.9314" x2="17.3947" y2="-4.9386" gradientTransform="matrix(1 0 0 -1 4.903450e-08 44)">
    <stop offset="0" style="stop-color:#E73C25">
    </stop>
    <stop offset="1" style="stop-color:#FAA21B">
    </stop>
   </linearGradient>
   <path class="st6" d="M16.9,37.9c-2.3-2.9-6.5-4.7-6.5-8.9c0-3.1,2.3-5.6,5.3-6C10.9,23,7,26.9,7,31.8c0,0.6,0.1,1.2,0.2,1.8
			c1.9,2.2,4.7,4.7,7,6.9c0.9,0.8,1.8,1.7,2.4,2.3c0.6-0.7,0.9-1.5,1-2.4l0,0C17.7,39.5,17.4,38.6,16.9,37.9z">
   </path>
   <linearGradient id="SVGID_8_" gradientUnits="userSpaceOnUse" x1="-51.37" y1="20.9197" x2="74.88" y2="20.9197" gradientTransform="matrix(1 0 0 -1 4.903450e-08 44)">
    <stop offset="0" style="stop-color:#FDBA12">
    </stop>
    <stop offset="1" style="stop-color:#F7921E">
    </stop>
   </linearGradient>
   <path class="st7" d="M22.5,29.7c0-0.2,0-0.5,0-0.7c1.3-6.7-5.6-13.1-10.8-12.2c1.1-0.3,2.3-0.4,3.4-0.3C22,16.7,24,24.1,22.5,29.7
			z">
   </path>
   <linearGradient id="SVGID_9_" gradientUnits="userSpaceOnUse" x1="8.023048e-02" y1="27.2813" x2="4.8102" y2="26.4413" gradientTransform="matrix(1 0 0 -1 4.903450e-08 44)">
    <stop offset="0" style="stop-color:#FEBE2D">
    </stop>
    <stop offset="1" style="stop-color:#F04E23">
    </stop>
   </linearGradient>
   <path class="st8" d="M2.3,14.8L2.3,14.8c1.2,0,2.3,1,2.3,2.3v2.3H2.3c-1.2,0-2.3-1-2.3-2.3c0,0,0,0,0,0l0,0
			C0,15.9,1,14.8,2.3,14.8z">
   </path>
  </g>
 </g>
</svg>