<?xml version="1.0" encoding="UTF-8"?>
<svg version="1.1" xmlns="http://www.w3.org/2000/svg" width="200" height="200">
<path d="M0 0 C0.33 12.87 0.66 25.74 1 39 C4.63 36.03 8.26 33.06 12 30 C12.99 29.67 13.98 29.34 15 29 C15 28.34 15 27.68 15 27 C16.6953125 25.4765625 16.6953125 25.4765625 19.125 23.625 C24.36818245 19.55364629 29.38002727 15.25969115 34.35205078 10.86181641 C38.78276777 7 38.78276777 7 41 7 C41 6.34 41 5.68 41 5 C45.35294118 1 45.35294118 1 49 1 C49.02312269 12.19573244 49.04091471 23.39145924 49.05181217 34.58721066 C49.05704116 39.78528115 49.0641391 44.98333536 49.07543945 50.18139648 C49.08626776 55.19342268 49.09227671 60.20543318 49.09487724 65.21747017 C49.09673159 67.13412282 49.1003524 69.05077457 49.10573006 70.96742058 C49.11293975 73.64228072 49.11399097 76.31707514 49.11352539 78.99194336 C49.11712067 79.7925116 49.12071594 80.59307983 49.12442017 81.41790771 C49.11405216 86.88594784 49.11405216 86.88594784 48 88 C46.23140807 88.09946453 44.45888549 88.13080217 42.6875 88.1328125 C41.61242187 88.13410156 40.53734375 88.13539063 39.4296875 88.13671875 C38.29789062 88.13285156 37.16609375 88.12898438 36 88.125 C34.86820312 88.12886719 33.73640625 88.13273437 32.5703125 88.13671875 C31.49523437 88.13542969 30.42015625 88.13414062 29.3125 88.1328125 C28.31863281 88.13168457 27.32476562 88.13055664 26.30078125 88.12939453 C24 88 24 88 23 87 C22.84174742 85.00217874 22.74880829 82.99911166 22.68359375 80.99609375 C22.64169922 79.78115234 22.59980469 78.56621094 22.55664062 77.31445312 C22.51732422 76.03505859 22.47800781 74.75566406 22.4375 73.4375 C22.39431641 72.15423828 22.35113281 70.87097656 22.30664062 69.54882812 C22.200152 66.36600147 22.09814038 63.18309326 22 60 C21.24074219 60.63808594 20.48148437 61.27617188 19.69921875 61.93359375 C18.70535156 62.75988281 17.71148437 63.58617187 16.6875 64.4375 C15.70136719 65.26121094 14.71523437 66.08492188 13.69921875 66.93359375 C11 69 11 69 8 70 C8 70.66 8 71.32 8 72 C6.51261765 73.35382149 4.95569449 74.63139886 3.375 75.875 C-1.2643158 79.58405196 -5.81455578 83.3707187 -10.3125 87.25 C-11.99985624 88.70517299 -13.68754171 90.15975891 -15.38134766 91.60742188 C-16.47861169 92.55143304 -17.5666265 93.50628271 -18.64599609 94.47070312 C-22.67291886 98 -22.67291886 98 -26 98 C-26 84.8 -26 71.6 -26 58 C-29.3 60.64 -32.6 63.28 -36 66 C-36.66 66 -37.32 66 -38 66 C-38 66.66 -38 67.32 -38 68 C-39.71332754 69.58533702 -41.49689047 71.09541215 -43.3125 72.5625 C-44.29863281 73.36816406 -45.28476563 74.17382812 -46.30078125 75.00390625 C-49 77 -49 77 -52 78 C-52 78.66 -52 79.32 -52 80 C-53.42720409 81.26928798 -54.91983776 82.46538593 -56.4375 83.625 C-60.85617551 87.04712316 -64.96051883 90.6632284 -68.9921875 94.53125 C-71 96 -71 96 -75 96 C-75.02312283 84.93465142 -75.04091478 73.86930855 -75.05181217 62.80394077 C-75.05704113 57.66640434 -75.06413901 52.52888437 -75.07543945 47.39135742 C-75.08626787 42.4376859 -75.09227674 37.48403026 -75.09487724 32.53034782 C-75.09673157 30.63602384 -75.10035234 28.74170076 -75.10573006 26.8473835 C-75.11293989 24.20365614 -75.11399097 21.55999529 -75.11352539 18.91625977 C-75.11712067 18.12504227 -75.12071594 17.33382477 -75.12442017 16.51863098 C-75.11405216 11.11405216 -75.11405216 11.11405216 -74 10 C-72.21928754 9.91273777 -70.4351686 9.89300959 -68.65234375 9.90234375 C-67.57275391 9.90556641 -66.49316406 9.90878906 -65.38085938 9.91210938 C-63.67639648 9.92467773 -63.67639648 9.92467773 -61.9375 9.9375 C-60.22723633 9.94426758 -60.22723633 9.94426758 -58.48242188 9.95117188 C-55.65489649 9.96300253 -52.8274736 9.9794859 -50 10 C-48.65893595 12.6821281 -48.78549581 14.88398032 -48.68359375 17.8828125 C-48.64169922 19.04941406 -48.59980469 20.21601562 -48.55664062 21.41796875 C-48.51732422 22.64128906 -48.47800781 23.86460938 -48.4375 25.125 C-48.39431641 26.35605469 -48.35113281 27.58710937 -48.30664062 28.85546875 C-48.20031296 31.90352853 -48.09828219 34.9516719 -48 38 C-46.515 37.505 -46.515 37.505 -45 37 C-45 36.34 -45 35.68 -45 35 C-43.28667246 33.41466298 -41.50310953 31.90458785 -39.6875 30.4375 C-38.70136719 29.63183594 -37.71523437 28.82617188 -36.69921875 27.99609375 C-34 26 -34 26 -31 25 C-31 24.34 -31 23.68 -31 23 C-29.3046875 21.4765625 -29.3046875 21.4765625 -26.875 19.625 C-21.63181755 15.55364629 -16.61997273 11.25969115 -11.64794922 6.86181641 C-7.21723223 3 -7.21723223 3 -5 3 C-5 2.34 -5 1.68 -5 1 C-3 0 -3 0 0 0 Z " fill="#0260F9" transform="translate(113,51)"/>
</svg>
