<svg viewBox="0 0 1024 1024" version="1.1" xmlns="http://www.w3.org/2000/svg" width="200" height="200"><path d="M663.48 555.229l-32.39-29.14-15.173-13.607a60.881 60.881 0 0 0-81.64 0l-105.603 95.127c-9.634 8.67-24.324 8.67-34.078 0l-5.177-4.576-26.612-23.962-7.586 36.605 19.266 17.22 13.246 11.8 15.172 13.727a60.881 60.881 0 0 0 81.64 0l101.87-91.755 3.734-3.372c9.633-8.67 24.203-8.67 33.956 0l5.419 4.817 32.632 29.38 1.566-42.024z" fill="#8DC21F"></path><path d="M294.653 383.76c8.79-0.362 16.015-7.226 16.858-16.016 10.355-101.87 96.451-181.464 201.091-181.464 110.179 0 199.646 88.023 202.055 197.6 23.842 0 47.804 4.455 70.442 13.004 0-2.77 0.12-5.66 0.12-8.429 0-150.638-122.1-272.737-272.737-272.737s-272.738 122.1-272.738 272.737v5.419c18.062-6.02 36.365-9.272 54.668-10.115z" fill="#0084CF"></path><path d="M726.457 858.43h2.408c1.927 0 3.733-0.24 5.54-0.36 145.46-10.838 259.13-135.707 251.905-285.502-7.104-146.182-130.287-261.418-276.71-259.13h-1.927a333.306 333.306 0 0 0-214.578 83.085l-0.482 0.482c-1.565 1.445-3.25 2.89-4.816 4.335L352.692 522.837a61.05 61.05 0 0 0 0 90.792l2.409 2.168 32.27 29.14-7.104-6.382a30.465 30.465 0 0 1-0.963-44.433l4.816-4.335 62.254-55.872v0.482l78.751-70.803c45.878-46.841 109.095-76.704 179.176-79.112 85.012-4.094 166.773 46.239 198.683 130.167C942.6 619.048 890.1 735.73 785.821 775.466c-5.298 2.047-10.596 3.732-15.894 5.298-1.686 0.482-3.372 0.963-5.058 1.324l-0.722 0.241-4.576 1.084-0.963 0.24c-1.445 0.362-2.89 0.603-4.335 0.964l-0.963 0.24c-1.445 0.242-2.89 0.603-4.335 0.844h-0.964c-1.445 0.482-3.01 0.722-4.455 0.843h-0.843a34.87 34.87 0 0 1-4.937 0.722h-0.361c-5.419 0.723-10.837 1.084-16.136 1.325h-11.8c-32.15-0.723-63.458-9.152-91.394-24.203-8.43-4.576-18.664-3.492-25.769 2.89l-41.784 37.569c40.34 30.224 89.227 49.49 142.45 53.584 0.723 0 1.445 0 2.168 0.12 0.842 0 1.685 0 2.528 0.12 1.084 0 2.047 0 3.131 0.121h21.675c1.324 0 2.77 0 4.094-0.12z" fill="#0084CF"></path><path d="M665.889 557.396l-2.408-2.167-25.167-22.638a30.525 30.525 0 0 1 0 45.396l-22.517 20.23-44.433 39.977v-0.361l-78.871 70.803c-45.878 46.841-109.095 76.704-179.176 79.112-85.012 4.094-166.773-46.24-198.683-130.168-39.616-104.398 12.884-221.08 117.163-260.816a202.626 202.626 0 0 1 62.615-13.005c8.79-0.361 16.136-7.104 16.978-15.894 1.927-18.905 6.382-36.968 13.126-53.946-6.984-0.482-13.968-0.843-21.073-0.843-150.517 0-272.497 121.86-272.737 272.256-0.241 150.517 122.1 273.099 272.737 273.099h10.115-3.853c1.806 0 3.612 0 5.418-0.241h-1.565c80.677-2.408 154.13-33.234 210.724-82.965l0.482-0.361c1.926-1.686 3.974-3.492 5.9-5.299l134.984-121.497a60.917 60.917 0 0 0 0-90.672z" fill="#0084CF"></path></svg>
