<?xml version="1.0" encoding="UTF-8"?>
<svg version="1.1" xmlns="http://www.w3.org/2000/svg" width="32" height="32">
<path d="M0 0 C3.02979875 0.6166847 4.33413318 2.29612165 6.01171875 4.8125 C7.33240184 6.62088632 8.67831338 7.56962146 10.51953125 8.82421875 C13.6685514 11.90000588 13.6685514 11.90000588 13.89453125 15.44921875 C13.62034956 18.59634773 13.06626671 19.66717675 11.26953125 22.44921875 C7.20222337 25.10541982 3.94493213 25.10079647 -0.79296875 24.44921875 C-1.45296875 24.11921875 -2.11296875 23.78921875 -2.79296875 23.44921875 C-3.45296875 23.77921875 -4.11296875 24.10921875 -4.79296875 24.44921875 C-9.53086963 25.10079647 -12.78816087 25.10541982 -16.85546875 22.44921875 C-19.54216848 18.28916756 -19.49254205 16.34623187 -18.79296875 11.44921875 C-17.10546875 9.26171875 -17.10546875 9.26171875 -14.79296875 7.44921875 C-13.52453125 6.14984375 -13.52453125 6.14984375 -12.23046875 4.82421875 C-8.12376376 0.82281388 -5.56053152 -0.11678014 0 0 Z M-8.79296875 7.44921875 C-8.79296875 8.10921875 -8.79296875 8.76921875 -8.79296875 9.44921875 C-9.57671875 9.73796875 -10.36046875 10.02671875 -11.16796875 10.32421875 C-13.88968507 11.29834129 -13.88968507 11.29834129 -15.79296875 13.44921875 C-15.70411875 16.48266829 -15.70411875 16.48266829 -14.79296875 19.44921875 C-10.94265825 22.01609242 -9.20727112 21.28210599 -4.79296875 20.44921875 C-5.30859375 20.05734375 -5.82421875 19.66546875 -6.35546875 19.26171875 C-7.79296875 17.44921875 -7.79296875 17.44921875 -7.79296875 15.01171875 C-6.48228814 11.65309969 -4.72361581 10.49385623 -1.79296875 8.44921875 C-1.02984375 7.87171875 -0.26671875 7.29421875 0.51953125 6.69921875 C1.07640625 6.28671875 1.63328125 5.87421875 2.20703125 5.44921875 C0.38930321 3.23937624 0.38930321 3.23937624 -2.16796875 3.07421875 C-5.57787172 3.56134775 -6.68415277 4.79367271 -8.79296875 7.44921875 Z M-1.79296875 11.44921875 C-1.13296875 11.86171875 -0.47296875 12.27421875 0.20703125 12.69921875 C0.86703125 13.27671875 1.52703125 13.85421875 2.20703125 14.44921875 C2.20703125 15.76921875 2.20703125 17.08921875 2.20703125 18.44921875 C1.54703125 19.10921875 0.88703125 19.76921875 0.20703125 20.44921875 C0.53703125 20.77921875 0.86703125 21.10921875 1.20703125 21.44921875 C4.68758999 21.27354517 4.68758999 21.27354517 8.20703125 20.44921875 C10.46845383 17.7022735 10.46845383 17.7022735 10.08203125 14.94921875 C9.02070148 11.91684799 7.98527939 11.00176918 5.20703125 9.44921875 C2.10151459 9.44921875 0.85442041 9.98859025 -1.79296875 11.44921875 Z " fill="#0088D2" transform="translate(18.79296875,3.55078125)"/>
<path d="M0 0 C1.0828125 0.37125 1.0828125 0.37125 2.1875 0.75 C-2.4375 5.625 -2.4375 5.625 -5.8125 6.75 C-6.4725 6.42 -7.1325 6.09 -7.8125 5.75 C-7.8125 3.75 -7.8125 3.75 -5.625 1.5625 C-2.8125 -0.25 -2.8125 -0.25 0 0 Z " fill="#8FC524" transform="translate(18.8125,16.25)"/>
</svg>
