<svg viewBox="0 0 1024 1024" version="1.1" xmlns="http://www.w3.org/2000/svg" xmlns:xlink="http://www.w3.org/1999/xlink" width="200" height="200"><path d="M853.205 403.712A169.6 169.6 0 0 0 661.59 299.605a260.864 260.864 0 0 0-193.962-86.272 261.76 261.76 0 0 0-232.363 141.952h-0.427C105.26 355.285 0 461.184 0 591.957c0 130.688 105.216 236.715 234.88 236.715h368.768c3.157 0 4.693-3.84 2.39-6.059-25.558-25.173-46.251-55.466-60.545-89.088a5.803 5.803 0 0 0-5.29-3.584H234.965a137.045 137.045 0 0 1-131.968-100.437 138.667 138.667 0 0 1 56.96-153.173 135.723 135.723 0 0 1 139.862-5.803c4.693-82.432 67.285-152.32 151.466-162.347 78.038-9.301 149.888 35.584 178.859 105.088h0.043a85.163 85.163 0 0 1 106.24-18.432 86.656 86.656 0 0 1 40.021 100.95 121.813 121.813 0 0 1 144.47 70.357c23.722 55.85 1.791 122.71-50.134 153.643-59.477 35.413-135.68 14.08-168.747-46.464a122.496 122.496 0 0 1-13.866-42.24h60.544c3.968 0 5.973-4.822 3.157-7.68L635.179 505.899a5.547 5.547 0 0 0-7.894 0L510.72 623.403c-2.773 2.858-0.81 7.68 3.157 7.68h57.344c0.555 28.8 6.571 56.277 17.024 81.408a226.432 226.432 0 0 0 209.238 140.842c125.184 0 226.517-102.229 226.517-228.309a227.968 227.968 0 0 0-170.795-221.312" fill="#DF0629"></path></svg>
