<?xml version="1.0" standalone="no"?><!DOCTYPE svg PUBLIC "-//W3C//DTD SVG 1.1//EN" "http://www.w3.org/Graphics/SVG/1.1/DTD/svg11.dtd"><svg viewBox="0 0 1024 1024" version="1.1" xmlns="http://www.w3.org/2000/svg" xmlns:xlink="http://www.w3.org/1999/xlink" width="200" height="200"><path d="M0 512C0 229.2224 229.2224 0 512 0c282.7776 0 512 229.2224 512 512 0 282.7776-229.2224 512-512 512C229.2224 1024 0 794.7776 0 512z" fill="#7A8CD2"></path><path d="M758.613333 281.207467a1.792 1.792 0 0 0-0.938666-0.8192 591.598933 591.598933 0 0 0-144.298667-44.032 2.218667 2.218667 0 0 0-2.321067 1.0752 398.114133 398.114133 0 0 0-17.954133 36.3008 548.437333 548.437333 0 0 0-162.082133 0 364.663467 364.663467 0 0 0-18.244267-36.317867 2.269867 2.269867 0 0 0-2.321067-1.0752 589.943467 589.943467 0 0 0-144.298666 44.032 2.048 2.048 0 0 0-0.955734 0.8192c-91.904 135.099733-117.077333 266.888533-104.721066 397.038933a2.3552 2.3552 0 0 0 0.9216 1.621334 591.5648 591.5648 0 0 0 177.015466 88.064 2.321067 2.321067 0 0 0 2.491734-0.8192 412.16 412.16 0 0 0 36.215466-57.9584 2.184533 2.184533 0 0 0-1.2288-3.072 390.212267 390.212267 0 0 1-55.296-25.941334 2.269867 2.269867 0 0 1-1.1264-1.792 2.218667 2.218667 0 0 1 0.887467-1.911466c3.7376-2.730667 7.389867-5.563733 10.990933-8.465067a2.2016 2.2016 0 0 1 2.286934-0.3072c116.0192 52.1216 241.629867 52.1216 356.266666 0a2.218667 2.218667 0 0 1 2.321067 0.273067c3.601067 2.9184 7.2704 5.751467 11.008 8.4992a2.2528 2.2528 0 0 1 0.904533 1.911466 2.2016 2.2016 0 0 1-1.092266 1.792 366.0288 366.0288 0 0 1-55.330134 25.9072 2.269867 2.269867 0 0 0-1.314133 1.297067 2.184533 2.184533 0 0 0 0.1024 1.809067 462.506667 462.506667 0 0 0 36.181333 57.941333 2.286933 2.286933 0 0 0 2.491734 0.836267 589.636267 589.636267 0 0 0 177.322666-88.064 2.269867 2.269867 0 0 0 0.904534-1.604267c14.7968-150.459733-24.746667-281.173333-104.789334-397.038933z m-364.168533 317.781333c-34.935467 0-63.709867-31.573333-63.709867-70.314667s28.2112-70.314667 63.709867-70.314666c35.771733 0 64.273067 31.829333 63.709867 70.314666 0 38.741333-28.228267 70.314667-63.709867 70.314667z m235.554133 0c-34.9184 0-63.709867-31.573333-63.709866-70.314667s28.228267-70.314667 63.709866-70.314666c35.771733 0 64.273067 31.829333 63.709867 70.314666 0 38.741333-27.938133 70.314667-63.709867 70.314667z" fill="#FFFFFF"></path></svg>
