<svg xmlns="http://www.w3.org/2000/svg" xmlns:svg="http://www.w3.org/2000/svg" height="128" width="128" viewBox="-1.5 -32 128 128"><path fill="#cf0000" d="m 124.6,35.7 c 0,3.9 -1.2,7.3 -3.8,10.2 -3.1,3.3 -6.9,5 -11.6,5 -5.5,0 -9.49,-2.2 -12.19,-6.8 -1.8,-3.1 -2.8,-6.7 -2.8,-11 0,-6.2 2.3,-12.3 6.49,-18.1 5,-6.8 11.2,-11.8 18.9,-14.9 0.1,0 0.1,0 0.2,0 0.4,0 0.7,0.3 0.9,1 0.2,0.4 0.3,0.7 0.3,0.9 0,0.3 -0.1,0.4 -0.2,0.5 -5.9,3.1 -10.3,7.8 -13.5,14 -1.5,2.9 -2.6,5.8 -3.4,8.9 1.5,-1.8 3.4,-3 5.7,-3.6 0.7,-0.2 1.6,-0.3 2.3,-0.3 3.9,0 7.1,1.6 9.6,4.7 2.1,2.6 3.1,5.8 3.1,9.5 m -7.9,2 c 0,-2.5 -0.7,-4.8 -2.1,-7.1 -1.5,-2.4 -3.3,-3.6 -5.6,-3.6 -2.2,0 -4.1,1 -5.8,2.9 -0.2,1 -0.3,2 -0.3,3.3 0,9.3 2.4,14 7.1,14 2.6,0 4.5,-1.4 5.7,-4.2 0.7,-1.5 1,-3.3 1,-5.3" /><path fill="#404040" d="M 13.56,32.3 V 21.1 h 5.45 v 29.2 h -5.45 v -3.1 c -0.59,1.2 -1.36,2.1 -2.3,2.7 -0.92,0.6 -2.01,0.9 -3.27,0.9 -2.4,0 -4.27,-0.9 -5.59,-2.9 -1.32,-1.9 -2,-4.7 -2,-8.2 0,-3.5 0.68,-6.2 2.01,-8.1 1.35,-1.9 3.27,-2.9 5.76,-2.9 1.13,0 2.13,0.4 3.02,0.9 0.91,0.6 1.68,1.5 2.37,2.7 M 5.9,39.8 c 0,2.1 0.34,3.7 1.01,4.7 0.68,1.2 1.61,1.8 2.8,1.8 1.19,0 2.12,-0.6 2.81,-1.8 0.68,-1 1.04,-2.6 1.04,-4.7 0,-2 -0.36,-3.6 -1.04,-4.8 C 11.83,33.9 10.9,33.3 9.71,33.3 8.52,33.3 7.59,33.9 6.91,35 6.24,36.2 5.9,37.8 5.9,39.8" /><path fill="#404040" d="m 35.11,52.5 c -0.7,2.1 -1.6,3.4 -2.6,4.3 -1.1,1 -2.3,1.4 -3.8,1.4 h -4.5 V 54 h 2.2 c 1.2,0 2,-0.2 2.5,-0.5 0.5,-0.4 1,-1.3 1.6,-2.7 l 0.4,-1.2 -8,-20.3 h 5.7 l 4.8,13.6 4.7,-13.6 h 5.8 l -8.8,23.2" /><path fill="#404040" d="m 65.01,36.6 v 13.7 h -5.4 V 37.5 c 0,-1.5 -0.2,-2.7 -0.7,-3.3 -0.4,-0.7 -1.1,-1 -2.1,-1 -1,0 -1.8,0.4 -2.3,1.3 -0.6,1 -0.9,2.1 -0.9,3.7 v 12.1 h -5.4 v -21 h 5.4 v 3.1 c 0.4,-1.1 1.1,-2.1 2,-2.7 0.9,-0.6 2.1,-1 3.3,-1 2.1,0 3.6,0.7 4.6,2.1 1,1.2 1.5,3.2 1.5,5.8" /><path fill="#008fd4" d="m 89.71,29.3 -6.8,21 h -6.7 l -6.7,-21 h 5.5 l 4.5,16.4 4.6,-16.4 h 5.6" /></svg>
