<svg viewBox="0 0 1024 1024" version="1.1" xmlns="http://www.w3.org/2000/svg" xmlns:xlink="http://www.w3.org/1999/xlink" width="200" height="200"><path d="M832 128H192a128 128 0 0 0-128 128v512a128 128 0 0 0 128 128h384v-64H192a64 64 0 0 1-64-64V310.4l384 206.08 384-206.72V768h64V256a128 128 0 0 0-128-128zM512 443.52L131.2 240A64 64 0 0 1 192 192h640a64 64 0 0 1 60.8 46.72z" fill="#616971"></path><path d="M640 896h64v-64h-64z m256-64v64h64v-64z m-128 64h64v-64h-64z" fill="#FF8910"></path></svg>
