<?xml version="1.0" encoding="UTF-8"?>
<svg version="1.1" xmlns="http://www.w3.org/2000/svg" width="200" height="200">
<path d="M0 0 C8.00019718 6.13887963 14.34445574 12.99622218 18.3125 22.3125 C15.06464319 20.86413142 12.72723872 19.02613433 10.0625 16.6875 C-1.60459795 7.2541616 -16.18206674 0.63880608 -31.375 1.4375 C-43.09356312 2.78801868 -53.73683191 6.67588577 -62 15.5 C-71.51641841 27.69982709 -72.77906448 40.43807508 -71.6875 55.3125 C-69.75496452 69.19218976 -63.07550701 81.31999767 -54.6875 92.3125 C-53.96433594 93.26769531 -53.96433594 93.26769531 -53.2265625 94.2421875 C-49.80310028 98.49787258 -45.86843357 101.64242084 -41.4453125 104.83203125 C-40.86523438 105.32058594 -40.28515625 105.80914062 -39.6875 106.3125 C-39.6875 106.9725 -39.6875 107.6325 -39.6875 108.3125 C-45.21884376 108.61097445 -50.74543637 108.82766089 -56.28295898 108.97167969 C-58.1623705 109.03173819 -60.04122791 109.11342379 -61.91870117 109.21777344 C-77.40966514 110.05667884 -77.40966514 110.05667884 -82.80957031 105.921875 C-85.19168462 102.82857874 -86.97025266 99.81402723 -88.6875 96.3125 C-89.16856201 95.46268555 -89.64962402 94.61287109 -90.14526367 93.73730469 C-91.39695086 91.46566255 -92.49925956 89.17751393 -93.5625 86.8125 C-93.93689209 85.9877417 -94.31128418 85.1629834 -94.69702148 84.31323242 C-101.84695145 68.18991103 -104.37476618 48.01876725 -97.94140625 31.1171875 C-97.52761719 30.19164062 -97.11382812 29.26609375 -96.6875 28.3125 C-96.26339844 27.30445313 -95.83929688 26.29640625 -95.40234375 25.2578125 C-88.42098361 9.9727176 -77.15139172 -1.27183748 -61.6875 -7.6875 C-40.67179933 -14.71095263 -18.47073623 -12.74198216 0 0 Z " fill="#70A2EA" transform="translate(151.6875,52.6875)"/>
<path d="M0 0 C-0.19335938 0.56847656 -0.38671875 1.13695313 -0.5859375 1.72265625 C-1.13131792 3.33989819 -1.66856703 4.95989684 -2.19921875 6.58203125 C-2.82868314 8.48270666 -3.50036013 10.36940667 -4.1875 12.25 C-7.48441131 27.46651373 -2.93859997 42.92249193 5 56 C10.27285559 63.85713427 17.42266677 71.71133339 26 76 C28.93108041 76.12365056 31.83742448 76.18844664 34.76953125 76.203125 C35.64268478 76.20882507 36.51583832 76.21452515 37.41545105 76.22039795 C39.26564317 76.22985345 41.11585218 76.23638411 42.96606445 76.24023438 C45.79082844 76.24992565 48.61486044 76.28093755 51.43945312 76.3125 C53.23697485 76.31903152 55.03450177 76.32428141 56.83203125 76.328125 C58.0963372 76.3466452 58.0963372 76.3466452 59.38618469 76.36553955 C64.08745075 76.34777001 67.19523771 76.06753063 71 73 C76.14974577 66.13367231 76.85747523 60.40719967 76 52 C72.94347249 40.85669565 66.57825718 33.02825174 57.07421875 26.66796875 C41.98336589 18.48017438 25.32550226 16.19330935 8.4375 15.4375 C7.52419922 15.39431641 6.61089844 15.35113281 5.66992188 15.30664062 C3.44672009 15.20188243 1.22343293 15.09970983 -1 15 C-1 14.34 -1 13.68 -1 13 C24.14499626 7.59108915 50.41887378 8.13666192 72.734375 22.42578125 C84.76471086 30.78479048 94.05571707 43.44065596 97 58 C97.83992741 68.1617447 96.68764977 76.53638183 90.375 84.75 C82.2520582 93.4708233 71.29646331 96.75137499 59.70800781 97.22460938 C55.46822317 97.34944357 51.22762628 97.41269989 46.98632812 97.45996094 C45.16900252 97.48655278 43.35182742 97.52746211 41.53515625 97.58300781 C30.19480451 97.9245351 21.92945424 97.88338566 13 90 C12.08879395 89.26837646 12.08879395 89.26837646 11.15917969 88.52197266 C-1.6887866 77.91909315 -10.95597826 65.95656876 -16 50 C-16.4125 48.7625 -16.825 47.525 -17.25 46.25 C-19.92772011 34.34631695 -18.39209844 21.70178399 -12.3515625 11.109375 C-4.91282895 0 -4.91282895 0 0 0 Z " fill="#79AFEB" transform="translate(103,64)"/>
<path d="M0 0 C-0.42954381 1.3983022 -0.86907034 2.79353907 -1.3125 4.1875 C-1.55613281 4.96480469 -1.79976562 5.74210937 -2.05078125 6.54296875 C-3.87971163 11.27711365 -6.67096194 14.91291499 -9.9375 18.75 C-16.72958324 27.14022047 -20.11560508 36.06308588 -19 47 C-17.21558238 54.72810276 -14.24239154 60.64225254 -7.625 65.25 C-1.74362035 68.9878388 -1.74362035 68.9878388 5.015625 69.8046875 C7.86441607 69.65527538 9.37848936 69.78974988 12 71 C16.09718736 75.3958468 19.01252254 80.82170573 22 86 C22.99935816 87.6670516 23.99905049 89.3339034 25 91 C5.62249954 91.36484834 -12.69092394 90.61101563 -28 77 C-36.44050971 67.52265225 -39.76608235 57.3077398 -39.3828125 44.7109375 C-38.14502828 32.71200883 -32.24783597 21.70604907 -24 13 C-23.34 13 -22.68 13 -22 13 C-22 12.34 -22 11.68 -22 11 C-16.32431209 6.09717172 -7.83025539 0 0 0 Z " fill="#73A7EA" transform="translate(39,70)"/>
<path d="M0 0 C-2.12910166 2.33471584 -4.07517335 3.68146181 -6.9375 5 C-9.90732447 6.41679699 -12.38725285 7.9901945 -15 10 C-15.66 10 -16.32 10 -17 10 C-17 10.66 -17 11.32 -17 12 C-18.12525155 13.02649277 -19.30282645 13.99587696 -20.5 14.9375 C-33.49161609 26.0469385 -41.59305065 43.11799329 -43.1953125 60.06591797 C-43.714182 69.16559176 -42.71323311 78.06671309 -41 87 C-46.81627942 82.15310048 -49.61443677 75.38967056 -51 68 C-51.69814606 57.29890869 -51.08055936 48.06628054 -47 38 C-46.67257813 37.15308594 -46.34515625 36.30617187 -46.0078125 35.43359375 C-41.86810307 26.02104276 -34.29231204 18.10356984 -27 11 C-27.433125 10.51789062 -27.86625 10.03578125 -28.3125 9.5390625 C-28.869375 8.90742187 -29.42625 8.27578125 -30 7.625 C-30.556875 6.99851562 -31.11375 6.37203125 -31.6875 5.7265625 C-33 4 -33 4 -33 2 C-27.87373026 1.19944082 -22.8041505 0.72131302 -17.625 0.4375 C-16.8812915 0.3950415 -16.13758301 0.35258301 -15.37133789 0.30883789 C-10.24014323 0.03021845 -5.13944387 -0.09344443 0 0 Z " fill="#71A4EA" transform="translate(88,39)"/>
</svg>
