<svg viewBox="0 0 1024 1024" version="1.1" xmlns="http://www.w3.org/2000/svg" p-id="5245" width="200" height="200"><path d="M683.52 924.16c69.632-32.768 165.888-91.648 245.76-194.56 20.48-26.112 37.376-52.224 51.2-76.8 12.8-31.232 27.648-76.8 35.84-133.12 18.432-127.488-12.288-222.208-20.48-245.76-12.8-37.376-29.696-80.896-71.68-122.88-65.536-65.536-145.408-78.336-168.96-81.92-57.856-8.192-103.424 2.048-138.24 10.24-23.552 5.632-68.096 16.384-117.76 46.08-39.424 24.064-64.512 48.64-81.92 66.56-48.64 49.152-73.216 95.232-107.52 158.72-20.48 37.376-37.376 70.144-51.2 117.76-2.56 9.216-9.216 32.768-15.36 76.8-6.144 41.984-11.776 101.376-10.24 175.104-50.176-82.432-79.36-154.112-97.28-205.824-15.872-46.08-22.016-74.752-25.6-102.4-7.168-56.832-13.824-110.08 15.36-158.72 38.912-64.512 116.224-78.848 138.752-83.456 95.232-17.408 169.984 29.696 188.928 42.496 27.136-24.064 54.784-47.616 81.92-71.68-31.744-25.088-89.088-62.464-168.96-76.8-16.896-3.072-57.856-9.216-109.056-4.096-39.424 4.096-96.768 9.728-152.064 50.176-11.776 8.704-46.08 35.328-71.68 81.92-38.912 71.168-32.768 142.848-25.6 230.4 3.584 44.032 10.24 79.872 15.36 102.4 34.816 125.44 86.528 210.432 122.88 261.12 29.184 39.936 51.2 61.952 57.856 68.608 27.648 27.136 95.232 91.136 203.264 115.712 31.744 7.168 98.304 21.504 179.2-1.536 27.136-7.68 99.84-29.184 155.648-96.256 76.288-91.136 69.12-202.752 64-270.848-4.608-71.68-24.576-115.2-30.72-128-20.992-43.52-47.616-73.728-66.56-92.16-80.384 32.256-160.256 65.024-240.64 97.28l34.816 86.528 164.864-71.168c13.824 24.064 34.304 67.072 35.84 122.88 2.56 92.16-46.592 203.264-143.36 240.64-50.688 19.456-131.584 25.088-179.2-20.48-28.672-27.136-33.28-61.44-40.96-117.76-4.096-28.16-12.8-111.104 15.36-215.04 10.24-37.888 34.816-113.152 92.16-189.44 33.28-44.032 62.976-69.632 71.68-76.8 27.648-23.04 57.344-47.616 100.864-61.44 16.896-5.12 99.328-28.672 178.688 17.92 67.584 39.424 90.112 104.96 99.328 130.048 13.824 38.912 14.336 70.656 15.36 97.28 0.512 26.624 2.048 84.992-25.6 153.6-24.064 59.392-58.368 99.84-81.92 122.88-40.448 75.776-81.408 150.528-122.368 225.792z" fill="#13EAE4" p-id="5246"></path></svg>
