<?xml version="1.0" encoding="utf-8"?><!-- Uploaded to: SVG Repo, www.svgrepo.com, Generator: SVG Repo Mixer Tools -->
<svg width="800px" height="800px" viewBox="0 0 1024 1024" xmlns="http://www.w3.org/2000/svg">
   <circle cx="512" cy="512" r="512" style="fill:#1bdbdb"/>
   <path d="M697.6 315.9c-53.2-33.2-123.3-25.3-185.6 13.9-62.4-39.3-132.4-47.2-185.6-13.9-84.1 52.5-94.3 187.8-22.8 302.2 52.7 84.3 135.1 133.7 208.4 132.8 73.3.9 155.7-48.5 208.4-132.8 71.5-114.4 61.3-249.7-22.8-302.2M342.2 594c-15-24.1-26.1-49.5-33-75.5-6.5-24.5-8.9-48.5-7.1-71.2 3.2-42.3 20.4-75.2 48.4-92.7s65.2-18.6 104.5-2.9c5.9 2.4 11.8 5.1 17.6 8.1-21 19-40.3 41.9-56.7 68.1-43.4 69.5-56.6 146.7-41.5 208.4-11.8-12.8-22.6-27-32.2-42.3m372.6-75.6c-6.9 26.1-17.9 51.5-33 75.5-9.6 15.4-20.4 29.5-32.3 42.3 13.5-55.2 4.4-122.9-28.9-186.3-2.3-4.5-7.7-5.9-12-3.3l-103.5 64.7c-4 2.5-5.2 7.7-2.7 11.7l15.2 24.3c2.5 4 7.7 5.2 11.7 2.7l67.1-41.9c2.2 6.4 4.3 12.9 6 19.5 6.5 24.5 8.9 48.5 7.1 71.2-3.2 42.3-20.4 75.2-48.4 92.7-14 8.8-30.3 13.4-48 13.9h-2.2c-17.7-.5-34-5.1-48-13.9-28-17.5-45.2-50.4-48.4-92.7-1.7-22.7.7-46.7 7.1-71.2 6.8-26.1 17.9-51.5 33-75.5 15-24.1 33-45.2 53.4-62.8 19.2-16.6 39.7-29.2 60.9-37.6 39.4-15.7 76.5-14.6 104.5 2.9s45.2 50.4 48.4 92.7c1.8 22.6-.6 46.6-7 71.1" style="fill:#fff"/>
</svg>