<svg viewBox="0 0 1024 1024" version="1.1" xmlns="http://www.w3.org/2000/svg" width="200" height="200"><path d="M925.915429 521.545143c0.512-29.622857-2.56-59.282286-9.033143-88.100572H512v160.036572h237.714286a210.468571 210.468571 0 0 1-88.137143 139.885714l-0.804572 5.302857 127.963429 99.181715 8.850286 0.841142c81.298286-75.154286 128.365714-185.782857 128.365714-317.147428" fill="#4285F4"></path><path d="M512 943.177143c116.370286 0 214.198857-38.363429 285.622857-104.484572l-136.045714-105.472a254.829714 254.829714 0 0 1-149.430857 43.117715 259.949714 259.949714 0 0 1-245.394286-179.273143l-5.12 0.512-133.083429 102.912-1.682285 4.754286a429.860571 429.860571 0 0 0 385.097143 237.897142" fill="#34A853"></path><path d="M266.605714 597.211429a264.045714 264.045714 0 0 1-14.336-85.357715c0.182857-28.964571 4.937143-57.782857 13.970286-85.394285l-0.146286-5.632-134.802285-104.594286-4.425143 2.011428a430.262857 430.262857 0 0 0 0 387.181715l139.702857-108.214857" fill="#FBBC05"></path><path d="M512 247.515429a237.933714 237.933714 0 0 1 166.656 64.256l121.673143-118.784a414.646857 414.646857 0 0 0-288.512-112.128 430.811429 430.811429 0 0 0-385.316572 237.714285l139.410286 108.251429A260.973714 260.973714 0 0 1 512 247.478857" fill="#EB4335"></path></svg>
