<svg xmlns="http://www.w3.org/2000/svg" xmlns:xlink="http://www.w3.org/1999/xlink" width="3000" height="380" viewBox="0 0 182 23" version="1.1"><g stroke="none" stroke-width="1" fill="none" fill-rule="evenodd"><g transform="translate(-1163.000000, -1368.000000)" fill="#D50C2D" fill-rule="nonzero"><g transform="translate(256.000000, 1363.000000)"><g transform="translate(907.000000, 5.000000)"><path d="M174.05,14.12 C175.70112,13.8347617 177.256782,13.1479352 178.58,12.12 L178.58,12.12 C179.800803,10.8420724 180.41283,9.10071075 180.26,7.34 C180.264681,5.90702289 179.869913,4.5010961 179.12,3.28 C178.012832,1.39206624 176.026262,0.191846827 173.84,0.09 L172.75,0.09 L170.2,0 L158.66,0 C157.96,0 157.66,0.29 157.66,1 L157.66,21.22 C157.66,21.92 157.95,22.22 158.66,22.22 L161.66,22.22 C162.36,22.22 162.66,21.93 162.66,21.22 L162.66,14.52 L166.33,14.52 C167.137054,14.5621636 167.904273,14.8839006 168.5,15.43 L174.32,21.28 C174.850563,21.8225831 175.56276,22.1501937 176.32,22.2 L180.79,22.2 C181.49,22.2 181.66,21.79 181.17,21.29 L174.05,14.12 Z M173.29,9.82 L162.64,9.82 L162.64,4.72 L173.29,4.72 C174.371509,4.85285283 175.178361,5.7805161 175.16,6.87 L175.16,7.66 C175.178907,8.75159761 174.373058,9.68241814 173.29,9.82 L173.29,9.82 Z"/><path d="M153,17.52 L136.47,17.52 L136.47,13.35 L149.66,13.35 C150.36,13.35 150.66,13.06 150.66,12.35 L150.66,9.92 C150.66,9.22 150.37,8.92 149.66,8.92 L136.46,8.92 L136.46,4.76 L153,4.76 C153.7,4.76 154,4.47 154,3.76 L154,1 C154,0.3 153.71,0 153,0 L132.38,0 C131.68,0 131.38,0.29 131.38,1 L131.38,21.24 C131.38,21.94 131.67,22.24 132.38,22.24 L153,22.24 C153.7,22.24 154,21.95 154,21.24 L154,18.51 C154,17.81 153.67,17.52 153,17.52 Z"/><path d="M127.73,7.3 C127.75181,5.88495547 127.358997,4.49446656 126.6,3.3 C125.485363,1.36532022 123.469349,0.124117692 121.24,0 L106.08,0 C105.37,0 105.08,0.29 105.08,1 L105.08,21.22 C105.08,21.92 105.37,22.22 106.08,22.22 L109.34,22.22 C110.04,22.22 110.34,21.94 110.34,21.22 L110.34,4.73 L119.12,4.73 C120.99,4.73 122.81,5.97 122.81,7.84 L122.81,21.24 C122.81,21.94 123.1,22.24 123.81,22.24 L126.76,22.24 C127.47,22.24 127.76,21.95 127.76,21.24 L127.73,7.3 Z"/><path d="M100.47,17.39 L86.22,17.39 L100.5,4.84 C101.079439,4.39644884 101.443005,3.72748773 101.5,3 L101.5,1 C101.5,0.3 101.2,0 100.5,0 L79.83,0 C79.13,0 78.83,0.29 78.83,1 L78.83,3.77 C78.83,4.47 79.12,4.77 79.83,4.77 L93.08,4.77 L79.79,17.24 C79.2153814,17.6876568 78.8530625,18.3543236 78.79,19.08 L78.79,21.25 C78.79,21.95 79.08,22.25 79.79,22.25 L100.44,22.25 C101.14,22.25 101.44,21.96 101.44,21.25 L101.44,18.38 C101.46,17.68 101.17,17.39 100.47,17.39 Z"/><path d="M74.19,0 L53.55,0 C52.84,0 52.55,0.28 52.55,1 L52.55,3.76 C52.55,4.46 52.83,4.76 53.55,4.76 L61.33,4.76 L61.33,21.24 C61.33,21.94 61.62,22.24 62.33,22.24 L65.63,22.24 C66.33,22.24 66.63,21.95 66.63,21.24 L66.63,4.75 L74.2,4.75 C74.9,4.75 75.2,4.46 75.2,3.75 L75.2,1 C75.18,0.32 74.89,0 74.19,0 Z"/><path d="M47.91,17.52 L31.41,17.52 L31.41,13.35 L44.6,13.35 C45.3,13.35 45.6,13.06 45.6,12.35 L45.6,9.92 C45.6,9.22 45.32,8.92 44.6,8.92 L31.41,8.92 L31.41,4.76 L47.91,4.76 C48.61,4.76 48.91,4.47 48.91,3.76 L48.91,1 C48.91,0.3 48.62,0 47.91,0 L27.33,0 C26.63,0 26.33,0.29 26.33,1 L26.33,21.24 C26.33,21.94 26.62,22.24 27.33,22.24 L47.91,22.24 C48.61,22.24 48.91,21.95 48.91,21.24 L48.91,18.51 C48.9,17.81 48.61,17.52 47.91,17.52 Z"/><path d="M21.63,0 L18.52,0 C17.82,0 17.52,0.29 17.52,1 L17.52,8.87 L5.13,8.87 L5.13,1 C5.13,0.3 4.84,0 4.13,0 L1,0 C0.29,0 0,0.29 0,1 L0,21.25 C0,21.96 0.29,22.25 1,22.25 L4.13,22.25 C4.83,22.25 5.13,21.97 5.13,21.25 L5.13,13.25 L17.53,13.25 L17.53,21.25 C17.53,21.95 17.82,22.25 18.53,22.25 L21.64,22.25 C22.34,22.25 22.64,21.96 22.64,21.25 L22.64,1 C22.62,0.32 22.33,0 21.63,0 Z"/></g></g></g></g></svg>