<svg viewBox="0 0 1027 1024" version="1.1" xmlns="http://www.w3.org/2000/svg" p-id="4252" width="200" height="200"><path d="M378.88 143.36c20.48-6.826667 40.96-10.24 61.44-13.653333 23.893333 30.72 30.72 71.68 40.96 109.226666 6.826667 40.96 13.653333 81.92 13.653333 122.88 6.826667 27.306667 3.413333 58.026667 3.413334 85.333334s-3.413333 51.2 0 78.506666c0 37.546667-3.413333 71.68-3.413334 109.226667-6.826667 23.893333 0 47.786667-6.826666 71.68-10.24-3.413333-13.653333-13.653333-17.066667-20.48-40.96-61.44-78.506667-122.88-112.64-187.733333-34.133333-68.266667-68.266667-136.533333-71.68-215.04-6.826667-61.44 34.133333-119.466667 92.16-139.946667z m211.626667-10.24c6.826667-3.413333 10.24 0 17.066666 0 27.306667 6.826667 58.026667 10.24 81.92 27.306667s44.373333 40.96 51.2 68.266666c10.24 34.133333 6.826667 71.68 0 105.813334-10.24 44.373333-30.72 85.333333-51.2 126.293333-6.826667 13.653333-13.653333 23.893333-20.48 37.546667-10.24 23.893333-27.306667 47.786667-40.96 71.68-23.893333 40.96-47.786667 75.093333-71.68 116.053333-3.413333 3.413333-6.826667 13.653333-13.653333 6.826667-3.413333-40.96-6.826667-81.92-10.24-126.293334-6.826667-54.613333-3.413333-105.813333-3.413333-160.426666 3.413333-34.133333 3.413333-71.68 6.826666-105.813334 6.826667-40.96 13.653333-85.333333 27.306667-126.293333 13.653333-10.24 13.653333-30.72 27.306667-40.96zM160.426667 266.24c3.413333 0 6.826667 6.826667 10.24 10.24 98.986667 129.706667 187.733333 266.24 259.413333 413.013333 6.826667 10.24 13.653333 23.893333 13.653333 37.546667-13.653333-3.413333-23.893333-10.24-34.133333-17.066667-64.853333-34.133333-129.706667-71.68-194.56-109.226666-23.893333-17.066667-47.786667-34.133333-68.266667-51.2-40.96-27.306667-68.266667-78.506667-64.853333-129.706667 3.413333-61.44 37.546667-112.64 78.506667-153.6z m706.56 0h6.826666c17.066667 23.893333 40.96 47.786667 54.613334 75.093333 13.653333 23.893333 20.48 54.613333 23.893333 81.92 0 30.72-10.24 64.853333-34.133333 88.746667-13.653333 13.653333-23.893333 27.306667-40.96 37.546667-78.506667 61.44-163.84 109.226667-252.586667 153.6-13.653333 6.826667-23.893333 17.066667-40.96 17.066666 3.413333-17.066667 13.653333-34.133333 20.48-47.786666 58.026667-119.466667 129.706667-232.106667 208.213333-341.333334 17.066667-17.066667 37.546667-40.96 54.613334-64.853333z m-856.746667 273.066667c3.413333-3.413333 0-10.24 6.826667-13.653334 10.24 3.413333 20.48 10.24 27.306666 13.653334 122.88 68.266667 245.76 136.533333 365.226667 211.626666 3.413333 3.413333 6.826667 6.826667 6.826667 10.24H180.906667c-47.786667 0-92.16-20.48-126.293334-54.613333-27.306667-30.72-51.2-71.68-54.613333-112.64 6.826667-17.066667 3.413333-34.133333 10.24-54.613333z m983.04-3.413334c6.826667-3.413333 17.066667-10.24 23.893333-6.826666 0 17.066667 6.826667 37.546667 6.826667 54.613333-3.413333 23.893333-3.413333 44.373333-13.653333 64.853333-6.826667 17.066667-17.066667 37.546667-30.72 51.2-17.066667 13.653333-27.306667 30.72-47.786667 40.96-20.48 17.066667-51.2 20.48-75.093333 23.893334h-245.76c3.413333-3.413333 3.413333-6.826667 6.826666-10.24 122.88-78.506667 249.173333-150.186667 375.466667-218.453334zM184.32 798.72c44.373333-3.413333 88.746667 0 133.12-6.826667 30.72 0 64.853333-3.413333 95.573333 0-6.826667 13.653333-23.893333 20.48-34.133333 27.306667-34.133333 23.893333-68.266667 44.373333-105.813333 61.44s-81.92 10.24-112.64-13.653333c-23.893333-17.066667-44.373333-44.373333-58.026667-68.266667h81.92z m433.493333-6.826667c30.72-3.413333 61.44 0 95.573334 0 40.96 3.413333 85.333333 0 129.706666 6.826667 30.72 3.413333 61.44 0 88.746667 3.413333-10.24 20.48-27.306667 40.96-44.373333 58.026667-27.306667 27.306667-68.266667 40.96-105.813334 34.133333-34.133333-10.24-61.44-30.72-92.16-47.786666-17.066667-10.24-30.72-20.48-47.786666-30.72-10.24-10.24-17.066667-13.653333-23.893334-23.893334z" fill="#C71F1E" p-id="4253"></path></svg>
