<svg viewBox="0 0 2030 1024" version="1.1" xmlns="http://www.w3.org/2000/svg" width="200" height="200"><path d="M1669.09384945 432.48813594c15.51186469 21.69491531 27.11864437 51.1457625 25.81694906 112.86779625-17.46440719 193.78983094-181.96610156 316.14915281-345.76271156 316.14915281-177.24745781 0-302.04745781-127.56610125-377.111865-270.10169531C954.30062883 557.72203344 941.44639195 520.13559312 929.35147664 487.59322063c-23.701695 32.21694937-73.6542375 84.77288156-99.09152531 109.23389812A629.15254219 629.15254219 0 0 0 890.24639133 720.81355906c20.01355969 31.18644094 70.508475 101.74915219 142.69830562 157.61355938 65.62711875 50.60338969 128.59661062 81.68135625 199.81016906 99.41694937a487.81016906 487.81016906 0 0 0 354.65762719-50.00677968c128.81355937-73.81694906 219.60678-209.78983031 236.04067781-350.96949188-31.72881375-52.61016937-100.501695-114.76610156-154.35932156-144.37966031zM585.37859508 381.12542375a238.96949156 238.96949156 0 0 1 126.96949125 36.39322031c30.53559281-32.5423725 57.54576281-66.16949156 85.58644125-100.06779656A370.54915219 370.54915219 0 0 0 214.66673039 621.01694937a373.09830469 373.09830469 0 0 0 4.39322062 57.00339c10.3593225 12.79999969 114.71186438 4.12203375 130.98305063-10.52203406a242.49491531 242.49491531 0 0 1-4.55593219-46.48135594 239.89152563 239.89152563 0 0 1 239.89152563-239.89152562zM585.37859508 992a370.6576275 370.6576275 0 0 1-320.97627094-185.38305094c4.98983062-6.61694906 121.60000031-19.57966125 149.42372812-18.00678a239.07796594 239.07796594 0 0 0 171.55254282 72.29830594s147.52542375 11.33559281 285.39661031-97.62711937c0 0 51.85084781 73.87118625 91.66101656 101.64067781 0 0-130.00677938 127.07796656-377.05762687 127.07796656z" fill="#E1251B"></path><path d="M1545.05317101 74.305085C1369.9209682 0.70508469 1199.0735107 22.18305125 1030.23283195 146.27796594 881.35147664 255.67457656 822.1243582 365.88474594 726.88367976 460.47457625c-113.89830469 113.13898313-199.32203344 151.21355906-267.06440718 176.81355938-69.96610125 26.46779625-167.59322062 44.52881344-240.75932157 40.51525406a371.41694906 371.41694906 0 0 0 45.34237313 128.59661062c186.79322063-3.19999969 318.48135562-74.68474594 403.41694875-126.48135656 74.2508475-45.28813594 185.97966094-159.34915219 244.61016937-233.22033844 94.21016906-118.56271219 216.94915219-231.97288125 329.16610219-267.55254281 156.7457625-49.62711844 309.1525425 19.79661 383.02372875 117.85762688 6.61694906 8.62372875 145.13898281 58.3593225 188.691525 95.78305125C1797.31079883 324.88135625 1721.8124932 148.61016969 1545.05317101 74.305085z" fill="#E1251B"></path><path d="M1809.24300164 377.81694875A497.35593188 497.35593188 0 0 0 1526.39554383 286.91525469c-122.63050875 0-245.42372906 47.78305125-331.82372813 132.88135594-62.86101656 61.83050812-93.4508475 112.00000031-163.14576281 195.57966093a570.35932219 570.35932219 0 0 0 92.63728781 108.47457563c9.00339-13.12542375 59.66101688-84.82711875 97.62711844-135.21355875 48.81355969-64.10847469 98.38644094-115.36271156 173.5593225-145.03050844a350.04745781 350.04745781 0 0 1 427.498305 139.3355925A486.02033906 486.02033906 0 0 0 1809.24300164 377.81694875z" fill="#E1251B"></path></svg>
