<svg viewBox="0 0 1055 1024" version="1.1" xmlns="http://www.w3.org/2000/svg" p-id="4254" width="200" height="200"><path d="M448.633165 615.302071l0.296804 0.428717-43.92594 106.088828a228.574007 228.574007 0 0 1-90.722014-112.623666l-0.494673-1.582953 113.345064-19.226295 0.164891 0.230848a19.331412 19.331412 0 0 1 22.885844 19.032547 18.962468 18.962468 0 0 1-1.615932 7.749878l0.032978-0.131912z m-36.609931-93.591118a19.374696 19.374696 0 0 0 7.650944-33.242031l-0.032978-0.032979 0.103057-0.494673-86.236978-77.134993a223.736517 223.736517 0 0 0-33.472879 118.357751 229.961153 229.961153 0 0 0 1.451041 25.788957l-0.103057-1.022324 110.547069-31.889926z m50.323712-87.061433a19.340687 19.340687 0 0 0 30.735688-14.774237v-0.032978l0.428717-0.230847 6.595641-115.191843a226.003768 226.003768 0 0 0-132.373488 63.449038l0.032978-0.032979 94.415573 66.977706z m33.439901 120.897073l31.790991 15.334865 31.758012-15.268909 7.91477-34.297334-21.996464-27.404889h-35.348514l-21.996464 27.404889z m65.956412-136.067048a19.346871 19.346871 0 0 0 30.834623 14.737136l-0.065956 0.032978 0.36276 0.131913 93.821966-66.516011a227.423892 227.423892 0 0 0-130.427775-63.284147l-1.121259-0.131913 6.492584 114.993974z m478.215936 262.503428l-253.82913 315.766323a70.270374 70.270374 0 0 1-54.709813 26.11874h-0.164891l-407.211797 0.131912h-0.065956a70.181745 70.181745 0 0 1-54.676835-26.085761l-0.103057-0.131912L15.238734 682.081908a69.615962 69.615962 0 0 1-13.389151-59.393749l-0.103057 0.461695L92.34075 229.395226a69.556189 69.556189 0 0 1 37.957915-47.190782L497.111128 6.893331a70.697029 70.697029 0 0 1 61.305455 0.19787l-0.428717-0.19787 366.949529 175.211148a69.626268 69.626268 0 0 1 37.957916 47.191813l90.656058 393.755658a69.254233 69.254233 0 0 1-13.554043 58.931023z m-144.607373-90.458188c-1.84678-0.428717-4.518014-1.154237-6.364793-1.484019-7.650944-1.451041-13.850847-1.088281-21.073074-1.681889-15.400822-1.615932-28.064453-2.93506-39.343-6.492584-4.616949-1.751967-7.914769-7.255205-9.497723-9.497724l-8.838159-2.605278a276.357367 276.357367 0 0 0 2.671234-38.716414 284.359735 284.359735 0 0 0-7.650944-65.757512l0.395739 1.912736a284.83998 284.83998 0 0 0-41.783387-96.097462l0.626586 0.989346c2.275496-2.077627 6.595641-5.837142 7.782856-6.991379 0.36276-3.957385 0.032978-8.046682 4.122276-12.399806 8.673268-8.141495 19.523098-14.873171 32.681402-22.952831 6.232881-3.693559 12.004067-6.035012 18.241071-10.651961 1.418063-1.055303 3.330799-2.737191 4.843674-3.924406 10.553026-8.409443 12.960435-22.853897 5.408425-32.351621s-22.260289-10.388135-32.747358-1.978692c-1.484019 1.187215-3.528668 2.737191-4.880775 3.85845-5.903099 5.111622-9.530702 10.124309-14.51041 15.400822-10.820974 10.981743-19.786924 20.149684-29.577329 26.778304-4.254189 2.473365-10.520048 1.615932-13.323195 1.451041l-8.347609 5.936077a287.21338 287.21338 0 0 0-181.147224-87.984823l-1.154238-0.103057-0.527651-9.790405c-2.869104-2.737191-6.298837-5.049788-7.156271-10.981743-0.956368-11.77322 0.659564-24.502807 2.506344-39.804694 1.022324-7.156271 2.671235-13.088226 3.001017-20.875205 0.032978-1.751967-0.032978-4.353123-0.032978-6.232881 0-13.455108-9.860484-24.403872-21.996464-24.403872-12.103002 0-21.930507 10.948764-21.930507 24.403872l0.032978 0.626586c0 1.813801-0.103057 4.056319 0 5.639273 0.263826 7.782857 1.945714 13.718934 2.935061 20.875205 1.84678 15.301888 3.429733 27.998497 2.473365 39.837673a24.065846 24.065846 0 0 1-7.090314 11.311524l-0.032978 0.032979-0.527652 9.266875a282.443907 282.443907 0 0 0-183.05996 87.918867l-0.131913 0.131913a349.351534 349.351534 0 0 1-8.937094-6.331816l1.022324 0.721399c-3.957385 0.527651-7.914769 1.751967-13.059369-1.28615-9.790405-6.595641-18.764599-15.730604-29.577329-26.745325-4.979709-5.276513-8.574334-10.2892-14.477432-15.334866-1.319128-1.154237-3.400877-2.737191-4.880775-3.85845a25.943542 25.943542 0 0 0-15.235931-5.804165h-0.065956c-0.329782-0.032978-0.721398-0.032978-1.121259-0.032978a21.126663 21.126663 0 0 0-16.35719 7.7169l-0.032979 0.032979c-7.552009 9.497723-5.1446 24.012256 5.408426 32.417576l0.296804 0.230848 4.583971 3.66058c6.232881 4.616949 11.971089 6.99138 18.203969 10.651961 13.158304 8.141495 24.012256 14.873171 32.681403 22.952831 3.330799 3.594624 3.957385 9.92644 4.386101 12.663632l7.024358 6.298837a281.617391 281.617391 0 0 0-47.751412 157.666742 285.194495 285.194495 0 0 0 3.099951 42.047213l-0.197869-1.545854-9.134963 2.638257c-2.407409 3.165908-5.837142 8.07966-9.464745 9.530701-11.311525 3.561646-24.012256 4.843674-39.343 6.463729-7.222227 0.626586-13.42213 0.263826-21.106052 1.714866-1.615932 0.296804-3.957385 0.890412-5.837142 1.319129l-0.164891 0.103056-0.296804 0.103057c-12.960435 3.13293-21.270943 15.038062-18.599708 26.745326 2.671235 11.740241 15.334866 18.859412 28.361257 16.060386l0.296804-0.032978 0.428716-0.131913 5.66813-1.28615c7.486053-2.011671 12.927457-4.979709 19.683866-7.552009 14.510411-5.177578 26.547456-9.530702 38.254719-11.245569 4.913753-0.395738 10.124309 3.033995 12.663632 4.452058l9.530701-1.615932c22.29842 67.521846 67.114772 122.532586 125.354284 157.387458l1.28615 0.721398-3.957385 9.596658c1.451041 3.693559 3.033995 8.739225 1.945714 12.399806-4.255219 11.0848-11.572259 22.730229-19.885858 35.754558-3.990363 5.969055-8.141495 10.651961-11.77322 17.544406-0.890412 1.615932-1.978692 4.188232-2.803147 5.903099-5.639273 12.103002-1.484019 25.986826 9.36581 31.226239 10.915786 5.276513 24.436851-0.296804 30.33995-12.399806v-0.103057c0.890412-1.714867 2.011671-3.957385 2.737191-5.573316 3.066973-7.123293 4.122276-13.224261 6.331815-20.149684 5.804164-14.609345 9.00305-29.911233 17.016755-39.441935 2.20954-2.638256 5.70523-3.594624 9.464745-4.616949l4.979709-9.00305c30.273993 12.004067 65.328796 18.962468 102.033539 18.962469a282.97465 282.97465 0 0 0 102.56119-19.094382l-1.945714 0.659564 4.649927 8.442421c3.792494 1.220194 7.914769 1.84678 11.245568 6.826489 5.969055 10.190266 10.058353 22.293267 15.038062 36.935591 2.20954 6.859467 3.264842 12.960435 6.364794 20.083727 0.692542 1.615932 1.879758 3.957385 2.737191 5.668129 5.837142 12.13598 19.424163 17.676318 30.33995 12.399806 10.84983-5.177578 15.005084-19.12736 9.36581-31.226239-0.890412-1.714867-1.978692-4.225333-2.869104-5.903099-3.660581-6.859467-7.782857-11.476416-11.773219-17.511427-8.347608-13.026391-15.202953-23.777287-19.49012-34.857964-1.751967-5.70523 0.296804-9.233898 1.681889-12.927457-0.791477-0.956368-2.605278-6.331816-3.660581-8.871137 59.722501-35.84731 104.572861-91.282644 126.074651-157.238026l0.560629-2.01167c2.803148 0.428717 7.749878 1.319128 9.365811 1.681888 3.297821-2.20954 6.331816-5.012687 12.300871-4.58397 11.707263 1.714867 23.744308 6.06799 38.254719 11.245568 6.760532 2.638256 12.168958 5.639273 19.683866 7.617965 1.582954 0.428717 3.85845 0.824455 5.70523 1.220194l0.395739 0.131913 0.296803 0.032978c13.05937 2.803148 25.690023-4.320145 28.361258-16.060386 2.638256-11.707263-5.639273-23.612396-18.599709-26.745325zM721.096012 410.905211l-85.743336 76.777386v0.230848a19.34584 19.34584 0 0 0 7.486053 33.242032l0.131913 0.032978 0.131913 0.428716 111.069567 32.015655a221.825842 221.825842 0 0 0 1.088281-22.293267 229.224296 229.224296 0 0 0-6.133946-52.896012l0.296804 1.545853a228.754357 228.754357 0 0 0-28.888909-70.078688l0.56063 0.956368z m-176.464319 234.145263a19.241753 19.241753 0 0 0-16.983776-10.223243 6.896567 6.896567 0 0 0-0.824456 0.032978h0.032979a19.280914 19.280914 0 0 0-16.291234 10.157287l-0.065957 0.103057h-0.103056l-55.765116 100.780367a222.317423 222.317423 0 0 0 73.309521 12.168958 227.451718 227.451718 0 0 0 74.531776-12.505954l-1.582953 0.494673-55.831073-100.945258z m83.005114-56.853396a19.360268 19.360268 0 0 0-3.49569-0.329782 19.168582 19.168582 0 0 0-8.475399 1.945714l0.103057-0.065957a19.329351 19.329351 0 0 0-9.365811 25.261306l-0.032978-0.131913-0.131913 0.164891 44.417522 107.211118a227.543438 227.543438 0 0 0 90.98584-113.41102l0.494673-1.582954-114.33441-19.361299z" fill="#326CE5" p-id="4255"></path></svg>
