<svg viewBox="0 0 1024 1024" version="1.1" xmlns="http://www.w3.org/2000/svg" xmlns:xlink="http://www.w3.org/1999/xlink" width="200" height="200"><path d="M738.588528 406.663717c-2.36797 0.127998-2.943963-0.959988-3.19996-3.19996-0.255997-2.36797-0.127998-5.183935-1.279984-7.039912-2.239972-3.519956-1.59998-7.679904-3.519956-11.327859a20.095749 20.095749 0 0 1-2.239972-6.207922c-0.127998-1.279984 0.191998-3.071962-0.703991-3.775953-2.047974-1.471982-1.279984-3.839952-2.559968-5.759928-1.407982-2.047974-1.471982-5.055937-2.559968-7.551906-1.087986-2.623967-2.43197-5.439932-2.687966-8.319896-0.127998-1.407982-1.727978-1.471982-1.66398-2.879964 0.127998-2.36797-1.59998-4.287946-2.175972-6.527918-0.76799-3.007962-2.43197-5.887926-3.583956-8.83189-0.895989-2.36797-1.855977-4.79994-2.943963-6.911913-1.59998-3.19996-2.943963-6.463919-4.79994-9.59988-1.791978-2.751966-2.303971-6.335921-4.223947-9.343883a52.287346 52.287346 0 0 1-4.095949-7.871902c-1.855977-4.351946-4.543943-8.127898-6.655917-12.287846a169.533881 169.533881 0 0 0-6.591917-12.095849c-2.239972-3.775953-4.223947-7.743903-6.847915-11.391858-1.023987-1.471982-2.687966-2.943963-2.943963-4.607942-0.383995-2.43197-2.239972-4.159948-3.391957-5.567931-1.59998-1.919976-1.663979-5.311934-4.79994-6.015924 0 0-0.127998-0.319996-0.064-0.447995 0.255997-2.559968-3.327958-3.263959-3.007962-5.887926-2.751966-0.959988-1.983975-4.991938-5.119936-5.759928 0 0-0.127998-0.255997-0.063999-0.383995 0.255997-2.559968-2.239972-3.96795-3.327959-5.63193a43.19946 43.19946 0 0 0-4.79994-6.015925c-0.83199-0.895989-2.239972-1.663979-2.559968-2.751965-1.087986-3.839952-4.735941-5.759928-6.591917-9.087887-1.727978-3.071962-4.735941-5.119936-7.103912-7.679904a24.575693 24.575693 0 0 0-8.319896-6.39992c-3.007962-1.151986-5.375933-3.583955-8.959888-3.775953-3.711954-0.191998-7.23191-2.36797-11.13586-2.239972 0-0.83199-0.255997-1.471982-1.279984-1.471981H214.883074c-1.023987 0-1.279984 0.639992-1.279984 1.471981-2.559968-0.191998-3.96795 1.919976-4.79994 3.455957-1.919976 3.391958 0.83199 9.59988 4.543944 11.071862 1.535981 0.575993 2.36797 1.663979 3.455956 2.687966 0.575993 0.575993 1.087986 1.471982 1.919976 1.343983 1.535981-0.127998 2.239972 0.959988 2.687967 1.855977 0.575993 1.215985 1.663979 1.663979 2.559968 2.111974a32.511594 32.511594 0 0 1 7.423907 5.311933c3.327958 3.071962 7.039912 5.56793 10.623867 8.191898 3.007962 2.175973 5.439932 5.055937 8.703891 6.847914 2.495969 1.279984 3.839952 4.159948 6.207923 5.311934 3.327958 1.663979 5.183935 4.863939 8.383895 6.527918 1.983975 1.023987 3.519956 2.687966 4.927938 4.351946 1.279984 1.471982 3.583955 1.535981 4.607943 3.007962 3.007962 4.479944 8.127898 6.527918 11.647854 10.559868 3.455957 3.903951 8.319896 6.271922 11.903851 10.367871 4.223947 4.927938 9.983875 8.447894 14.591818 13.055837 3.19996 3.19996 6.463919 6.207922 9.727878 9.279884 2.559968 2.36797 5.119936 4.735941 7.551906 7.231909 1.791978 1.791978 4.095949 3.19996 5.759928 4.79994 4.159948 4.03195 8.959888 7.615905 11.839852 12.79984l0.639992 0.767991c3.19996 3.007962 6.39992 6.015925 9.471882 9.087886 3.839952 3.839952 7.551906 7.935901 11.711853 11.583855a15.743803 15.743803 0 0 1 4.223947 4.735941c0.83199 1.919976 2.303971 3.19996 3.583956 4.415945 3.519956 3.455957 7.359908 6.655917 9.855876 11.007862 1.023987 1.791978 3.135961 2.43197 4.223948 4.159948 1.407982 2.175973 3.519956 3.711954 4.927938 6.015925 2.047974 3.391958 5.56793 5.759928 7.935901 9.279884 2.303971 3.455957 5.375933 6.783915 8.319896 9.727879 3.327958 3.327958 5.63193 7.423907 9.151885 10.431869 1.855977 1.535981 2.047974 4.479944 4.415945 5.439932 1.215985 0.511994 1.59998 1.535981 1.919976 2.367971 1.279984 2.751966 3.647954 4.671942 5.119936 7.231909 1.471982 2.559968 3.96795 4.159948 5.63193 6.655917 3.071962 4.735941 6.591918 9.279884 10.431869 13.439832 1.215985 1.407982 1.087986 3.583955 2.879964 4.287946 2.687966 1.087986 3.135961 3.96795 4.543944 5.887927 1.791978 2.495969 4.223947 4.607942 5.56793 7.359908 1.407982 2.943963 3.839952 5.119936 5.375933 7.807902 1.407982 2.43197 3.19996 4.607942 4.671941 7.039912 1.087986 1.855977 2.111974 3.96795 3.711954 5.567931 1.727978 1.727978 2.239972 4.351946 4.223947 5.951925 1.791978 1.471982 2.175973 3.839952 3.839952 5.503931 1.727978 1.919976 2.43197 4.735941 4.351946 6.591918 1.663979 1.59998 2.495969 3.775953 3.647954 5.63193 0.83199 1.279984 2.559968 2.047974 2.751966 3.775952 0.191998 1.919976 1.663979 3.071962 2.623967 4.479944 1.471982 2.175973 3.391958 4.351946 4.223947 6.39992 1.535981 3.839952 4.159948 6.783915 6.015925 10.239872 2.175973 3.839952 4.863939 7.679904 7.039912 11.647855 1.663979 2.879964 3.327958 5.759928 5.119936 8.447894 0.76799 1.343983 0.639992 3.135961 2.111974 4.159948 1.791978 1.279984 2.175973 3.455957 3.19996 5.247935 0.895989 1.59998 1.535981 3.519956 2.815964 4.607942 1.023987 0.895989 1.023987 1.727978 1.215985 2.751966 1.535981 0.639992 2.303971-0.575993 3.19996-1.407983l7.167911-7.103911 14.783815-14.591818c4.223947-4.159948 8.127898-8.575893 12.479844-12.607842 7.679904-7.039912 14.719816-14.591818 22.39972-21.695729 4.991938-4.671942 9.471882-9.791878 14.975813-13.951825 4.79994-3.711954 8.83189-8.319896 13.183835-12.607843l9.663879-9.59988c3.327958-3.327958 7.679904-5.503931 10.751866-9.087886a2.687966 2.687966 0 0 1 0.959988-0.83199c3.19996-1.279984 5.439932-3.903951 8.127898-5.887926 3.135961-2.239972 6.271922-4.479944 9.343883-6.847915 1.535981-1.215985 3.519956-1.791978 4.86394-3.13596 3.839952-3.839952 8.959888-5.56793 13.439832-8.255897 4.735941-2.815965 9.59988-5.56793 14.591817-7.935901 3.519956-1.663979 6.655917-4.351946 10.495869-5.119936 4.415945-0.895989 7.679904-3.903951 11.839852-5.183935 1.279984-0.383995 2.879964-0.511994 4.03195-1.407983 2.43197-1.919976 5.695929-1.919976 8.447894-3.19996 1.279984-0.639992 2.687966-1.471982 4.159948-1.663979 3.327958-0.447994 6.271922-1.983975 9.471882-2.815965 0.895989-0.191998 1.59998-0.703991 0.831989-1.791977" fill="#00D6B9"></path><path d="M830.747376 641.156786c-0.959988-0.639992-1.535981 0.191998-2.111973 0.76799-1.727978 1.535981-2.943963 3.583955-4.415945 5.375933l-7.359908 8.575893c-5.055937 5.56793-10.495869 10.879864-15.9998 15.871801-4.287946 3.903951-9.087886 7.23191-13.695829 10.751866-1.727978 1.279984-3.455957 2.687966-5.247934 3.839952-1.919976 1.343983-3.647954 3.135961-5.759928 4.031949-4.03195 1.727978-7.615905 4.223947-11.327859 6.39992a167.037912 167.037912 0 0 1-20.223747 9.407883c-3.903951 1.59998-7.743903 3.327958-11.775853 4.607942-3.19996 1.023987-6.335921 2.36797-9.59988 3.19996-1.087986 0.255997-2.239972 0.127998-3.263959 0.511994-3.19996 1.215985-6.591918 1.919976-9.919876 2.751965-2.879964 0.76799-6.015925 0.127998-8.511894 1.279984-3.839952 1.791978-8.191898 0.127998-11.775852 2.559968-5.56793-0.063999-11.135861 0.575993-16.703792 1.023988-9.855877 0.76799-19.711754-0.639992-29.56763-0.895989-4.479944-0.127998-8.703891-2.36797-13.247835-1.727979-0.255997 0-0.511994-0.063999-0.703991-0.255996-1.471982-1.151986-3.19996-1.087986-4.863939-1.087987-3.455957 0-6.783915-0.76799-10.047874-1.407982-3.19996-0.639992-6.463919-1.855977-9.59988-2.943963-1.855977-0.639992-3.839952-0.255997-5.503932-1.087987a28.607642 28.607642 0 0 0-7.679904-2.431969c-6.143923-1.279984-11.839852-3.839952-18.047774-4.86394-4.095949-0.703991-7.679904-3.007962-11.775853-3.839952-2.879964-0.639992-5.695929-1.663979-8.447894-2.559968-3.519956-1.151986-7.039912-2.36797-10.623867-3.263959-5.695929-1.535981-10.943863-3.96795-16.511794-5.759928-6.655917-2.175973-13.119836-4.79994-19.775753-7.039912-3.903951-1.279984-7.423907-3.647954-11.647854-4.287946a14.591818 14.591818 0 0 1-5.119936-1.919976c-3.135961-1.791978-6.655917-2.43197-9.855877-3.967951-2.687966-1.279984-5.695929-1.919976-8.319896-3.19996-4.351946-2.239972-9.407882-2.943963-13.375833-6.079924-0.255997-0.191998-0.639992-0.255997-0.959988-0.255996-3.19996-0.319996-6.079924-1.791978-8.831889-3.19996-6.079924-2.943963-12.607842-4.927938-18.559768-8.191898-4.735941-2.623967-9.983875-4.095949-14.719816-6.655917-1.087986-0.255997-2.047974-0.063999-3.19996-0.639992-1.983975-0.959988-3.839952-2.559968-5.887927-3.071961-3.903951-1.087986-6.847914-3.903951-10.687866-5.055937-2.175973-0.639992-3.839952-2.559968-5.887927-3.071962-2.559968-0.639992-4.671942-1.919976-6.719916-3.071961-3.391958-1.919976-7.039912-3.19996-10.431869-5.311934-1.855977-1.151986-4.287946-1.535981-5.887927-2.879964-2.43197-2.047974-6.207922-1.919976-7.871901-4.991938-4.095949-0.319996-6.847914-3.455957-10.367871-4.927938-4.159948-1.727978-7.935901-4.351946-11.903851-6.591918-1.663979-0.959988-3.19996-2.687966-4.79994-3.007962-4.351946-0.895989-7.295909-3.96795-10.879864-5.887926a124.414445 124.414445 0 0 1-12.159848-7.295909c-0.639992-0.383995-1.59998-0.319996-2.047974-0.83199-2.559968-2.879964-6.207922-4.351946-9.343883-6.271921a424.186698 424.186698 0 0 1-9.279884-5.63193c-3.775953-2.36797-7.679904-4.735941-11.26386-7.295909-2.36797-1.727978-5.375933-2.751966-7.423907-4.735941-1.535981-1.407982-3.391958-1.919976-4.927938-3.19996-2.815965-2.303971-6.079924-4.159948-9.151886-6.271921-1.407982-0.959988-3.263959-1.855977-4.223947-2.879964-1.855977-2.047974-4.351946-3.071962-6.335921-4.735941-2.943963-2.495969-6.655917-4.223947-9.59988-6.847914-1.727978-1.535981-4.287946-1.791978-5.56793-3.967951-0.447994-0.83199-1.279984-1.407982-2.43197-1.727978-1.919976-0.511994-3.263959-2.111974-4.863939-3.19996-2.36797-1.59998-4.479944-3.775953-6.911914-5.439932-2.943963-1.983975-5.503931-4.607942-8.511893-6.39992-3.263959-1.983975-5.56793-5.055937-8.83189-6.911914-1.983975-1.215985-3.19996-3.455957-5.119936-4.351945-3.455957-1.535981-5.503931-4.543943-8.639892-6.39992-2.43197-1.535981-4.095949-4.415945-6.655917-5.759928-3.007962-1.59998-4.79994-4.415945-7.487906-6.271922-0.76799-0.575993-1.663979-0.639992-2.36797-1.535981-1.727978-2.111974-4.095949-3.647954-6.079924-5.503931-2.111974-1.919976-4.735941-3.19996-6.655917-5.503931-1.535981-1.663979-3.19996-3.903951-5.119936-4.671942-2.943963-1.087986-4.223947-3.711954-6.527919-5.375933-2.879964-2.047974-4.991938-4.991938-7.807902-7.231909-1.791978-1.407982-3.839952-2.559968-5.247934-4.351946C128.03616 453.383133 125.348194 451.143161 122.916224 448.83919 119.716264 445.703229 116.644302 442.43927 113.316344 439.431307 110.756376 437.127336 108.388406 434.567368 105.764438 432.263397 103.332469 430.087424 101.156496 427.655454 98.724526 425.479482 95.524566 422.535518 92.580603 419.20756 89.508642 416.071599 86.500679 412.871639 83.23672 409.927676 80.292757 406.663717 77.732789 403.783753 75.172821 400.263797 70.180883 401.351783 67.748914 401.863777 66.596928 403.399758 65.700939 405.383733 63.20497 405.63973 64.228958 407.559706 64.228958 408.647692V771.075162c0 1.471982 0.127998 2.879964 0.063999 4.287946 0 1.087986 0.383995 1.59998 1.407982 1.663979-0.639992 3.327958 1.59998 6.015925 2.111974 9.087887 0.319996 2.175973 1.727978 4.03195 2.559968 6.079924 1.215985 2.815965 3.583955 5.183935 5.247934 7.871901a21.823727 21.823727 0 0 0 5.63193 5.823927c2.303971 1.663979 4.671942 3.455957 7.16791 4.927939 2.943963 1.663979 5.759928 3.775953 8.511894 5.695929 0.83199 0.511994 1.791978 0.639992 2.687966 1.471981 2.559968 2.303971 5.823927 4.03195 8.959888 5.63193 2.111974 1.087986 4.095949 2.559968 6.39992 3.519956 5.119936 2.111974 9.471882 5.951926 14.719816 7.9999 2.943963 1.087986 5.183935 3.19996 8.191898 4.095949 0.703991 0.255997 1.535981 0.319996 2.111973 0.703991 4.223947 2.943963 9.023887 4.607942 13.567831 6.911913 0.959988 0.511994 2.175973 0.511994 2.943963 1.151986a18.815765 18.815765 0 0 0 8.319896 3.711954c0.511994 0.127998 1.023987 0.191998 1.59998 0.639992 1.279984 0.959988 2.879964 1.663979 4.351946 2.495968 1.663979 0.959988 3.839952 0.383995 5.375932 2.047975 0.575993 0.639992 1.919976 1.471982 3.007963 1.663979 4.479944 0.83199 8.639892 2.943963 12.79984 4.607942 1.279984 0.511994 2.943963 0 3.839952 0.959988 1.663979 1.727978 4.03195 1.663979 5.951925 2.559968 2.815965 1.215985 5.759928 2.175973 8.895889 2.943964 1.343983 0.319996 3.19996 0.063999 4.03195 0.959988 1.59998 1.791978 4.03195 1.919976 5.759928 2.36797 4.607942 1.087986 9.087886 2.559968 13.56783 4.095949 3.583955 1.279984 7.615905 1.535981 11.391858 2.687966 3.19996 0.895989 6.39992 1.919976 9.59988 2.495969 1.471982 0.255997 3.647954-0.319996 4.479944 0.447994 2.43197 2.43197 5.759928 1.023987 8.511893 2.367971 2.687966 1.279984 6.39992 1.791978 9.855877 1.535981 0.639992-0.063999 1.59998-0.191998 1.919976 0.127998 2.559968 2.559968 6.527918 0 8.959888 2.623967 5.759928 0.511994 11.519856 0.76799 17.151786 2.43197 3.647954 1.087986 7.679904 0.511994 11.519856 1.407982 4.671942 1.087986 9.727878 0.76799 14.591817 1.279984 3.19996 0.255997 6.335921 0.127998 9.471882 0.191998 0 1.023987 0.575993 1.407982 1.59998 1.343983h69.119136c1.023987 0 1.59998-0.319996 1.59998-1.343983 7.679904 0.383995 15.23181-1.407982 22.847714-1.151986h4.223948c1.023987 0.063999 1.59998-0.319996 1.53598-1.407982a78.079024 78.079024 0 0 0 10.239872-1.279984c5.375933-1.087986 11.007862-0.83199 16.383796-2.559968 2.687966-0.895989 5.759928-0.76799 8.639892-1.471982 3.327958-0.76799 6.847914-1.663979 10.495868-1.407982 0.383995 0 1.023987 0 1.215985-0.191998 1.791978-2.36797 4.79994-1.279984 7.167911-2.36797a18.495769 18.495769 0 0 1 8.319896-1.471982c0.383995 0 0.895989 0 1.279984-0.191997a20.479744 20.479744 0 0 1 8.191897-2.623968 54.39932 54.39932 0 0 0 11.327859-2.943963 49.983375 49.983375 0 0 1 8.383895-2.239972c0.639992-0.127998 1.343983-0.127998 1.663979-0.511993 1.59998-1.663979 3.96795-1.727978 5.759928-2.239972 3.711954-0.959988 7.23191-2.36797 10.879864-3.455957 1.215985-0.319996 2.623967 0.063999 3.647954-0.639992a22.527718 22.527718 0 0 1 9.471882-3.839952c0.575993-0.063999 1.087986-0.127998 1.59998-0.511994 1.663979-1.023987 3.19996-2.239972 5.311934-2.495969 2.943963-0.319996 5.759928-1.791978 8.319896-3.071961 2.175973-1.087986 4.607942-1.919976 6.847914-3.071962 1.727978-0.895989 3.583955-1.983975 5.695929-2.36797 3.007962-0.511994 4.991938-3.135961 8.063899-3.775953a22.719716 22.719716 0 0 0 6.527918-2.751966c3.263959-1.855977 6.655917-3.391958 9.983876-4.991937 2.111974-1.087986 4.543943-1.983975 6.271921-3.263959a47.871402 47.871402 0 0 1 8.319896-4.607943c3.711954-1.663979 6.975913-4.03195 10.687867-5.631929 3.19996-1.471982 6.079924-3.839952 9.279884-5.63193 1.59998-0.895989 3.071962-2.303971 4.607942-3.071962a63.807202 63.807202 0 0 0 5.119936-3.007962c2.175973-1.471982 4.735941-2.36797 6.591918-4.223947 1.663979-1.663979 3.903951-2.239972 5.631929-3.775953 2.047974-1.727978 4.79994-2.559968 6.719916-4.479944 0.639992-0.639992 1.023987-1.279984 1.919976-1.279984a3.071962 3.071962 0 0 0 2.367971-1.59998 5.503931 5.503931 0 0 1 2.559968-2.175973c3.007962-1.087986 4.607942-3.96795 7.423907-5.375933 1.727978-0.83199 3.19996-2.43197 4.79994-3.583955 2.751966-1.919976 5.375933-3.96795 7.9999-6.015925 1.471982-1.151986 2.751966-3.135961 4.223947-3.583955 3.19996-1.023987 4.159948-4.479944 7.167911-5.759928a9.919876 9.919876 0 0 0 2.751965-2.047974c2.303971-2.559968 5.119936-4.607942 7.679904-7.103911 1.59998-1.663979 3.775953-2.43197 5.311934-4.223948a46.207422 46.207422 0 0 1 6.015925-6.079924c1.919976-1.535981 3.711954-3.327958 5.375932-5.119936l9.59988-9.53588c3.19996-3.071962 6.207922-6.207922 9.407883-9.215885a40.319496 40.319496 0 0 0 5.119936-6.015925 32.255597 32.255597 0 0 1 5.759928-6.079924c1.663979-1.343983 2.175973-3.391958 3.711953-4.79994a27.135661 27.135661 0 0 0 5.823928-6.591918c1.727978-2.943963 4.671942-4.79994 6.271921-7.807902 1.151986-2.175973 3.391958-3.583955 4.735941-5.759928 1.343983-2.303971 3.19996-4.351946 4.927938-6.39992 1.919976-2.303971 4.095949-4.735941 5.375933-7.295909 1.343983-2.751966 3.775953-4.479944 5.119936-7.231909a43.519456 43.519456 0 0 1 4.927939-7.103912c1.279984-1.59998 2.047974-3.391958 3.13596-5.055936 1.663979-2.559968 3.455957-5.055937 5.247935-7.551906 0.703991-1.087986 0.83199-2.239972 1.791977-3.327958 1.727978-1.791978 3.647954-3.96795 3.19996-6.911914" fill="#3370FF"></path><path d="M958.745776 423.23951c-0.383995-0.447994-0.76799-0.447994-1.279984-0.575993-1.407982-0.447994-3.007962-0.76799-4.287946-1.535981a26.36767 26.36767 0 0 0-4.479944-2.559968c-2.36797-0.959988-5.119936-1.279984-7.103911-2.687966-2.751966-2.111974-6.207922-2.047974-9.151886-3.583956a22.783715 22.783715 0 0 0-6.655917-2.36797c-1.791978-0.319996-3.647954-1.151986-5.375933-1.663979-2.36797-0.76799-4.863939-1.59998-7.295908-2.239972a143.806202 143.806202 0 0 1-11.327859-3.263959 19.96775 19.96775 0 0 0-8.063899-1.343984c-0.639992-2.623967-2.751966-1.087986-4.223947-1.407982-1.919976 0-3.711954-0.959988-5.503931-1.279984-5.823927-1.023987-11.775853-1.215985-17.66378-2.559968-4.671942-1.023987-9.727878-0.447994-14.591817-1.151986-2.879964-0.383995-5.759928-0.127998-8.703891-0.191997 0-1.151986-0.575993-1.407982-1.59998-1.407983h-28.095649c-1.023987 0-1.59998 0.319996-1.59998 1.407983-7.16791-0.383995-14.207822 1.215985-21.375733 1.151985h-4.223947c-1.023987-0.063999-1.471982 0.383995-1.535981 1.343984-4.095949-0.383995-7.935901 1.407982-12.03185 1.151985a1.279984 1.279984 0 0 0-0.703991 0.191998c-3.135961 2.175973-6.975913 1.407982-10.36787 2.559968-2.687966 0.895989-5.951926 0.76799-8.511894 1.727978-2.047974 0.703991-4.351946 1.279984-6.39992 2.111974a18.623767 18.623767 0 0 1-7.9999 1.59998c0.063999 0.511994 0.191998 1.151986-0.511993 1.215985-1.59998 0.127998-3.071962 0.959988-4.479944 1.279984-4.223947 1.087986-8.191898 2.687966-12.287847 4.095948-3.583955 1.279984-6.911914 3.19996-10.431869 4.03195-4.03195 0.959988-6.847914 4.159948-11.071862 4.671942a7.103911 7.103911 0 0 0-3.647954 1.279984 13.119836 13.119836 0 0 1-3.903952 2.36797 26.36767 26.36767 0 0 0-6.39992 3.135961c-2.943963 1.919976-6.143923 3.19996-8.959888 5.119936-1.087986 0.76799-2.879964 0.447994-3.391957 1.279984-2.047974 3.583955-6.271922 3.647954-9.151886 5.887926-3.071962 2.36797-6.719916 4.159948-9.791877 6.463919-2.559968 1.919976-5.247934 3.711954-7.679904 5.759928-3.19996 2.751966-6.655917 5.247934-10.047875 7.679904-1.791978 1.279984-2.879964 3.647954-4.735941 4.223948-2.943963 1.023987-4.479944 3.455957-6.39992 5.247934-1.919976 1.919976-4.095949 3.903951-6.015925 5.951926-2.943963 3.007962-6.079924 5.823927-9.151885 8.76789-2.303971 2.175973-4.287946 4.927938-6.847915 6.591918-3.839952 2.559968-6.655917 5.951926-9.855876 8.959888-3.19996 3.007962-6.39992 6.143923-9.471882 9.279884-3.583955 3.647954-7.551906 6.911914-10.943863 10.687866-2.943963 3.327958-6.335921 6.207922-9.471882 9.279884-3.19996 3.135961-6.207922 6.463919-9.59988 9.471882a155.96605 155.96605 0 0 0-9.471881 9.471881c-2.43197 2.559968-4.991938 5.055937-7.551906 7.487907-2.559968 2.43197-4.735941 5.311934-7.935901 7.039912-0.319996 1.535981-1.59998 2.175973-2.751965 2.943963-3.327958 2.111974-5.951926 4.991938-8.83189 7.679904-1.919976 1.727978-3.455957 4.03195-5.63193 5.247934-3.583955 1.919976-6.143923 5.119936-9.343883 7.423907-3.839952 2.815965-7.807902 5.695929-11.19986 9.087887-1.663979 1.59998-4.223947 1.855977-5.311933 3.96795-0.895989 1.791978-3.19996 1.407982-4.287947 2.815965-2.239972 3.007962-5.887926 4.223947-8.575893 6.655917-1.59998 1.471982-3.839952 2.687966-5.759928 3.839952-1.215985 0.639992-2.559968 1.087986-3.583955 2.047974a41.59948 41.59948 0 0 1-8.255897 5.759928c-1.279984 0.76799-3.007962 1.279984-3.96795 2.367971-1.791978 1.919976-4.287946 2.815965-6.335921 4.479944a25.727678 25.727678 0 0 1-6.783915 4.095948c-3.19996 1.215985-5.63193 3.455957-8.575893 4.927939-3.96795 1.919976-7.679904 4.287946-11.583855 6.207922-1.023987 0.511994-2.751966 0.83199-3.327958 2.239972 0 0.895989 0.383995 1.151986 1.151985 1.59998 1.727978 1.023987 3.647954 1.279984 5.375933 1.983975 2.815965 1.279984 5.503931 2.879964 8.319896 4.03195 2.687966 1.087986 4.927938 2.943963 8.127898 3.19996a7.9999 7.9999 0 0 1 3.903952 1.919976c1.919976 1.663979 4.351946 2.303971 6.39992 3.071962 1.791978 0.639992 3.519956 1.791978 5.56793 2.175972 1.279984 0.255997 3.007962 0.191998 4.03195 0.959988 1.791978 1.407982 3.839952 2.175973 5.759928 3.327959 1.279984 0.76799 3.007962-0.255997 3.775952 0.895989 1.087986 1.59998 3.071962 1.855977 4.287947 2.303971 3.647954 1.279984 7.039912 2.751966 10.623867 4.223947 3.071962 1.279984 6.207922 2.175973 9.215885 3.839952 2.495969 1.343983 5.823927 1.407982 8.703891 2.623967 1.087986 0.511994 1.663979 1.535981 2.879964 1.663979a18.047774 18.047774 0 0 1 7.871902 2.367971c0.76799 0.511994 1.59998 1.407982 2.559968 1.59998 2.815965 0.575993 5.56793 1.279984 8.319896 2.431969 2.559968 1.023987 5.247934 2.175973 7.9359 2.559968 1.471982 0.191998 1.791978 1.663979 3.19996 1.66398 2.495969 0 4.479944 1.59998 6.847915 2.111973 3.19996 0.76799 6.335921 1.919976 9.471881 2.879964 0.703991 0.191998 1.919976-0.127998 2.239972 0.255997 1.919976 2.559968 5.119936 1.279984 7.679904 2.559968 2.751966 1.407982 6.39992 2.047974 9.59988 3.135961 2.879964 1.023987 5.759928 2.111974 8.83189 2.239972 0.511994 0 0.959988 0.127998 1.407982 0.447994 2.047974 1.279984 4.415945 1.983975 6.783916 2.559968a50.751366 50.751366 0 0 0 3.391957 0.575993c2.047974 0.319996 3.711954 1.727978 5.695929 1.855977 2.943963 0.127998 5.439932 1.919976 8.511894 2.047974 1.151986 0.063999 3.071962-0.127998 4.031949 0.83199 1.983975 1.983975 4.79994 1.855977 7.039912 2.431969 4.863939 1.279984 10.047874 0.959988 15.039812 2.623968 2.879964 1.023987 6.143923 0.639992 9.343883 1.407982 5.119936 1.151986 10.687866 0.76799 16.127799 1.087986 10.047874 0.639992 20.159748 0.383995 30.143623-0.76799 2.559968-0.319996 4.927938-0.447994 7.423907-1.087986a62.39922 62.39922 0 0 1 10.879864-1.791978c3.135961-0.255997 6.015925-1.59998 9.215885-1.279984a1.215985 1.215985 0 0 0 0.639992-0.191998c2.751966-1.727978 5.951926-1.727978 8.83189-2.687966 2.047974-0.639992 4.479944-0.575993 6.207922-1.59998a17.663779 17.663779 0 0 1 5.823927-2.239972c3.19996-0.511994 5.439932-3.19996 8.703892-2.943963 0.127998 0 0.255997-0.191998 0.383995-0.255997 2.175973-1.663979 4.863939-2.559968 7.295909-3.391958a68.479144 68.479144 0 0 0 7.743903-3.19996c3.327958-1.663979 6.527918-3.839952 9.791877-5.759928 0.959988-0.575993 2.36797 0.255997 3.071962-1.279984 0.511994-1.279984 1.727978-1.919976 3.19996-2.239972 1.663979-0.447994 3.583955-1.087986 4.287946-3.007962 0.319996-0.83199 0.959988-0.895989 1.59998-0.83199a2.43197 2.43197 0 0 0 2.175973-1.215984c2.047974-3.071962 5.56793-4.479944 8.383895-6.527919 2.943963-2.047974 5.247934-4.79994 8.319896-6.655917 3.647954-2.111974 6.271922-5.503931 9.215885-8.447894 2.495969-2.559968 4.863939-5.183935 7.487907-7.487906 2.047974-1.791978 3.007962-4.223947 5.055936-6.015925 1.407982-1.279984 3.647954-2.559968 4.223948-4.479944 0.895989-3.007962 3.327958-4.223947 5.375932-6.079924a11.711854 11.711854 0 0 1 3.135961-4.03195l0.767991-1.215985c1.087986-0.639992 0.511994-2.239972 1.663979-2.943963 2.047974-1.343983 2.815965-3.839952 3.711953-5.759928 1.407982-2.943963 3.135961-5.823927 4.79994-8.575893 1.791978-3.007962 2.879964-6.335921 5.119936-9.151885 1.663979-2.175973 2.751966-5.055937 3.967951-7.615905 2.175973-4.479944 4.415945-8.895889 6.783915-13.247834 1.407982-2.559968 2.751966-5.247934 3.96795-7.935901 1.215985-2.815965 2.815965-5.439932 4.095949-8.127899 1.279984-2.815965 3.071962-5.375933 4.095949-8.127898 1.279984-3.391958 3.19996-6.271922 4.671942-9.535881 0.447994-1.151986 0.319996-2.559968 1.151985-3.391957a16.383795 16.383795 0 0 0 3.583955-6.271922c1.279984-3.391958 4.159948-6.015925 4.479944-9.791878l0.255997-0.127998c1.279984-0.959988 1.727978-2.559968 2.43197-3.903951 1.151986-2.111974 1.663979-4.607942 3.071961-6.527919 2.175973-3.071962 3.455957-6.527918 5.119936-9.791877 1.087986-2.047974 1.919976-4.351946 3.071962-6.207923 1.919976-3.007962 3.19996-6.39992 4.991938-9.407882a38.463519 38.463519 0 0 0 3.19996-6.719916c0.575993-1.535981 1.663979-3.071962 2.623967-4.479944 1.727978-2.687966 2.943963-5.759928 5.183935-8.127898 0.959988-1.023987 0.895989-2.43197 2.047974-3.583956 1.919976-1.919976 2.943963-4.479944 4.479944-6.719916 1.151986-1.663979 1.919976-3.711954 3.26396-4.991937 2.559968-2.43197 4.479944-5.439932 6.207922-8.191898 1.727978-2.751966 3.96795-5.247934 5.951926-7.615905 3.263959-3.96795 6.783915-7.871902 10.36787-11.711853a4652.741841 4652.741841 0 0 0 9.727878-10.367871c1.919976-1.983975 1.407982-2.43197 0-3.839952" fill="#133C9A"></path></svg>
