<svg viewBox="0 0 1024 1024" version="1.1" xmlns="http://www.w3.org/2000/svg" width="200" height="200"><path d="M515.465911 0.01242C300.718451-1.427543 99.826634 133.353979 27.187509 347.877444c-90.654661 267.771091 52.898635 558.325595 320.665726 648.947257 267.771091 90.654661 558.325595-52.898635 648.947257-320.665726 73.698099-217.594386-7.327811-450.199385-183.932255-578.421077l5.375862 108.670197c88.097727 97.374488 122.87783 235.163933 79.006961 364.760588C831.811749 764.541694 615.912319 866.204071 415.1165 798.204826c-200.860818-67.966246-310.617986-279.83378-245.115676-473.23879 43.998865-129.949647 155.932977-218.494363 285.592631-241.915759L525.641648 0.268413A211.822535 211.822535 0 0 0 516.199892 0.044419h-0.79998zM665.996027 46.700215h-0.351991a12.193685 12.193685 0 0 0-4.959872 1.055973l0.063998-0.031999-0.159996 0.031999a14.076637 14.076637 0 0 0-4.63988 3.039921c-6.175841 6.047844-28.031277 35.327089-28.031277 35.327089L580.298238 145.097676l-55.454569 67.614256-95.231543 118.429944s-43.678873 54.526593-34.047122 121.629862c9.631751 67.166267 59.550464 99.838424 98.297464 112.990085 38.687002 13.087662 98.206466 17.407551 146.685215-30.047225C688.967434 488.258823 687.395475 418.372626 687.395475 418.372626l-3.711905-151.901081-2.975923-87.454744-2.011948-75.742046s0.415989-36.511058-0.863978-45.086836a13.914641 13.914641 0 0 0-1.53596-4.639881l0.031999 0.063999-0.255993-0.511987-0.287993-0.479988a11.878694 11.878694 0 0 0-9.759748-5.983845H665.996027z" fill="#0072C6"></path></svg>
