<svg enable-background="new 0 0 180 180" viewBox="0 0 180 180" width="200" height="200" xmlns="http://www.w3.org/2000/svg"><path d="m90.1 0c49.7 0 89.9 40.2 89.9 89.9s-40.2 89.9-89.9 89.9-90-40.1-90-89.9c0-49.6 40.3-89.9 90-89.9z" fill="#282828"/><path d="m39.1 121.1v-61.4l18-4.3-2.8 19.8h1.9c1.1-4.6 2.9-8.5 5.2-11.6 2.5-3.2 5.5-5.6 9.2-7.2 3.8-1.7 8.2-2.6 13.2-2.6 6.5 0 12.1 1.4 16.8 4.4 4.7 2.9 8.3 7 10.8 12.6 2.6 5.4 3.9 11.9 3.9 19.5v30.8h-17.7v-26.3c0-5.1-.8-9.4-2.3-13-1.6-3.6-3.9-6.3-6.9-8.2-3.1-1.9-6.6-2.9-10.9-2.9-6.3 0-11.3 2-14.9 6.2-3.6 4.1-5.3 10-5.3 17.7v26.4h-18.2z" fill="#fff"/><circle cx="137.3" cy="110.4" fill="#6eda78" r="12.4"/></svg>
