<svg viewBox="0 0 1024 1024" version="1.1" xmlns="http://www.w3.org/2000/svg" p-id="7279" width="200" height="200"><path d="M799.8 943.7H220c-59.5-4.6-99-37.8-126-88.8C81.8 832 81.8 806.8 81.7 782c-0.4-180.3 1.5-360.7-1-541-1.2-83.1 69.1-160.3 156.5-159.6 184.7 1.6 369.4 1.1 554.1 0.2 76.9-0.4 152.1 67.6 151.6 155.1-1 186 0.3 372.1-0.6 558.1-0.4 80.6-57.4 139.3-138.7 147-1.4 0.2-2.6 1.2-3.8 1.9z" fill="#031B4E" p-id="7280"></path><path d="M500.9 435.5c-47.8-0.3-94.7-5.6-140.2-21.4-17.7-6.2-23.7-16.3-25.3-35.9-2.6-30.7 8.4-47.2 35-61.3 41.9-22.2 81.6-48.7 121.7-74 10.2-6.4 17.9-7 28.4-0.1 44.9 29.8 90.3 58.9 135.9 87.7 8.2 5.1 11.3 10.5 11.5 20.3 1.2 57.7 1.1 58-55.2 72.5-36.7 9.3-74.1 12.3-111.8 12.2zM336.3 543.5c111.7 39.3 220.4 39.5 331.2 0V628c0 9.6-7 13-14 16.8-20.4 10.9-42.6 15.3-65 18.6-73 10.8-145.6 10.5-217-10.4-34.5-10.1-35.2-12.1-35.2-47.2v-62.3z" fill="#FEFEFE" p-id="7281"></path><path d="M667.6 423.1c0 26-1.5 50.3 0.5 74.4 1.7 20.6-8 29.6-25.2 35.6-38.7 13.5-78.8 17.9-119.2 19.4-53.4 2-106.2-2-157.7-18.1-20.9-6.5-32.4-16.8-30-41.1 2.2-22.5 0.5-45.4 0.5-69.9 52.9 27.5 109.2 31.7 165.8 31.7 55.8-0.1 111.6-3.7 165.3-32zM336.4 661.3c111.6 38.1 220.2 39 331.2-0.2 0 26.2-0.1 54.9 0 83.6 0.1 11.8-8.9 15.4-17.2 19.2-25.5 11.6-52.8 16.4-80.2 19.3-63.8 6.8-127.4 6.4-189.9-10.3-10.8-2.9-21.3-7.3-31.6-11.8-8.4-3.7-12.7-10.2-12.5-20.2 0.5-26.9 0.2-53.9 0.2-79.6z" fill="#FEFEFE" p-id="7282"></path></svg>
