<?xml version="1.0" encoding="utf-8"?>
<!-- Uploaded to: SVG Repo, www.svgrepo.com, Generator: SVG Repo Mixer Tools -->
<svg width="800px" height="800px" viewBox="0 0 1024 1024" xmlns="http://www.w3.org/2000/svg">
   <circle cx="512" cy="512" r="512" style="fill:#031b4e" />
   <path
      d="M668 415.5c0 16.6-69.9 30.2-156 30.2s-156-13.6-156-30.2v85c0 17.1 69.9 30.7 156 30.7s156-13.6 156-30.7v-85zM512 556.4c86.1 0 156-13.6 156-30.2v85.5c0 16.6-69.9 30.2-156 30.2s-156-13.6-156-30.2v-85.5c0 16.6 69.9 30.2 156 30.2zm156 80.5c0 16.6-69.9 30.2-156 30.2s-156-13.6-156-30.2v85.5c0 16.6 69.9 30.2 156 30.2s156-13.6 156-30.2v-85.5zm0-296.9L512 239.4 356 340v55.4c0 14.1 69.9 25.2 156 25.2s156-11.1 156-25.2V340z"
      style="fill:#fff" />
</svg>