<svg version="1.0" xmlns="http://www.w3.org/2000/svg" width="200" height="200" viewBox="0 0 390 390"><g fill="#231F20FD" stroke="#231F20FD"><path d="M 51.963 131.224 C 51.886 131.803 51.845 243.686 51.921 247.250 L 52.000 251.000 63.566 251.000 L 75.132 251.000 74.816 206.999 C 74.642 182.799 74.742 162.999 75.039 162.999 C 75.335 163.000 77.312 167.388 79.432 172.750 C 83.399 182.788 90.389 197.123 107.833 231.000 L 117.874 250.500 132.937 250.776 L 148.000 251.052 148.000 190.994 L 148.000 130.937 136.250 131.218 L 124.500 131.500 124.500 173.500 L 124.500 215.500 120.750 207.625 C 118.688 203.294 117.000 199.596 117.000 199.407 C 117.000 198.519 89.835 145.115 83.984 134.500 L 82.331 131.500 67.165 131.224 C 58.824 131.072 51.983 131.072 51.963 131.224 "/></g><g fill="#231F20FD" stroke="#231F20FD"><path d="M 198.000 132.031 C 186.222 134.506 175.076 142.919 170.355 152.899 C 166.812 160.387 166.653 172.157 169.999 179.275 C 173.108 185.888 182.377 194.106 191.729 198.540 C 214.885 209.518 217.990 211.199 220.403 214.067 C 225.383 219.986 222.954 228.450 215.364 231.621 C 205.909 235.572 189.337 230.763 178.483 220.919 C 176.495 219.115 176.374 219.224 169.983 228.525 C 166.417 233.714 163.500 238.750 163.500 239.716 C 163.500 243.321 178.319 250.974 189.353 253.067 C 195.907 254.310 210.272 254.251 217.295 252.953 C 233.791 249.904 246.375 238.021 248.563 223.425 C 250.000 213.849 245.659 202.627 237.670 195.264 C 232.765 190.743 229.887 189.103 213.403 181.443 C 200.793 175.583 196.411 172.667 194.403 168.800 C 192.158 164.479 192.698 161.300 196.355 157.310 C 199.384 154.005 200.311 153.605 205.890 153.202 C 213.355 152.662 219.518 154.710 225.794 159.818 C 228.193 161.771 230.428 162.913 230.859 162.406 C 231.283 161.908 234.301 158.350 237.565 154.500 C 240.829 150.650 243.838 147.350 244.250 147.167 C 248.483 145.285 237.577 136.985 226.119 133.367 C 220.358 131.549 203.998 130.771 198.000 132.031 "/></g><g fill="#231F20FD" stroke="#231F20FD"><path d="M 272.000 138.618 C 258.179 148.122 258.897 146.529 263.910 156.550 C 266.273 161.276 268.771 165.359 269.460 165.623 C 270.149 165.887 273.365 164.338 276.606 162.179 L 282.500 158.254 282.760 204.627 L 283.020 251.000 295.010 251.000 L 307.000 251.000 307.000 191.500 L 307.000 132.000 294.250 132.043 L 281.500 132.086 272.000 138.618 "/></g><g fill="#F30270FE" stroke="#F30270FE"><path d="M 325.071 225.703 C 315.164 230.894 314.604 243.488 324.000 249.818 C 334.022 256.571 347.264 246.120 344.007 234.027 C 341.944 226.364 332.083 222.030 325.071 225.703 "/></g></svg>
