<svg viewBox="0 0 1024 1024" version="1.1" xmlns="http://www.w3.org/2000/svg" width="200" height="200"><path d="M93.866667 234.666667c-34.133333 12.8-51.2 25.6-51.2 34.133333 0 4.266667 51.2 64 115.2 136.533333 64 68.266667 115.2 128 115.2 128s-51.2 59.733333-115.2 128S42.666667 793.6 42.666667 797.866667c4.266667 17.066667 59.733333 42.666667 98.133333 42.666666 64 0 81.066667-12.8 217.6-162.133333 68.266667-76.8 128-140.8 128-140.8 0-4.266667-55.466667-64-123.733333-140.8-85.333333-102.4-132.266667-145.066667-153.6-157.866667-29.866667-12.8-81.066667-17.066667-115.2-4.266666z m725.333333 4.266666c-21.333333 8.533333-68.266667 59.733333-153.6 153.6-68.266667 76.8-123.733333 140.8-123.733333 140.8 0 4.266667 55.466667 68.266667 128 140.8 136.533333 153.6 153.6 162.133333 217.6 162.133334 42.666667 0 98.133333-21.333333 98.133333-42.666667 0-4.266667-51.2-68.266667-115.2-136.533333s-115.2-128-115.2-128 51.2-59.733333 115.2-128 115.2-128 115.2-136.533334c-4.266667-17.066667-55.466667-38.4-98.133333-38.4-34.133333 0-46.933333 4.266667-68.266667 12.8z" fill="#E57000"></path><path d="M238.933333 136.533333c-42.666667 21.333333-42.666667 25.6-4.266666 68.266667 221.866667 243.2 273.066667 302.933333 277.333333 302.933333s311.466667-332.8 315.733333-341.333333c0-4.266667-8.533333-12.8-21.333333-21.333333-17.066667-12.8-34.133333-17.066667-68.266667-17.066667-64-4.266667-85.333333 8.533333-162.133333 93.866667-34.133333 38.4-64 72.533333-64 72.533333s-29.866667-29.866667-64-68.266667-72.533333-76.8-89.6-85.333333c-25.6-17.066667-89.6-21.333333-119.466667-4.266667zM354.133333 725.333333c-85.333333 93.866667-153.6 170.666667-153.6 174.933334s8.533333 12.8 21.333334 21.333333c17.066667 12.8 34.133333 17.066667 68.266666 17.066667 59.733333 4.266667 85.333333-8.533333 162.133334-98.133334 34.133333-38.4 64-68.266667 64-68.266666s29.866667 29.866667 64 68.266666c81.066667 89.6 98.133333 102.4 162.133333 98.133334 34.133333 0 51.2-4.266667 68.266667-17.066667 12.8-8.533333 21.333333-17.066667 21.333333-21.333333-4.266667-8.533333-311.466667-345.6-315.733333-341.333334-8.533333 0-76.8 76.8-162.133334 166.4z"></path></svg>
