<svg xmlns="http://www.w3.org/2000/svg" xml:space="preserve" viewBox="0 0 512 512"><circle cx="256" cy="256" r="256" style="fill-rule:evenodd;clip-rule:evenodd;fill:#249df1"/><path d="m240.7 147.2 64.2-8.5-62.5 141.1c11-.8 21.8-4.6 32.3-11.2 10.6-6.6 20.3-14.9 29.2-24.9s16.5-21.1 23-33.4 11.1-24.3 13.9-36.1c1.7-7.3 2.5-14.4 2.3-21.1-.1-6.8-1.9-12.7-5.3-17.7-3.4-5.1-8.5-9.2-15.4-12.3s-16.3-4.6-28.1-4.6c-13.8 0-27.4 2.3-40.8 6.8s-25.8 11.1-37.2 19.7-21.3 19.3-29.8 32.1-14.5 27.4-18.2 43.7c-1.4 5.4-2.3 9.6-2.5 12.9-.3 3.2-.4 5.9-.2 8 .1 2.1.4 3.7.8 4.9.4 1.1.8 2.3 1.1 3.4q-21.6 0-31.5-8.7c-6.6-5.8-8.2-15.8-4.9-30.2 3.4-14.9 11.1-29.2 23-42.7 12-13.5 26.2-25.4 42.7-35.7s34.5-18.4 54.1-24.5 38.7-9.1 57.3-9.1c16.3 0 30.1 2.3 41.2 7s19.8 10.8 26 18.4 10.1 16.5 11.6 26.6c1.6 10.1 1.1 20.7-1.5 31.7-3.1 13.2-8.9 26.6-17.5 39.9-8.6 13.4-19.4 25.5-32.3 36.3-13 10.8-27.8 19.6-44.6 26.4s-34.6 10.1-53.4 10.1h-2.1L182 415.9h-60.8z" style="fill:#fff"/></svg>