<svg version="1.1" xmlns="http://www.w3.org/2000/svg" width="200" height="200" viewBox="0 0 1024 1024"><path d="M0 0 C2.29991987 -0.00302571 4.59983873 -0.00691728 6.89975584 -0.01159257 C13.17903847 -0.0218274 19.45826373 -0.01970229 25.73755097 -0.01541197 C31.82725044 -0.01319122 37.91693292 -0.02036815 44.00662776 -0.02717223 C57.98888993 -0.0423668 71.9711339 -0.04412195 85.95340259 -0.0416492 C96.75610134 -0.03981235 107.55879416 -0.04158435 118.36149216 -0.04587364 C119.91675238 -0.04647606 121.47201259 -0.04707726 123.02727281 -0.04767724 C125.37128182 -0.04858456 127.71529083 -0.04949323 130.05929983 -0.0504096 C151.83741875 -0.05883246 173.61553545 -0.06317948 195.39365578 -0.05900288 C196.62370637 -0.05876831 196.62370637 -0.05876831 197.87860647 -0.05852901 C202.03429378 -0.0577233 206.18998109 -0.05687753 210.34566839 -0.05601571 C211.58353292 -0.05575908 211.58353292 -0.05575908 212.84640481 -0.05549726 C214.51524493 -0.0551506 216.18408505 -0.05480207 217.85292516 -0.05445167 C243.80930201 -0.04909671 269.76564487 -0.05702124 295.72201538 -0.07548523 C324.92587353 -0.09623528 354.12971063 -0.10692215 383.33357656 -0.10290974 C386.45199227 -0.10251444 389.57040798 -0.10215288 392.6888237 -0.10181236 C393.8404588 -0.10167627 393.8404588 -0.10167627 395.01535925 -0.10153742 C406.56861454 -0.100375 418.12184846 -0.10699264 429.67509842 -0.11762428 C442.82692811 -0.1297151 455.97871096 -0.13119082 469.1305414 -0.11883412 C475.83312511 -0.11281734 482.53560627 -0.11179659 489.2381897 -0.12383652 C495.38834532 -0.13475516 501.53833396 -0.13152136 507.68848197 -0.11757483 C509.89900092 -0.11494426 512.10953321 -0.11724205 514.32003899 -0.1253107 C533.22906705 -0.18947386 551.97836549 1.27618238 570.36410522 5.94819641 C571.38721802 6.20238342 572.41033081 6.45657043 573.46444702 6.71846008 C605.78928291 14.9871437 635.98090547 28.50729721 662.92660522 48.26069641 C663.50491089 48.68205872 664.08321655 49.10342102 664.67904663 49.53755188 C671.92883939 54.85600483 678.65781316 60.58049443 685.20785522 66.72944641 C687.50573486 68.86885159 689.84319329 70.92088631 692.23910522 72.94819641 C695.5011314 75.78065535 698.31723934 78.8334249 701.10238647 82.13179016 C702.33580495 83.57121857 703.60574089 84.98001762 704.90707397 86.35835266 C717.21146118 99.4247602 727.0282192 114.73599448 735.92660522 130.26069641 C736.57025024 131.38314758 736.57025024 131.38314758 737.22689819 132.52827454 C750.26231439 155.56853308 758.93727944 180.79659497 764.23910522 206.69819641 C764.38646118 207.41709045 764.53381714 208.1359845 764.68563843 208.87666321 C767.69132971 224.69043789 768.217461 240.28115099 768.18730164 256.33409119 C768.19032734 258.63401105 768.19421891 260.93392992 768.1988942 263.23384702 C768.20912903 269.51312966 768.20700393 275.79235491 768.20271361 282.07164216 C768.20049285 288.16134163 768.20766978 294.2510241 768.21447386 300.34071895 C768.22966843 314.32298111 768.23142358 328.30522509 768.22895084 342.28749378 C768.22711399 353.09019252 768.22888599 363.89288534 768.23317528 374.69558334 C768.2337777 376.25084356 768.23437889 377.80610378 768.23497888 379.361364 C768.23588619 381.70537301 768.23679487 384.04938201 768.23771123 386.39339102 C768.2461341 408.17150994 768.25048112 429.94962664 768.24630451 451.72774696 C768.24614814 452.54778069 768.24599176 453.36781442 768.24583065 454.21269766 C768.24502493 458.36838497 768.24417916 462.52407228 768.24331734 466.67975958 C768.24314626 467.50500259 768.24297517 468.33024561 768.2427989 469.18049599 C768.24245224 470.84933611 768.24210371 472.51817623 768.24175331 474.18701635 C768.23639834 500.1433932 768.24432288 526.09973606 768.26278687 552.05610657 C768.28353692 581.25996472 768.29422379 610.46380182 768.29021138 639.66766775 C768.28981607 642.78608346 768.28945452 645.90449917 768.289114 649.02291489 C768.2889779 650.17454999 768.2889779 650.17454999 768.28883905 651.34945044 C768.28767663 662.90270573 768.29429427 674.45593965 768.30492592 686.00918961 C768.31701674 699.1610193 768.31849246 712.31280215 768.30613575 725.46463259 C768.30011897 732.1672163 768.29909823 738.86969745 768.31113815 745.57228088 C768.3220568 751.7224365 768.318823 757.87242515 768.30487647 764.02257316 C768.3022459 766.2330921 768.30454368 768.44362439 768.31261233 770.65413018 C768.3767755 789.56315824 766.91111926 808.31245668 762.23910522 826.69819641 C761.98491821 827.7213092 761.7307312 828.744422 761.46884155 829.79853821 C753.20015794 862.1233741 739.68000443 892.31499665 719.92660522 919.26069641 C719.50524292 919.83900208 719.08388062 920.41730774 718.64974976 921.01313782 C713.33129681 928.26293057 707.60680721 934.99190435 701.45785522 941.54194641 C699.31845005 943.83982604 697.26641532 946.17728448 695.23910522 948.57319641 C692.40664628 951.83522258 689.35387673 954.65133053 686.05551147 957.43647766 C684.61608306 958.66989613 683.20728402 959.93983208 681.82894897 961.24116516 C668.76254144 973.54555236 653.45130716 983.36231039 637.92660522 992.26069641 C637.17830444 992.68979309 636.43000366 993.11888977 635.6590271 993.56098938 C612.61876856 1006.59640558 587.39070666 1015.27137063 561.48910522 1020.57319641 C560.77021118 1020.72055237 560.05131714 1020.86790833 559.31063843 1021.01972961 C543.49686375 1024.02542089 527.90615065 1024.55155219 511.85321045 1024.52139282 C509.55329058 1024.52441853 507.25337172 1024.5283101 504.95345461 1024.53298539 C498.67417198 1024.54322022 492.39494672 1024.54109511 486.11565948 1024.5368048 C480.02596001 1024.53458404 473.93627753 1024.54176097 467.84658269 1024.54856505 C453.86432052 1024.56375962 439.88207655 1024.56551477 425.89980786 1024.56304202 C415.09710911 1024.56120517 404.29441629 1024.56297717 393.49171829 1024.56726646 C391.93645807 1024.56786888 390.38119786 1024.56847008 388.82593764 1024.56907007 C386.48192863 1024.56997738 384.13791962 1024.57088605 381.79391062 1024.57180242 C360.0157917 1024.58022528 338.237675 1024.5845723 316.45955467 1024.5803957 C315.22950408 1024.58016113 315.22950408 1024.58016113 313.97460398 1024.57992183 C309.81891666 1024.57911612 305.66322936 1024.57827035 301.50754206 1024.57740853 C300.68229904 1024.57723744 299.85705602 1024.57706635 299.00680564 1024.57689008 C297.33796552 1024.57654342 295.6691254 1024.57619489 294.00028528 1024.5758445 C268.04390844 1024.57048953 242.08756558 1024.57841407 216.13119507 1024.59687805 C186.92733692 1024.6176281 157.72349982 1024.62831497 128.51963389 1024.62430257 C125.40121818 1024.62390726 122.28280247 1024.62354571 119.16438675 1024.62320518 C118.39663002 1024.62311445 117.62887328 1024.62302372 116.8378512 1024.62293024 C105.28459591 1024.62176782 93.73136198 1024.62838546 82.17811203 1024.63901711 C69.02628234 1024.65110793 55.87449949 1024.65258364 42.72266905 1024.64022694 C36.02008533 1024.63421016 29.31760418 1024.63318941 22.61502075 1024.64522934 C16.46486513 1024.65614798 10.31487648 1024.65291418 4.16472848 1024.63896766 C1.95420953 1024.63633709 -0.25632276 1024.63863487 -2.46682854 1024.64670352 C-21.3758566 1024.71086668 -40.12515504 1023.24521044 -58.51089478 1018.57319641 C-59.53400757 1018.3190094 -60.55712036 1018.06482239 -61.61123657 1017.80293274 C-93.93607246 1009.53424912 -124.12769502 996.01409561 -151.07339478 976.26069641 C-151.65170044 975.83933411 -152.2300061 975.4179718 -152.82583618 974.98384094 C-160.07562894 969.66538799 -166.80460271 963.9408984 -173.35464478 957.79194641 C-175.65252441 955.65254124 -177.98998284 953.60050651 -180.38589478 951.57319641 C-183.64792095 948.74073747 -186.46402889 945.68796792 -189.24917603 942.38960266 C-190.4825945 940.95017425 -191.75253044 939.5413752 -193.05386353 938.16304016 C-205.35825073 925.09663262 -215.17500875 909.78539835 -224.07339478 894.26069641 C-224.71703979 893.13824524 -224.71703979 893.13824524 -225.37368774 891.99311829 C-238.40910394 868.95285974 -247.084069 843.72479785 -252.38589478 817.82319641 C-252.53325073 817.10430237 -252.68060669 816.38540833 -252.83242798 815.64472961 C-255.83811926 799.83095494 -256.36425055 784.24024183 -256.33409119 768.18730164 C-256.33711689 765.88738177 -256.34100847 763.58746291 -256.34568375 761.2875458 C-256.35591858 755.00826316 -256.35379348 748.72903791 -256.34950316 742.44975066 C-256.34728241 736.3600512 -256.35445933 730.27036872 -256.36126341 724.18067387 C-256.37645798 710.19841171 -256.37821313 696.21616774 -256.37574039 682.23389904 C-256.37390354 671.4312003 -256.37567554 660.62850748 -256.37996483 649.82580948 C-256.38056725 648.27054926 -256.38116844 646.71528904 -256.38176843 645.16002882 C-256.38267575 642.81601982 -256.38358442 640.47201081 -256.38450078 638.12800181 C-256.39292365 616.34988288 -256.39727067 594.57176618 -256.39309406 572.79364586 C-256.3928595 571.56359527 -256.3928595 571.56359527 -256.3926202 570.30869516 C-256.39181449 566.15300785 -256.39096871 561.99732055 -256.39010689 557.84163325 C-256.38993581 557.01639023 -256.38976472 556.19114721 -256.38958845 555.34089683 C-256.38924179 553.67205671 -256.38889326 552.00321659 -256.38854286 550.33437647 C-256.38318789 524.37799962 -256.39111243 498.42165676 -256.40957642 472.46528625 C-256.43032647 443.26142811 -256.44101334 414.05759101 -256.43700093 384.85372508 C-256.43660562 381.73530937 -256.43624407 378.61689365 -256.43590355 375.49847794 C-256.43581282 374.7307212 -256.43572209 373.96296447 -256.4356286 373.17194238 C-256.43446618 361.61868709 -256.44108382 350.06545317 -256.45171547 338.51220322 C-256.46380629 325.36037353 -256.46528201 312.20859067 -256.4529253 299.05676024 C-256.44690852 292.35417652 -256.44588778 285.65169537 -256.4579277 278.94911194 C-256.46884635 272.79895632 -256.46561255 266.64896767 -256.45166602 260.49881966 C-256.44903545 258.28830072 -256.45133324 256.07776843 -256.45940188 253.86726265 C-256.52356505 234.95823459 -255.05790881 216.20893614 -250.38589478 197.82319641 C-250.13170776 196.80008362 -249.87752075 195.77697083 -249.6156311 194.72285461 C-241.34694749 162.39801872 -227.82679398 132.20639617 -208.07339478 105.26069641 C-207.44135132 104.39323792 -207.44135132 104.39323792 -206.79653931 103.508255 C-201.47808636 96.25846225 -195.75359676 89.52948847 -189.60464478 82.97944641 C-187.4652396 80.68156678 -185.41320487 78.34410834 -183.38589478 75.94819641 C-180.55343584 72.68617024 -177.50066628 69.87006229 -174.20230103 67.08491516 C-172.76287261 65.85149669 -171.35407357 64.58156075 -169.97573853 63.28022766 C-156.90933099 50.97584046 -141.59809671 41.15908243 -126.07339478 32.26069641 C-125.32509399 31.83159973 -124.57679321 31.40250305 -123.80581665 30.96040344 C-100.76555811 17.92498724 -75.53749622 9.25002219 -49.63589478 3.94819641 C-48.91700073 3.80084045 -48.19810669 3.6534845 -47.45742798 3.50166321 C-31.6436533 0.49597193 -16.0529402 -0.03015937 0 0 Z " fill="#FEFEFE" transform="translate(256.0733947753906,-0.2606964111328125)"/><path d="M0 0 C13.25014754 11.70429699 13.25014754 11.70429699 18.265625 18.65234375 C19.662103 18.19597839 21.0577758 17.73714887 22.453125 17.27734375 C23.23042969 17.02210938 24.00773437 16.766875 24.80859375 16.50390625 C27.24847979 15.70310607 27.24847979 15.70310607 29.4375 14.65234375 C56.46323652 5.09628222 88.47026606 10.40729367 113.72265625 22.27734375 C139.03221432 35.24736639 159.08297234 57.77686488 168.00976562 84.91455078 C168.22310547 85.63368652 168.43644531 86.35282227 168.65625 87.09375 C168.96212036 88.12447632 168.96212036 88.12447632 169.27416992 89.17602539 C169.79159511 91.02201786 170.25158875 92.88383997 170.70703125 94.74609375 C172.6788511 98.42287061 174.22633574 98.86306921 178.08764648 100.03857422 C178.80637939 100.24111816 179.5251123 100.44366211 180.265625 100.65234375 C181.5560899 101.10594611 182.84273949 101.57057389 184.125 102.046875 C184.75937988 102.27665039 185.39375977 102.50642578 186.04736328 102.74316406 C208.64124474 111.02740043 228.3882178 123.83386878 241.265625 144.65234375 C242.23242188 146.13541016 242.23242188 146.13541016 243.21875 147.6484375 C253.95868381 165.04958979 258.66980159 184.58734185 258.578125 204.90234375 C258.57321045 206.18705566 258.5682959 207.47176758 258.56323242 208.79541016 C258.45186913 217.7992748 257.84354624 225.9830441 255.265625 234.65234375 C254.75515625 236.48152344 254.75515625 236.48152344 254.234375 238.34765625 C245.55854014 266.89584258 225.8006385 288.66393125 199.890625 302.90234375 C181.65334779 312.56375846 162.70675746 314.80027337 142.35430908 314.8062439 C140.8558045 314.81026626 139.35730098 314.81470575 137.85879874 314.81952345 C133.76229205 314.83140843 129.66579708 314.83711847 125.56927657 314.84170461 C121.14226126 314.84769151 116.71525973 314.8592934 112.28825378 314.86999512 C101.6077635 314.89444756 90.92726868 314.90913512 80.24675906 314.92205518 C77.22614203 314.92577215 74.20552545 314.92974496 71.18490887 314.93380785 C52.39457979 314.95904789 33.6042499 314.98108318 14.81390762 314.993536 C10.4675725 314.99646529 6.12123741 314.99942701 1.77490234 315.00244141 C0.6947538 315.00318746 -0.38539475 315.00393351 -1.49827507 315.00470217 C-18.97801409 315.01734344 -36.45765111 315.05055465 -53.93734249 315.09224324 C-71.91626326 315.13476821 -89.89513194 315.15824311 -107.87410283 315.16345656 C-117.95528981 315.16685854 -128.03631732 315.17847003 -138.11745453 315.2115593 C-146.70650307 315.23970641 -155.29535941 315.25049527 -163.88445047 315.23936383 C-168.25792462 315.2342146 -172.6309972 315.23681723 -177.0044117 315.26182938 C-195.156522 315.35995729 -212.1975492 314.99947098 -229.734375 309.65234375 C-230.61616283 309.39728585 -231.49795066 309.14222795 -232.40645933 308.87944102 C-257.04742452 301.69976027 -279.34207202 281.2888309 -291.76953125 259.2734375 C-305.58160101 234.07051116 -309.48676842 205.68624279 -302.734375 177.65234375 C-294.85492579 151.9850727 -279.74525213 130.07037093 -257.734375 114.65234375 C-256.71601563 113.92917969 -255.69765625 113.20601562 -254.6484375 112.4609375 C-243.92494891 105.3434583 -232.00502758 102.1166177 -219.734375 98.65234375 C-219.63415039 97.88269287 -219.53392578 97.11304199 -219.43066406 96.32006836 C-215.72621719 68.23221296 -215.72621719 68.23221296 -211.734375 55.65234375 C-211.46238281 54.66363281 -211.19039063 53.67492187 -210.91015625 52.65625 C-205.74621748 35.06147221 -194.15020651 19.79974782 -181.734375 6.65234375 C-181.00992188 5.85183594 -180.28546875 5.05132812 -179.5390625 4.2265625 C-132.61050707 -45.64497013 -49.94820279 -42.88409982 0 0 Z " fill="#DADADA" transform="translate(640.734375,369.34765625)"/><path d="M0 0 C7.39468466 3.34640814 13.83276341 8.34539175 20.390625 13.0625 C24.71164109 16.16123295 29.11529643 19.1173226 33.5546875 22.04296875 C40.58745743 26.68895759 47.52100751 31.4645976 54.4296875 36.29296875 C57.33105954 38.31236425 60.23339916 40.33035907 63.13623047 42.34765625 C64.96334006 43.62002203 66.78799293 44.89592479 68.60986328 46.17578125 C71.06163718 47.89495339 73.52500782 49.59601044 75.9921875 51.29296875 C77.07113281 52.05867188 77.07113281 52.05867188 78.171875 52.83984375 C78.84605469 53.29875 79.52023437 53.75765625 80.21484375 54.23046875 C80.79113525 54.63136719 81.36742676 55.03226563 81.96118164 55.4453125 C84.77626647 56.65751324 86.89271269 56.59548321 89.9296875 56.29296875 C92.43923121 55.17106001 92.43923121 55.17106001 94.78125 53.4609375 C95.69986816 52.83735352 96.61848633 52.21376953 97.56494141 51.57128906 C98.55155762 50.88131836 99.53817383 50.19134766 100.5546875 49.48046875 C102.16306899 48.38188124 103.77145891 47.28330595 105.38021851 46.18527222 C107.08237815 45.02010766 108.77997837 43.84855863 110.4765625 42.67529297 C115.57003388 39.15555613 120.6994232 35.68878249 125.82492065 32.21594238 C127.5595289 31.03968574 129.29275979 29.86142552 131.02563477 28.68261719 C143.7184086 20.05231085 156.4968318 11.55073511 169.27954102 3.05444336 C171.16384385 1.80200255 173.04711874 0.54801459 174.9296875 -0.70703125 C179.5928909 -1.47090838 183.09972822 -1.13738051 187.3046875 1.04296875 C197.93387673 10.15370237 198.20756934 29.87213727 200.34765625 43.0546875 C200.65282865 44.90324119 200.95861149 46.7516942 201.26496887 48.60005188 C202.06103058 53.41222596 202.84941966 58.22562375 203.63592529 63.03936768 C204.59659996 68.91026564 205.56624008 74.77968837 206.53475666 80.64929676 C207.28700738 85.20906954 208.03788901 89.76905276 208.7844696 94.32975769 C208.92150299 95.16515076 209.05853638 96.00054382 209.19972229 96.86125183 C209.45426586 98.41333695 209.70815542 99.96552953 209.96124268 101.51785278 C210.55345151 105.124307 211.18389827 108.71493433 211.9296875 112.29296875 C212.9009407 112.4616748 212.9009407 112.4616748 213.89181519 112.63378906 C221.1591579 113.92236106 228.36034369 115.43215368 235.5625 117.04296875 C236.72095428 117.30174805 237.87940857 117.56052734 239.07296753 117.82714844 C241.49848903 118.37040824 243.92370763 118.91502209 246.34863281 119.4609375 C250.0771147 120.29800379 253.80803581 121.12357991 257.5390625 121.94921875 C259.90120087 122.47976042 262.26318586 123.01098554 264.625 123.54296875 C265.74464142 123.78885742 266.86428284 124.03474609 268.01785278 124.28808594 C269.0433725 124.52172852 270.06889221 124.75537109 271.12548828 124.99609375 C272.03162872 125.19879883 272.93776917 125.40150391 273.87136841 125.61035156 C274.89023636 125.94824707 274.89023636 125.94824707 275.9296875 126.29296875 C276.2596875 126.95296875 276.5896875 127.61296875 276.9296875 128.29296875 C271.31265631 129.83968748 265.7698618 130.79668763 259.99975586 131.58422852 C234.30234011 135.1348899 209.28972608 143.24610398 187.43041992 157.5637207 C184.29833652 159.60539266 181.72030487 161.15985342 177.9296875 161.29296875 C176.078125 160.2109375 176.078125 160.2109375 174.3046875 158.48046875 C173.61632812 157.83335937 172.92796875 157.18625 172.21875 156.51953125 C171.46335937 155.78476562 170.70796875 155.05 169.9296875 154.29296875 C158.20663571 142.88836127 158.20663571 142.88836127 143.9296875 135.29296875 C143.9296875 134.63296875 143.9296875 133.97296875 143.9296875 133.29296875 C143.08148438 133.02226562 142.23328125 132.7515625 141.359375 132.47265625 C137.84900824 131.26521803 134.47400651 129.86201376 131.0546875 128.41796875 C101.91773348 116.45937217 68.89190172 117.22036178 39.9296875 129.29296875 C29.38288362 134.06829259 19.5395318 139.48118489 10.9296875 147.29296875 C9.67478516 148.35451172 9.67478516 148.35451172 8.39453125 149.4375 C-9.46095758 164.81530411 -21.1422365 186.40427451 -26.0703125 209.29296875 C-26.33521484 210.47741577 -26.33521484 210.47741577 -26.60546875 211.68579102 C-33.02392152 242.88119069 -26.36452036 275.7824346 -9.0703125 302.29296875 C3.37878429 319.69063699 19.64247188 331.72535644 37.9296875 342.29296875 C36.6360754 346.76276666 35.31507454 351.20746191 33.7578125 355.59375 C23.26623381 385.22274538 22.06256055 416.76963452 29.54931641 447.29174805 C29.9296875 449.29296875 29.9296875 449.29296875 29.9296875 453.29296875 C27.83203125 455.1171875 27.83203125 455.1171875 24.8671875 456.98046875 C23.77921875 457.66882813 22.69125 458.3571875 21.5703125 459.06640625 C20.35743367 459.80967646 19.14386529 460.55182237 17.9296875 461.29296875 C17.29353516 461.68774414 16.65738281 462.08251953 16.00195312 462.48925781 C14.04540038 463.70309924 12.08306711 464.90679777 10.1171875 466.10546875 C9.5080249 466.47824951 8.8988623 466.85103027 8.27124023 467.23510742 C-3.50858863 474.29149195 -3.50858863 474.29149195 -10.0703125 473.29296875 C-15.98544832 469.91289114 -18.26698327 463.98924443 -20.14038086 457.70141602 C-23.27317539 443.00420778 -25.76719162 428.19482765 -28.26928711 413.37994385 C-28.87380361 409.8055218 -29.48289619 406.23188048 -30.09179688 402.65820312 C-30.33076957 401.25501674 -30.56973247 399.85182868 -30.8086853 398.44863892 C-30.92529888 397.76393147 -31.04191246 397.07922401 -31.16205978 396.37376785 C-31.50781664 394.34322857 -31.85338181 392.31265676 -32.19888306 390.28207397 C-32.82225218 386.61896369 -33.44620576 382.95595343 -34.0703125 379.29296875 C-34.23907898 378.3003302 -34.40784546 377.30769165 -34.58172607 376.28497314 C-35.000286 373.83000189 -35.42293463 371.37578641 -35.84765625 368.921875 C-36.17431274 367.02223999 -36.17431274 367.02223999 -36.50756836 365.08422852 C-36.93173161 362.35211002 -36.93173161 362.35211002 -38.0703125 360.29296875 C-40.78301364 359.64350878 -43.43671315 359.12326059 -46.18359375 358.6640625 C-47.46888222 358.43852692 -47.46888222 358.43852692 -48.78013611 358.20843506 C-51.64633773 357.70760213 -54.51453592 357.21926573 -57.3828125 356.73046875 C-59.38458923 356.38212216 -61.38621459 356.03290467 -63.38769531 355.68286133 C-73.49911971 353.91969158 -83.6176537 352.19827941 -93.73674011 350.47972107 C-98.45044226 349.67828099 -103.16337065 348.87233554 -107.87631226 348.06643677 C-111.27241682 347.4886178 -114.66992678 346.91966851 -118.06762695 346.35131836 C-120.17795392 345.99235839 -122.2882268 345.63308034 -124.3984375 345.2734375 C-125.34669907 345.1174408 -126.29496063 344.96144409 -127.2719574 344.80072021 C-142.7476869 342.13558653 -142.7476869 342.13558653 -147.1328125 337.66796875 C-149.72350978 333.15514122 -150.20516292 330.36993114 -149.0703125 325.29296875 C-145.08513445 314.62992478 -138.31887369 305.66571583 -131.68066406 296.53466797 C-128.99232997 292.79235693 -126.40911447 288.97949348 -123.8203125 285.16796875 C-118.14637436 276.83711081 -112.39987017 268.55825249 -106.62597656 260.29638672 C-103.61427003 255.9803197 -100.61375279 251.6568745 -97.66015625 247.30078125 C-97.18312256 246.59840332 -96.70608887 245.89602539 -96.21459961 245.17236328 C-94.91219095 243.19070438 -94.91219095 243.19070438 -94.0703125 240.29296875 C-93.4103125 240.29296875 -92.7503125 240.29296875 -92.0703125 240.29296875 C-93.04626893 232.93290783 -95.06216549 227.8512016 -99.3828125 221.85546875 C-99.91334229 221.09032959 -100.44387207 220.32519043 -100.99047852 219.53686523 C-102.10918317 217.92496644 -103.23454065 216.31766632 -104.36621094 214.71484375 C-106.5773019 211.57243367 -108.73742156 208.39668353 -110.8984375 205.21972656 C-114.1336227 200.46706675 -117.39338647 195.73119226 -120.65136719 190.99414062 C-127.43262002 181.13280474 -134.15683745 171.23434182 -140.8203125 161.29296875 C-141.52454346 160.24729736 -142.22877441 159.20162598 -142.9543457 158.12426758 C-143.6062085 157.14868896 -144.25807129 156.17311035 -144.9296875 155.16796875 C-145.51202148 154.29914063 -146.09435547 153.4303125 -146.69433594 152.53515625 C-149.62646304 147.75718334 -149.83863373 142.74979567 -149.0703125 137.29296875 C-143.34122999 129.37335469 -134.38951382 128.36353115 -125.37109375 126.8046875 C-124.11878464 126.58077332 -122.86647552 126.35685913 -121.57621765 126.12615967 C-118.20773654 125.52416349 -114.83733097 124.93368583 -111.46643066 124.34540939 C-107.99134098 123.7367559 -104.51827259 123.11677565 -101.04492188 122.49829102 C-89.17968627 120.38977771 -77.30799134 118.31944838 -65.42578125 116.30859375 C-64.59621414 116.16794998 -63.76664703 116.02730621 -62.91194153 115.88240051 C-59.2297285 115.2594541 -55.54658556 114.64390576 -51.8605957 114.04370117 C-50.60980225 113.83592041 -49.35900879 113.62813965 -48.0703125 113.4140625 C-46.4925 113.15774048 -46.4925 113.15774048 -44.8828125 112.89624023 C-43.9546875 112.69716064 -43.0265625 112.49808105 -42.0703125 112.29296875 C-41.16120117 112.10847168 -40.25208984 111.92397461 -39.31542969 111.73388672 C-36.69010674 110.38189836 -36.69010674 110.38189836 -35.91113281 106.77612305 C-35.63361469 105.22713636 -35.38137464 103.67350249 -35.1484375 102.1171875 C-35.00241592 101.26447769 -34.85639435 100.41176788 -34.70594788 99.53321838 C-34.22335099 96.6853507 -33.77252734 93.83330446 -33.3203125 90.98046875 C-32.98563845 88.98561176 -32.6485987 86.99115037 -32.30932617 84.99707031 C-30.99929231 77.24770648 -29.74798228 69.48902929 -28.49493408 61.73028564 C-27.32756378 54.50473537 -26.14905838 47.28118758 -24.95666504 40.0597229 C-24.39087504 36.59237863 -23.84663644 33.1221103 -23.30371094 29.65112305 C-22.95203807 27.49513848 -22.59953905 25.33928846 -22.24609375 23.18359375 C-22.02760521 21.72839073 -22.02760521 21.72839073 -21.80470276 20.24378967 C-20.51263549 12.56682447 -18.10840465 6.00083349 -12.1953125 0.73046875 C-7.76135643 -1.30915104 -4.6766162 -1.59710855 0 0 Z " fill="#FED54F" transform="translate(273.0703125,167.70703125)"/><path d="M0 0 C1.12083984 -0.020625 2.24167969 -0.04125 3.39648438 -0.0625 C10.85497862 -0.09713027 17.25135882 0.86040006 24.3125 3.25 C25.34443481 3.59466309 25.34443481 3.59466309 26.3972168 3.94628906 C40.72933557 8.9904817 55.81149876 17.18699574 64.3125 30.25 C64.49591056 35.26044295 60.86587835 38.92190579 57.9375 42.6875 C54.56971957 47.05947537 51.61215132 51.18920271 49.3125 56.25 C48.6525 56.25 47.9925 56.25 47.3125 56.25 C46.9825 57.9 46.6525 59.55 46.3125 61.25 C45.6525 61.25 44.9925 61.25 44.3125 61.25 C43.3225 64.22 42.3325 67.19 41.3125 70.25 C40.6525 70.25 39.9925 70.25 39.3125 70.25 C38.92191406 71.72339844 38.92191406 71.72339844 38.5234375 73.2265625 C37.52437501 76.72591496 36.23356859 80.0403399 34.85083008 83.40332031 C31.71717566 91.02594934 29.25884011 98.48235787 27.73095703 106.59130859 C26.61231315 112.16262066 24.99543213 116.30551024 20.27856445 119.72412109 C17.73974943 121.31733719 15.16239126 122.82113075 12.5625 124.3125 C-0.550782 132.14208336 -12.48846665 141.05300015 -22.62133789 152.55688477 C-24.97388676 155.10087463 -26.72892552 156.26361538 -30.0390625 157.3515625 C-34.89640135 157.2163475 -37.5497088 155.55030924 -41.5 152.875 C-42.20068604 152.41673828 -42.90137207 151.95847656 -43.62329102 151.48632812 C-49.47511518 147.5756725 -54.74121689 143.26558305 -59.6875 138.25 C-60.45449219 137.49332031 -61.22148437 136.73664063 -62.01171875 135.95703125 C-76.64227426 120.73032407 -83.05544056 102.19847282 -83 81.375 C-83.01611328 80.17230469 -83.03222656 78.96960938 -83.04882812 77.73046875 C-83.05298113 70.0806377 -82.13115862 63.49474673 -79.6875 56.25 C-79.31109375 55.0846875 -78.9346875 53.919375 -78.546875 52.71875 C-71.0396708 32.62904861 -56.56716507 16.57953883 -37.125 7.375 C-24.91067501 1.83686637 -13.30492044 0.06016923 0 0 Z " fill="#F16461" transform="translate(361.6875,321.75)"/><path d="M0 0 C1.2919299 0.71304593 2.56609722 1.4600649 3.8125 2.25 C4.864375 2.848125 5.91625 3.44625 7 4.0625 C13.9650042 9.47972549 17.99377596 15.53231719 19.8125 24.25 C21.10196981 35.17043973 20.18693964 44.46084209 14.8125 54.25 C14.1525 54.25 13.4925 54.25 12.8125 54.25 C12.4825 55.9 12.1525 57.55 11.8125 59.25 C11.1525 59.25 10.4925 59.25 9.8125 59.25 C9.46288208 60.26622437 9.46288208 60.26622437 9.10620117 61.30297852 C7.50228246 64.95666842 5.36304869 68.12698446 3.11328125 71.40234375 C2.64593567 72.09100525 2.17859009 72.77966675 1.69708252 73.48919678 C0.17788799 75.72529906 -1.34814343 77.95662388 -2.875 80.1875 C-3.92419771 81.72547075 -4.97310581 83.2636391 -6.02172852 84.80200195 C-7.59519708 87.11006947 -9.16910665 89.41782374 -10.74510193 91.72416687 C-13.78457486 96.1754456 -16.7913572 100.64551673 -19.765625 105.140625 C-20.76009644 106.63348022 -20.76009644 106.63348022 -21.7746582 108.15649414 C-22.96412826 109.94423044 -24.14565105 111.73729393 -25.31713867 113.53686523 C-31.39995499 122.61469457 -38.30886606 128.90199344 -49.1875 131.25 C-60.38041862 132.4740283 -68.77524044 130.57364525 -77.9375 124.125 C-84.61301521 118.60736177 -89.19631871 110.90734904 -90.1875 102.25 C-91.3253064 89.609682 -87.29471448 80.08319716 -80.19921875 69.796875 C-79.62354156 68.94164246 -79.04786438 68.08640991 -78.45474243 67.20526123 C-76.60555156 64.46274099 -74.74064637 61.73134584 -72.875 59 C-70.95878412 56.16952436 -69.04617408 53.33663431 -67.13365173 50.50366211 C-65.87861957 48.64543815 -64.62217284 46.78816874 -63.36427307 44.93188477 C-59.95878143 39.90170913 -56.5936207 34.85158823 -53.3203125 29.734375 C-52.65427002 28.69442383 -51.98822754 27.65447266 -51.30200195 26.58300781 C-50.15814146 24.78469361 -49.02050177 22.9823953 -47.89135742 21.17480469 C-37.17693438 4.39189952 -20.65797791 -8.72380824 0 0 Z " fill="#B4E3FB" transform="translate(835.1875,724.75)"/><path d="M0 0 C3.68792097 2.77489199 6.86419555 5.42785915 9.4140625 9.31640625 C9.4140625 9.97640625 9.4140625 10.63640625 9.4140625 11.31640625 C10.0740625 11.31640625 10.7340625 11.31640625 11.4140625 11.31640625 C15.75921731 19.82566775 15.69851496 30.19996594 13.7578125 39.44140625 C9.47811789 52.1329144 0.79503115 63.4137615 -6.7109375 74.37890625 C-7.64694851 75.75191048 -8.58265531 77.12512214 -9.51806641 78.49853516 C-11.36080112 81.20281286 -13.20580361 83.9055201 -15.05273438 86.60693359 C-17.24396933 89.81309625 -19.42487984 93.02612198 -21.6015625 96.2421875 C-22.72120372 97.89202919 -23.84098154 99.5417782 -24.9609375 101.19140625 C-25.68047607 102.25693726 -25.68047607 102.25693726 -26.41455078 103.34399414 C-41.30652515 125.182225 -41.30652515 125.182225 -51.72265625 127.8671875 C-62.38509255 129.54001175 -72.48278157 129.61153222 -81.5859375 123.31640625 C-82.4934375 122.75953125 -83.4009375 122.20265625 -84.3359375 121.62890625 C-91.44845992 114.31881377 -95.46269434 104.48887079 -95.9609375 94.31640625 C-94.96601029 75.41278928 -80.35781545 58.75998148 -70.1484375 43.75390625 C-68.8634851 41.85642255 -67.57897729 39.95863769 -66.29492188 38.06054688 C-39.75621075 -1.13335186 -39.75621075 -1.13335186 -26.5703125 -5.32421875 C-16.99314059 -7.05866721 -8.14973385 -5.30594454 0 0 Z " fill="#B4E3FB" transform="translate(582.5859375,727.68359375)"/><path d="M0 0 C6.15696058 5.68747557 10.54558545 13.48102032 11.24609375 21.9140625 C11.54103119 38.77465304 2.42862542 51.77313806 -6.78100586 65.20117188 C-9.49857574 69.17806037 -11.92662856 73.08113324 -13.95703125 77.46875 C-14.61703125 77.46875 -15.27703125 77.46875 -15.95703125 77.46875 C-16.21734131 78.18264893 -16.47765137 78.89654785 -16.74584961 79.63208008 C-18.98055229 84.86590602 -22.36980498 89.43597528 -25.51953125 94.15625 C-26.19822266 95.19458984 -26.87691406 96.23292969 -27.57617188 97.30273438 C-34.60311405 107.86632794 -42.028939 116.82507388 -52.95703125 123.46875 C-53.87162109 124.04689453 -53.87162109 124.04689453 -54.8046875 124.63671875 C-63.03945672 127.82003244 -74.03955126 125.59848326 -81.95703125 122.46875 C-81.95703125 121.80875 -81.95703125 121.14875 -81.95703125 120.46875 C-82.63765625 120.30375 -83.31828125 120.13875 -84.01953125 119.96875 C-91.01494752 116.39662254 -94.57414479 110.01225749 -97.23046875 102.86328125 C-100.56533045 91.87258114 -99.05960554 82.13353921 -94.26953125 71.84375 C-93.83640625 71.06 -93.40328125 70.27625 -92.95703125 69.46875 C-92.29703125 69.46875 -91.63703125 69.46875 -90.95703125 69.46875 C-90.68269257 68.73319885 -90.40835388 67.99764771 -90.1257019 67.23980713 C-89.02914215 64.63973353 -87.80856794 62.48159891 -86.25830078 60.13183594 C-85.71658234 59.30617126 -85.17486389 58.48050659 -84.61672974 57.62982178 C-84.03035736 56.74651184 -83.44398499 55.8632019 -82.83984375 54.953125 C-82.22744843 54.02389221 -81.6150531 53.09465942 -80.98410034 52.13726807 C-79.68328831 50.16560854 -78.38026238 48.19540814 -77.07519531 46.2265625 C-75.11890172 43.27438991 -73.17019161 40.31733053 -71.22265625 37.359375 C-65.33908743 28.44280673 -59.4059307 19.56417989 -53.2734375 10.81640625 C-52.79452057 10.12935608 -52.31560364 9.44230591 -51.82217407 8.73443604 C-45.594535 -0.06410341 -38.82203602 -5.17174857 -28.45703125 -8.28125 C-17.45415869 -9.38153726 -8.78906771 -6.87687533 0 0 Z " fill="#B4E3FB" transform="translate(714.95703125,730.53125)"/><path d="M0 0 C0.78914795 0.0009668 1.5782959 0.00193359 2.39135742 0.00292969 C9.50314571 0.21541738 14.50972876 2.34171232 20.25 6.5625 C21.178125 7.14 22.10625 7.7175 23.0625 8.3125 C30.35719894 15.81561891 33.80833064 25.03728296 33.81347656 35.4050293 C33.2839075 49.74637853 23.74719491 61.84580715 15.87792969 73.18554688 C13.08819341 77.25886308 10.42576177 81.41382714 7.75 85.5625 C6.66210974 87.23740245 5.57356986 88.91188314 4.484375 90.5859375 C2.87052843 93.06691101 1.25868781 95.54903231 -0.34570312 98.03613281 C-19.14882529 127.14951712 -19.14882529 127.14951712 -34.75 133.5625 C-37.5332662 133.99587567 -40.24955788 134.03754344 -43.0625 134 C-43.81072021 133.99677734 -44.55894043 133.99355469 -45.32983398 133.99023438 C-51.28003764 133.8403324 -55.55909342 132.58266383 -60.75 129.5625 C-60.75 128.9025 -60.75 128.2425 -60.75 127.5625 C-61.3378125 127.3046875 -61.925625 127.046875 -62.53125 126.78125 C-68.67397653 123.40707627 -72.79296028 116.93006648 -75.08984375 110.45703125 C-77.905429 98.11177286 -75.43771767 86.17940119 -68.84008789 75.46264648 C-67.73164588 73.77698229 -66.60857466 72.10086603 -65.47265625 70.43359375 C-64.86546249 69.51900894 -64.25826874 68.60442413 -63.63267517 67.66212463 C-61.70536018 64.76599659 -59.75933902 61.88302921 -57.8125 59 C-56.54238294 57.09652785 -55.27349411 55.19223555 -54.00585938 53.28710938 C-46.44671105 41.9503961 -38.76756304 30.69584967 -31.04701233 19.46861267 C-29.85449316 17.71606503 -28.69087097 15.94770721 -27.53271484 14.17236328 C-25.60194299 11.34574714 -23.61910915 9.49072628 -20.9375 7.375 C-20.12667969 6.72144531 -19.31585938 6.06789063 -18.48046875 5.39453125 C-12.42893561 1.33420358 -7.13727917 -0.02128942 0 0 Z " fill="#B4E3FB" transform="translate(434.75,722.4375)"/></svg>
