<svg viewBox="0 0 1024 1024" version="1.1" xmlns="http://www.w3.org/2000/svg" xmlns:xlink="http://www.w3.org/1999/xlink" width="200" height="200"><path d="M244.224 643.84c0 59.221333-45.098667 107.264-100.778667 107.264C87.808 751.104 42.666667 703.061333 42.666667 643.84c0-59.221333 45.141333-107.264 100.778666-107.264h100.778667v107.264zM294.613333 643.84c0-59.306667 45.141333-107.306667 100.821334-107.306667 55.637333 0 100.778667 48.042667 100.778666 107.264v268.288c0 59.264-45.141333 107.306667-100.778666 107.306667-55.68 0-100.821333-48.042667-100.821334-107.306667v-268.288z" fill="#E01E5A"></path><path d="M395.392 214.613333c-55.637333 0-100.778667-48.042667-100.778667-107.306666C294.613333 48.042667 339.754667 0 395.392 0c55.68 0 100.821333 48.042667 100.821333 107.306667V214.613333H395.392zM395.392 268.245333c55.68 0 100.821333 48.085333 100.821333 107.306667 0 59.306667-45.141333 107.306667-100.821333 107.306667H143.445333C87.808 482.858667 42.666667 434.816 42.666667 375.552c0-59.221333 45.141333-107.306667 100.778666-107.306667h251.946667z" fill="#36C5F0"></path><path d="M798.549333 375.552c0-59.221333 45.098667-107.306667 100.778667-107.306667 55.637333 0 100.778667 48.085333 100.778667 107.306667 0 59.306667-45.141333 107.306667-100.778667 107.306667h-100.778667V375.552zM748.16 375.552c0 59.306667-45.141333 107.306667-100.821333 107.306667-55.637333 0-100.778667-48.042667-100.778667-107.306667V107.306667C546.56 48.042667 591.701333 0 647.338667 0c55.68 0 100.821333 48.042667 100.821333 107.306667v268.245333z" fill="#2EB67D"></path><path d="M647.381333 804.778667c55.637333 0 100.778667 48.042667 100.778667 107.306666 0 59.264-45.141333 107.306667-100.778667 107.306667-55.68 0-100.821333-48.042667-100.821333-107.306667v-107.306666h100.821333zM647.381333 751.104c-55.68 0-100.821333-48.042667-100.821333-107.306667 0-59.221333 45.141333-107.306667 100.821333-107.306666h251.904c55.68 0 100.778667 48.085333 100.778667 107.306666 0 59.306667-45.098667 107.306667-100.778667 107.306667h-251.904z" fill="#ECB22E"></path></svg>