<svg viewBox="0 0 1024 1024" version="1.1" xmlns="http://www.w3.org/2000/svg" width="200" height="200"><path d="M679.424 746.862l84.005-395.996c7.424-34.852-12.581-48.567-35.438-40.009L234.277 501.138c-33.72 13.13-33.134 32-5.706 40.558l126.282 39.424 293.156-184.576c13.714-9.143 26.295-3.986 16.018 5.157L426.898 615.973l-9.143 130.304c13.13 0 18.871-5.706 25.71-12.581l61.696-59.429 128 94.282c23.442 13.129 40.01 6.29 46.3-21.724zM1024 512c0 282.843-229.157 512-512 512S0 794.843 0 512 229.157 0 512 0s512 229.157 512 512z" fill="#1296DB"></path></svg>
