<svg viewBox="0 0 1024 1024" version="1.1" xmlns="http://www.w3.org/2000/svg" p-id="17958" width="200" height="200"><path d="M512 170.666667c130.474667 0 240.938667 83.797333 277.930667 199.296a198.826667 198.826667 0 0 0-41.557334-0.597334 222.293333 222.293333 0 0 0-49.706666 10.624C668.202667 309.333333 596.096 259.754667 512 259.754667c-100.266667 0-183.466667 70.528-199.381333 163.029333a279.04 279.04 0 0 0-89.429334-3.84C241.28 278.954667 363.690667 170.666667 512 170.666667z" fill="#006DFE" p-id="17959"></path><path d="M258.474667 417.322667c54.442667 0 104.192 20.181333 142.165333 53.418666 16.085333 14.08 45.226667 39.68 87.381333 76.8l-7.381333-6.528-61.568 60.885334-54.4-54.4c-34.218667-34.261333-66.090667-47.957333-106.197333-47.957334a133.589333 133.589333 0 0 0 0 267.221334c10.666667 0 29.312 0.768 56.064 2.346666l-90.453334 77.141334A215.893333 215.893333 0 0 1 258.432 417.28z" fill="#00CDD8" p-id="17960"></path><path d="M674.346667 434.474667a215.808 215.808 0 0 1 168.618666 397.354666c-15.36 6.485333-38.186667 15.957333-63.146666 16.213334-72.106667 0.597333-244.181333 0.896-516.352 0.938666h-42.666667a206248.106667 206248.106667 0 0 0 397.013333-380.714666c18.261333-17.578667 41.130667-27.264 56.533334-33.792z m41.856 80.554666c-9.258667 3.925333-23.04 9.770667-34.048 20.352-30.165333 29.098667-109.952 105.642667-239.445334 229.632h53.418667c148.181333 0 242.773333-0.213333 283.733333-0.554666 15.061333-0.128 28.842667-5.845333 38.101334-9.813334a130.133333 130.133333 0 0 0-101.76-239.616z" fill="#00A2FF" p-id="17961"></path></svg>
