<svg viewBox="0 0 1024 1024" version="1.1" xmlns="http://www.w3.org/2000/svg" width="200" height="200"><path d="M912.192 1024H111.808A111.808 111.808 0 0 1 0 912.192V111.808C0 50.048 50.048 0 111.808 0h800.384C973.952 0 1024 50.048 1024 111.808v800.384c0 61.76-50.048 111.808-111.808 111.808" fill="#3860F4"></path><path d="M822.208 435.2c0 64.128 0.128 128.32 0 192.448-0.256 134.592-81.216 229.376-214.336 252.416a462.08 462.08 0 0 1-187.136-5.632c-110.528-26.048-187.392-117.76-189.632-230.912-1.536-79.04 0.64-158.144-1.024-237.184-0.512-24.576 9.728-30.272 30.144-26.88 30.336 5.056 42.56-6.848 37.248-37.248-4.288-24.704 7.68-33.408 30.912-29.952 25.984 3.968 38.848-5.056 34.24-33.152-3.008-18.432 3.712-26.304 24.128-26.368 20.416-0.064 24.576 7.68 24.448 26.24-0.64 120.32-0.384 240.64-0.192 360.96 0 30.016 2.304 59.84 19.968 85.568 24 35.008 78.464 50.688 131.072 36.736 42.368-11.2 69.312-37.696 76.16-82.88 5.824-37.76 3.328-75.52 3.456-113.216 0.448-116.864 0.896-233.728-0.384-350.592-0.256-24.32 6.72-31.488 30.72-30.4 41.088 1.92 82.368 1.6 123.52 0.064 20.736-0.704 27.648 4.736 27.2 26.56-1.344 74.432-0.512 148.928-0.512 223.36" fill="#FFFFFF"></path><path d="M249.152 318.976c16.768-2.304 24 2.88 24.064 19.84 0 16.768-4.032 24.448-22.528 24.128-16.768-0.256-21.12-7.168-20.672-22.4 0.384-14.528 2.304-25.472 19.2-21.568M384.64 227.904c-15.808 2.304-22.784-3.392-22.656-20.352 0.128-15.488 3.84-22.656 20.928-22.4 15.168 0.32 22.912 3.52 22.4 20.8-0.448 14.976-3.072 24.832-20.736 21.952M317.76 253.44c16-2.368 22.72 3.648 22.72 20.672s-7.04 21.504-22.656 21.248c-14.272-0.192-20.8-4.48-20.864-19.648-0.128-15.168 3.008-25.088 20.8-22.272M319.36 192.64c13.312-1.536 21.056 1.984 20.928 18.112-0.128 16.896-9.856 17.28-22.208 17.6-13.504 0.32-21.12-2.88-21.056-18.752 0-17.024 9.856-17.92 22.4-16.96M272.192 272.896c2.176 15.36-7.424 15.744-18.944 16.192-14.976 0.64-16.128-7.552-16.448-19.328-0.384-14.848 7.68-16.192 19.52-16.512 14.912-0.448 17.216 7.68 15.872 19.648M190.848 288.896c-12.288 1.664-15.616-4.992-15.168-16 0.32-8.64 1.728-15.616 12.608-16 10.816-0.32 17.152 3.392 17.472 15.232 0.256 10.624-2.24 17.92-14.912 16.768M333.888 150.016c0.128 10.368-6.144 13.44-15.296 13.312-10.432-0.128-17.728-4.032-17.024-15.744 0.64-11.52 9.664-10.304 17.472-10.56 8.96-0.32 15.744 1.92 14.848 12.992M252.8 220.928c-8.64 0.448-15.616-1.152-15.616-12.096 0-8.192 0.128-15.808 11.52-16.128 9.728-0.256 17.6 0.64 17.28 13.696-0.256 9.28-2.816 15.04-13.184 14.528M266.112 150.272c-0.32 7.68-3.712 12.544-12.032 12.032-8.32-0.512-10.88-5.952-11.008-13.44-0.064-8.32 4.352-11.52 12.288-11.392 8.576 0.192 11.328 4.992 10.752 12.8M186.496 198.336c6.976 0 13.376 1.024 14.208 9.856 0.768 8.064-3.2 12.352-11.008 12.992-7.168 0.512-13.248-0.64-13.632-9.792-0.384-7.424 1.28-13.184 10.432-13.056M191.36 143.552c2.752 2.432 6.784 4.288 6.784 6.208 0 5.504-4.48 7.68-9.216 6.336-2.24-0.64-3.584-4.48-5.312-6.912l7.68-5.632" fill="#FFFFFF"></path></svg>
