<?xml version="1.0" encoding="UTF-8"?>
<svg version="1.1" xmlns="http://www.w3.org/2000/svg" width="192" height="192">
<path d="M0 0 C1.32 0 2.64 0 4 0 C9.5316738 22.52529447 14.8267431 45.0974913 19.96630859 67.715271 C20.87688366 71.72007263 21.79014366 75.72426201 22.703125 79.72851562 C24.47126161 87.48510668 26.23661634 95.24232702 28 103 C28.16081055 102.28344238 28.32162109 101.56688477 28.48730469 100.82861328 C29.22431391 97.58987302 29.98678399 94.35766013 30.75 91.125 C31.12898438 89.43310547 31.12898438 89.43310547 31.515625 87.70703125 C31.90234375 86.09248047 31.90234375 86.09248047 32.296875 84.4453125 C32.52729492 83.45031738 32.75771484 82.45532227 32.99511719 81.43017578 C34 79 34 79 36.10644531 77.65966797 C36.73131836 77.44197754 37.35619141 77.22428711 38 77 C40.25565304 80.38347955 40.99634884 83.52624948 41.87939453 87.42138672 C42.14317902 88.5511644 42.14317902 88.5511644 42.41229248 89.70376587 C42.99201316 92.19434495 43.56265709 94.68690271 44.1328125 97.1796875 C44.533134 98.91228981 44.93384541 100.64480206 45.33493042 102.37722778 C46.17438801 106.00952966 47.00941838 109.64281323 47.84130859 113.27685547 C48.90714146 117.93143946 49.98338211 122.58354121 51.06289864 127.23496819 C51.89220185 130.81312389 52.71620818 134.39248313 53.53860092 137.97223282 C53.93334028 139.6877775 54.32966359 141.40295852 54.72760391 143.11776352 C55.28354421 145.5172615 55.83239226 147.91827521 56.37939453 150.31982422 C56.54456573 151.02649231 56.70973694 151.7331604 56.87991333 152.46124268 C57.68382252 156.02635542 58.2877538 159.34133935 58 163 C57 164 57 164 54.72175503 164.12304783 C53.70501737 164.12212604 52.68827971 164.12120424 51.64073181 164.12025452 C50.47820389 164.12162918 49.31567596 164.12300385 48.11791992 164.12442017 C46.83111328 164.12082489 45.54430664 164.11722961 44.21850586 164.11352539 C42.85876976 164.11324352 41.4990335 164.11340125 40.13929749 164.1139679 C36.43698222 164.11425587 32.73469908 164.10835912 29.03239131 164.10139394 C25.16731219 164.09516043 21.30223242 164.0945566 17.43714905 164.09336853 C10.11315318 164.09025521 2.78917216 164.0820418 -4.53481716 164.07201904 C-12.87083448 164.06085794 -21.20685249 164.05534746 -29.54287541 164.05032361 C-46.69525888 164.03985919 -63.84762787 164.02225973 -81 164 C-82.14187085 160.57438746 -81.82373034 159.34227454 -81.01196289 155.88598633 C-80.77163834 154.84513382 -80.53131378 153.80428131 -80.28370667 152.73188782 C-80.01606003 151.60993515 -79.74841339 150.48798248 -79.47265625 149.33203125 C-79.20488876 148.18208176 -78.93712128 147.03213226 -78.66123962 145.84733582 C-77.80250112 142.1672533 -76.93263711 138.48990227 -76.0625 134.8125 C-75.47908424 132.32113519 -74.89639264 129.82960068 -74.31445312 127.33789062 C-72.88470561 121.22326496 -71.44581004 115.11084638 -70 109 C-68.02 108.505 -68.02 108.505 -66 108 C-65.51891725 109.41601714 -65.04021859 110.83284437 -64.5625 112.25 C-64.29566406 113.03890625 -64.02882813 113.8278125 -63.75390625 114.640625 C-63.08016922 116.74910774 -62.52533639 118.8510768 -62 121 C-57.92546649 106.54247934 -54.67580491 91.88514666 -51.3125 77.25 C-50.42369645 73.38688228 -49.53364952 69.52405334 -48.64213562 65.66156006 C-48.09081632 63.27246643 -47.54096762 60.88303285 -46.99275208 58.4932251 C-46.7454686 57.42070496 -46.49818512 56.34818481 -46.2434082 55.24316406 C-46.02675003 54.30023499 -45.81009186 53.35730591 -45.58686829 52.38580322 C-45 50 -45 50 -44 47 C-43.01 46.67 -42.02 46.34 -41 46 C-38.23625561 48.76374439 -37.91156555 51.86361199 -37.08984375 55.5625 C-36.91747696 56.30959229 -36.74511017 57.05668457 -36.56752014 57.82641602 C-36.01731597 60.21609875 -35.47695373 62.60786961 -34.9375 65 C-34.39285742 67.39172265 -33.84616188 69.78294823 -33.29676819 72.17358398 C-32.95528025 73.66196219 -32.61684088 75.15104374 -32.28172302 76.64086914 C-31.44117319 80.42190439 -31.44117319 80.42190439 -30 84 C-28.35 77.07 -26.7 70.14 -25 63 C-23.02 62.505 -23.02 62.505 -21 62 C-19.68 64.97 -18.36 67.94 -17 71 C-16.80177139 70.12525528 -16.60354279 69.25051056 -16.39930725 68.34925842 C-14.53431568 60.12241124 -12.66583508 51.89636614 -10.79338932 43.6712122 C-9.83077597 39.44213487 -8.86953458 35.21275527 -7.91137695 30.98266602 C-6.98737224 26.90358604 -6.05983134 22.82532526 -5.12978935 18.74761772 C-4.77485423 17.18852063 -4.42121379 15.62912824 -4.06886482 14.06944466 C-3.57671669 11.89194568 -3.08005547 9.71552394 -2.58227539 7.53930664 C-2.30025772 6.29798477 -2.01824005 5.0566629 -1.72767639 3.77772522 C-1 1 -1 1 0 0 Z " fill="#1678FE" transform="translate(108,0)"/>
<path d="M0 0 C4.0123413 2.6748942 4.29118676 5.67680766 5.3671875 10.12890625 C5.56982208 10.95140366 5.77245667 11.77390106 5.98123169 12.62132263 C6.40631662 14.37247717 6.82449093 16.12532127 7.23632812 17.87963867 C7.86227451 20.50904418 8.53517407 23.12326358 9.2109375 25.74023438 C12.07068499 37.41556769 12.00448657 46.42095444 9 58 C8.72833008 59.1955249 8.45666016 60.3910498 8.17675781 61.62280273 C7.39051448 65.07318639 6.54720713 68.50474629 5.6875 71.9375 C5.07306448 74.4346121 4.45981035 76.93201514 3.84765625 79.4296875 C3.54102051 80.6784668 3.23438477 81.92724609 2.91845703 83.21386719 C1.17036632 90.41997851 -0.47868082 97.64885161 -2.1340332 104.87670898 C-2.48147583 106.39373413 -2.48147583 106.39373413 -2.8359375 107.94140625 C-3.03751465 108.82513916 -3.2390918 109.70887207 -3.44677734 110.61938477 C-3.94226379 112.75155085 -4.46909406 114.87637623 -5 117 C10.84 117 26.68 117 43 117 C43 117.33 43 117.66 43 118 C15.94 118 -11.12 118 -39 118 C-40.14187085 114.57438746 -39.82373034 113.34227454 -39.01196289 109.88598633 C-38.77163834 108.84513382 -38.53131378 107.80428131 -38.28370667 106.73188782 C-38.01606003 105.60993515 -37.74841339 104.48798248 -37.47265625 103.33203125 C-37.20488876 102.18208176 -36.93712128 101.03213226 -36.66123962 99.84733582 C-35.80250112 96.1672533 -34.93263711 92.48990227 -34.0625 88.8125 C-33.47908424 86.32113519 -32.89639264 83.82960068 -32.31445312 81.33789062 C-30.88470561 75.22326496 -29.44581004 69.11084638 -28 63 C-26.02 62.505 -26.02 62.505 -24 62 C-23.51891725 63.41601714 -23.04021859 64.83284437 -22.5625 66.25 C-22.29566406 67.03890625 -22.02882813 67.8278125 -21.75390625 68.640625 C-21.08016922 70.74910774 -20.52533639 72.8510768 -20 75 C-15.92546649 60.54247934 -12.67580491 45.88514666 -9.3125 31.25 C-8.42369645 27.38688228 -7.53364952 23.52405334 -6.64213562 19.66156006 C-6.09081632 17.27246643 -5.54096762 14.88303285 -4.99275208 12.4932251 C-4.7454686 11.42070496 -4.49818512 10.34818481 -4.2434082 9.24316406 C-4.02675003 8.30023499 -3.81009186 7.35730591 -3.58686829 6.38580322 C-3 4 -3 4 -2 1 C-1.34 0.67 -0.68 0.34 0 0 Z " fill="#167AFE" transform="translate(66,46)"/>
<path d="M0 0 C1.32 0.33 2.64 0.66 4 1 C4.46678965 2.58086094 4.9227585 4.16491593 5.375 5.75 C5.63023438 6.63171875 5.88546875 7.5134375 6.1484375 8.421875 C6.87542654 11.47656291 7.4139917 14.4642372 7.90234375 17.5625 C8.98028023 24.22106762 10.55043952 30.7099525 12.1875 37.25 C15.20528073 49.49873355 17.97533372 61.78769858 20.60229492 74.12597656 C22.01333501 80.7015831 23.52136706 87.18589313 25.45800781 93.62841797 C26 96 26 96 26 101 C9.83 101 -6.34 101 -23 101 C-22.38084899 96.04679193 -21.8086416 91.74373782 -20.6171875 87 C-20.34060303 85.88230225 -20.06401855 84.76460449 -19.77905273 83.61303711 C-19.48071533 82.42073486 -19.18237793 81.22843262 -18.875 80 C-16.25563065 69.34110325 -13.7678342 58.66334124 -11.4375 47.9375 C-11.29371918 47.27721802 -11.14993835 46.61693604 -11.00180054 45.93664551 C-9.55006847 39.26293849 -8.11885949 32.58512368 -6.71751404 25.90065002 C-6.30464964 23.93161018 -5.88977083 21.96299305 -5.47485352 19.99438477 C-4.96236238 17.55715172 -4.45477927 15.11887978 -3.95288086 12.67944336 C-3.72479736 11.5941333 -3.49671387 10.50882324 -3.26171875 9.390625 C-3.06537842 8.44219727 -2.86903809 7.49376953 -2.66674805 6.51660156 C-2.03222201 4.1216201 -1.19689606 2.16094777 0 0 Z " fill="#36E1E2" transform="translate(84,62)"/>
<path d="M0 0 C0.99 0.33 1.98 0.66 3 1 C4.03887939 3.83370972 4.03887939 3.83370972 4.95800781 7.59326172 C5.2097621 8.60251363 5.2097621 8.60251363 5.46660233 9.63215446 C5.99125051 11.75173458 6.49700713 13.87518769 7 16 C7.30627319 17.26249573 7.61254639 18.52499146 7.92810059 19.82574463 C8.86110039 23.71559829 9.77067925 27.61050619 10.671875 31.5078125 C11.0024033 32.9317254 11.33299132 34.35562444 11.66363525 35.7795105 C12.34771578 38.72856805 13.02972361 41.67809603 13.71044922 44.62792969 C14.58141761 48.40048291 15.45982697 52.17126278 16.33997726 55.94168282 C17.02142891 58.86620824 17.69792035 61.79186451 18.37302399 64.71786118 C18.69498969 66.1096897 19.01873077 67.50110884 19.3443222 68.89209366 C19.79692579 70.8280578 20.24189044 72.76580301 20.68652344 74.70361328 C20.94093201 75.80198517 21.19534058 76.90035706 21.4574585 78.03201294 C21.9607087 80.78505594 22.18590561 83.21129819 22 86 C21 87 21 87 19.23413086 87.11352539 C18.48526611 87.10828857 17.73640137 87.10305176 16.96484375 87.09765625 C16.15595703 87.09443359 15.34707031 87.09121094 14.51367188 87.08789062 C13.66353516 87.07951172 12.81339844 87.07113281 11.9375 87.0625 C11.08349609 87.05798828 10.22949219 87.05347656 9.34960938 87.04882812 C7.23304337 87.03700373 5.11651315 87.01906769 3 87 C3.02868164 85.97616211 3.05736328 84.95232422 3.08691406 83.89746094 C3.00469391 80.21048752 2.5113821 77.20197915 1.609375 73.640625 C1.31353516 72.45114258 1.01769531 71.26166016 0.71289062 70.03613281 C0.39513672 68.78670898 0.07738281 67.53728516 -0.25 66.25 C-0.89501094 63.64690845 -1.53300803 61.04210523 -2.171875 58.4375 C-2.48447266 57.1690625 -2.79707031 55.900625 -3.11914062 54.59375 C-4.28889622 49.82135467 -5.43093728 45.04596159 -6.5 40.25 C-6.67176758 39.53231445 -6.84353516 38.81462891 -7.02050781 38.07519531 C-8.95876389 29.16935201 -6.66000706 20.76440249 -4.5625 12.0625 C-4.34529297 11.11826172 -4.12808594 10.17402344 -3.90429688 9.20117188 C-3.68966797 8.30076172 -3.47503906 7.40035156 -3.25390625 6.47265625 C-3.06127197 5.66062744 -2.8686377 4.84859863 -2.67016602 4.01196289 C-2 2 -2 2 0 0 Z " fill="#37E1E2" transform="translate(144,77)"/>
<path d="M0 0 C0.99 0.33 1.98 0.66 3 1 C3.94921875 3.37109375 3.94921875 3.37109375 4.6875 6.4375 C4.93886719 7.42621094 5.19023438 8.41492188 5.44921875 9.43359375 C6.90509112 18.86062549 5.3631431 27.00072147 3.0625 36.1875 C0.61192077 46.01462243 0.61192077 46.01462243 -1 56 C-4.96 56 -8.92 56 -13 56 C-14.13719943 52.5884017 -13.83299816 51.34792773 -13.04370117 47.90185547 C-12.809832 46.86423065 -12.57596283 45.82660583 -12.33500671 44.75753784 C-12.07363419 43.63872223 -11.81226166 42.51990662 -11.54296875 41.3671875 C-11.27994461 40.21960968 -11.01692047 39.07203186 -10.7459259 37.88967896 C-10.18736857 35.46280808 -9.62473117 33.03687321 -9.05834961 30.61181641 C-8.19002923 26.88585293 -7.3393032 23.15617289 -6.49023438 19.42578125 C-5.94636766 17.07267254 -5.40148044 14.71979942 -4.85546875 12.3671875 C-4.60016891 11.24432343 -4.34486908 10.12145935 -4.08183289 8.96456909 C-3.83850723 7.9332486 -3.59518158 6.9019281 -3.34448242 5.83935547 C-3.13272873 4.92685028 -2.92097504 4.01434509 -2.70280457 3.07418823 C-2 1 -2 1 0 0 Z " fill="#38E1E2" transform="translate(40,108)"/>
</svg>
