<svg version="1.1" xmlns="http://www.w3.org/2000/svg" xmlns:xlink="http://www.w3.org/1999/xlink" xml:space="preserve" x="0" y="0" width="200" height="200" viewBox="0 0 340 100"><g><path d="M290,61.5c-4.1,4.6-29.3,36.7-56.9,26.7c-3.6-1.3-7.2-3.3-10.9-6.2c3.8,0.2,7.5,0,10.9-0.3 c5.3-0.5,9.8-1.5,12.4-2.9c6.1-3,4.5-13.2-12.4-16.2c-0.4-0.1-0.9-0.2-1.3-0.2c-11.3-1.7-19.5,1.7-23.7,5.3 c-0.1,0-0.3-0.1-0.4-0.2c-2.6-1.1-5.2-2.2-7.8-3.2c20-0.9,23.4-14.1,4.8-26.4c-7.5-5-16.3-9.4-25.6-13.4 c-10.7-4.5-22.3-8.5-33.7-11.7c-7.9-2.2-15.7-4.1-23.1-5.7C109.9,4.6,98.7,2.8,90,2C71.1,0.3,58.1,1.5,50.8,5.8 C47.7,7.6,46,10,46,13v0.3c0,1.6,0.5,3.3,1.4,5.2c3,6.3,11.1,13.5,24.1,21.5c11.5,7.1,28.8,15.2,43.5,20.3 c0.1,0.8,0.2,1.6,0.6,2.6c0.9,2.4,3.1,5.2,6.7,8.3c0.5,0.5,1.1,1,1.8,1.5c5.7,4.5,12.7,8.7,21.1,12.2l0.2,0.1 c10.9,4.6,22.6,8.2,33.7,10.8c16.7,3.8,32.2,5.4,42.6,4.9c0.5-0.2,0.7-0.4,0.4-0.6c-0.1-0.1-0.2-0.2-0.4-0.2 c-5.7-0.4-12.9-1.2-21.7-2.3c-7.3-1-14.3-2.3-21-3.8c-12.1-2.7-23.1-6.2-33-10.5c-0.2-0.1-0.4-0.2-0.7-0.3 c-6.7-2.9-10.5-5.7-11.4-8.2c-1.2-3.4,1.9-5.2,5-6c2,0.7,4.1,1.3,6.4,1.9c10.2,2.9,22.2,5.5,33.7,7.4c11.1,1.9,21.7,3.2,29.5,3.6 c7.6,6.7,16.1,10.2,24.6,11.3c15.2,1.8,30.4-4.1,41.1-13.8c7.3-6.6,13.2-13,16.3-17L290,61.5z M145.3,30.3 c8.5,0.3,17.4,1.3,26.7,3.1c2.5,0.5,4.8,1,7,1.5c6.7,1.6,11.5,3.3,14.5,5.2c3.4,2.1,4.1,3.7,2.1,4.9c-1.5,0.9-4.6,1.5-9.4,2 c-2.4,0.2-4.8,0.4-7.2,0.4c-2.4,0.1-4.9,0-7.4,0c-4.9-0.2-9.8-0.9-14.8-1.8c-4.9-1-8.3-2-10-3c-1.3-0.8-1.6-1.4-1-1.9 c0.4-0.2,1.1-0.4,2.3-0.5c0.9-0.1,1.5-0.4,2.1-0.7c1.1-0.7,1.4-1.6,0.8-2.9c-0.7-1.3-2-2.6-4-3.8c-0.5-0.3-1.1-0.6-1.7-1 c-0.7-0.4-1.6-0.8-2.6-1.3C143.6,30.3,144.4,30.3,145.3,30.3z M145.3,51c-6-0.5-11.4-0.5-16.2,0.1c-2.7,0.3-5,0.7-6.9,1.3 c-1.3,0.4-2.5,0.9-3.4,1.4c-0.3-0.1-0.6-0.2-1-0.4c-12.8-4.5-26.4-14.1-19.6-18.1c4.8-2.8,12.8-4.4,24-4.8c2-0.1,4.1-0.1,6.3-0.1 c-1.7,5.1,2.7,10.8,12.9,17.1c1.3,0.8,2.6,1.6,3.8,2.3c0.9,0.5,1.7,1,2.6,1.4C147,51.1,146.1,51.1,145.3,51z M206.7,79.4 c-8.5-0.8-18.3-2.9-27.7-5.2c-10.6-2.7-20.7-5.7-27.7-7.9c6.4-1.5,14.8-2.2,25.6-2c0.7,0,1.4,0,2.1,0c10.8,0.4,20,1.9,27.8,4.6 C204.6,71.5,203.8,74.9,206.7,79.4z M233.1,66.9c0.4,0,0.7,0,1.1,0.1c3.6,0.4,6.7,0.9,9.8,3.1c3.5,2.4,3.5,4.4,2.1,6.5 c-1.3,2.1-7.1,2.9-13,3.2c-4.6,0.2-9.3,0.1-12.2,0C216.1,74.7,221.9,66.4,233.1,66.9z" fill="#005BAC"/></g></svg>
