<?xml version="1.0" encoding="UTF-8"?>
<svg width="97px" height="67px" viewBox="0 0 97 67" version="1.1" xmlns="http://www.w3.org/2000/svg" xmlns:xlink="http://www.w3.org/1999/xlink">
    <title>wangsu</title>
    <g id="Page-1" stroke="none" stroke-width="1" fill="none" fill-rule="evenodd">
        <g id="wangsu" fill="#015BAC" fill-rule="nonzero">
            <path d="M14.122654,0.126875273 C14.1592411,0.253750684 14.2324155,0.253750684 14.3055899,0.253750684 C18.0008958,0.507501367 21.6596144,1.33219119 25.3183331,2.47406933 C31.757678,4.37719967 38.1238484,7.04158205 44.3802573,10.4672166 C50.0512712,13.6391003 55.6125236,17.3819234 60.807904,22.5203752 C62.6372633,24.2966301 64.4300358,26.1997604 65.8935229,28.8641427 C66.7350283,30.3866468 67.4301851,31.9725887 67.7228824,34.0660321 C68.0155797,36.3497884 67.6497081,38.2529187 66.5886797,39.7119853 C65.4178898,41.361365 63.9909892,41.9957417 62.5275019,42.3763677 C62.1250428,42.5032431 61.7225837,42.5032431 61.3201246,42.7569939 C61.7957581,43.0741821 62.3079787,43.4548083 62.7836121,43.7719966 C63.2592459,44.0891849 63.734879,44.660124 64.2105121,44.7235618 C64.6861459,44.7869994 65.0154304,43.8354343 65.454477,43.4548082 C67.0277256,41.932304 68.7473236,41.1710519 70.5035087,41.0441766 C73.0646115,40.8538635 75.5159533,41.4248026 77.8209459,43.3913705 C78.7722128,44.2160604 79.6137182,45.2310631 80.1259385,46.9438804 C80.8210952,49.2276367 80.3820486,51.4479556 79.0283229,52.4629583 C77.7477716,53.4779611 76.3574581,53.8585871 74.9671452,54.1757756 C73.4670709,54.4929639 72.0035831,54.6198393 70.5035087,54.5564016 L70.1742236,54.5564016 C70.1376365,54.8101523 70.2473979,54.8735899 70.3205723,54.9370275 C72.9914371,58.3626621 75.9549993,60.2023548 79.3210202,59.8851664 C81.516252,59.6948534 83.5651344,58.5529752 85.5408425,56.9035956 C88.4678169,54.4295262 90.9923331,51.0038917 93.3339128,47.1341935 C94.577877,45.1041878 95.6754932,42.8838692 96.8096959,40.7269883 C97.0292189,40.9807389 97.065806,41.2344896 96.8828702,41.6151157 C94.1754182,46.8804429 91.431379,52.0823322 88.0287709,55.9520305 C84.2602905,60.2657925 80.0893513,62.4226734 75.5525405,62.1054851 C71.5279499,61.7882968 67.9789925,59.3142273 64.8690817,54.9370277 C64.6129716,54.5564015 64.3568614,54.3660885 64.0275763,54.3026508 C55.2466517,53.1607727 46.6486629,50.4329525 38.1970228,46.3095037 C37.9043253,46.1826283 37.648215,45.9923154 37.3555175,45.8654399 C36.5505994,45.4213762 35.1968735,46.4998167 34.9041759,47.8320079 C34.6846528,48.783573 34.8675888,49.6717005 35.1968735,50.4329527 C35.89203,52.0188945 36.879884,52.9704598 37.9043253,53.8585871 C40.9410617,56.4595318 44.1607341,58.3626622 47.4169938,59.948604 C52.3928511,62.4226734 57.4418828,64.072053 62.564089,65.1504935 C64.8324946,65.6579949 67.1374871,66.1020586 69.4058932,66.3558094 L69.5522418,66.3558094 C69.6985905,66.419247 69.8449391,66.419247 69.8449391,66.6729978 C69.8449391,66.9267487 69.6620033,66.9267484 69.5156547,66.9267484 C68.381452,67.0536239 67.2472486,66.9901861 66.1130459,66.9267484 C60.5152066,66.4826848 54.9905414,64.7698675 49.5756377,62.2957981 C45.4046984,60.3926678 41.3069336,58.0454738 37.3921046,54.8735899 C34.6114784,52.5898337 31.977201,49.9254512 29.6722083,46.3095037 C28.9404645,45.1676255 28.2818952,43.9623096 27.8062617,42.5032431 C27.6233259,41.932304 27.4403899,41.2979273 27.4038027,40.6001128 C27.3672155,39.9022983 27.1842796,39.7119853 26.8549949,39.5216723 C21.3669169,36.2229131 16.0983621,32.1629017 11.0859175,27.1513255 C8.23211689,24.3600677 5.48807795,21.2516215 3.10991081,17.3184857 C1.71959772,15.0347293 0.548807772,12.5606598 0.0365871637,9.26190071 C0.0365871637,9.26190071 0,9.26190071 0,9.19846307 L0,7.04158205 C0.329284711,4.88470104 1.24396436,3.61594748 2.3415799,2.66438238 C3.8050674,1.4590666 5.34172922,0.888127461 6.91497818,0.444063731 C7.57354757,0.253750684 8.23211689,0.31718832 8.89068628,0 C10.6102841,0.12687541 12.366469,0.12687541 14.122654,0.126875273 Z M40.0995565,33.4950931 C39.5141615,32.9241539 38.9653537,32.4166526 38.3799587,31.8457134 C36.7701225,30.1963338 35.1602863,28.4835167 33.9163219,26.0094473 C33.0748166,24.4235053 32.4162473,22.6472504 32.6357705,20.3634941 C32.7089448,19.792555 32.5991833,19.7291174 32.3064857,19.7291174 C30.001493,19.792555 27.6965003,19.9194304 25.3915074,20.4903694 C23.8182584,20.9344331 22.2815965,21.5053723 20.8912835,22.8375634 C19.9034295,23.7256909 19.7204936,24.867569 20.3424757,26.5169487 C20.7083476,27.5319516 21.2205682,28.2932036 21.7327888,29.0544557 C23.4889737,31.4650874 25.501269,33.1779047 27.5867387,34.6369713 C28.3184824,35.1444726 29.0502262,35.6519742 29.7819698,34.700409 C29.818557,34.700409 29.8551442,34.700409 29.8551442,34.6369713 C32.0503754,33.4316555 34.318781,33.2413424 36.5871865,33.3047801 C37.7945638,33.3047801 38.9287665,33.4316555 40.0995565,33.4950931 L40.0995565,33.4950931 Z M38.5994818,19.7925549 C39.1117024,20.3000563 39.5873359,20.6806824 40.0629692,21.1247462 C40.6483642,21.6956853 41.1605848,22.3934997 41.5264567,23.3450648 C42.0020902,24.5503806 41.8191542,25.5019458 41.0142361,26.0094471 C40.6483642,26.1997603 40.2459052,26.3266355 39.8434462,26.4535109 C39.6970975,26.5169486 39.5141615,26.5169486 39.4775743,26.8975746 C39.4409871,27.214763 39.623923,27.405076 39.7336846,27.5319514 C40.1361436,28.0394528 40.6117771,28.3566412 41.0874105,28.6103919 C43.1362929,29.7522701 45.2583497,30.3232092 47.4169938,30.7038353 C50.5269046,31.2747745 53.6734026,31.2113367 56.7833135,30.5769599 C57.661406,30.3866469 58.5394985,30.1963338 59.3078294,29.4985194 C59.8566371,28.991018 59.9298115,28.3566412 59.4907654,27.5319514 C59.1248935,26.8975746 58.7224344,26.3900733 58.246801,25.9460095 C57.1125982,24.867569 55.8686338,24.1063169 54.6246695,23.5353779 C50.0512712,21.3784968 45.4046985,20.2366187 40.7215386,19.7291173 C40.0263821,19.7291173 39.3312255,19.7925549 38.5994818,19.7925549 L38.5994818,19.7925549 Z M41.965503,43.898872 C49.1365915,47.5782572 56.2345057,51.130767 63.734879,52.6532713 C62.8933736,50.2426396 62.6738506,47.9588833 63.734879,45.6751269 C59.8932244,42.4398053 45.3315241,41.2344896 41.965503,43.898872 Z M72.0035831,52.907022 C73.6134195,53.0338973 75.1866682,52.907022 76.7599175,52.4629583 C77.4916614,52.2726452 78.2234047,52.0188945 78.8819743,51.3845177 C79.7600668,50.5598279 79.9430027,48.783573 79.2844331,47.4513818 C79.0283229,46.9438804 78.6990385,46.4998167 78.3697534,46.1826282 C76.3208709,44.1526226 74.1256398,43.7719966 71.8572344,44.660124 C70.7230317,45.1041877 69.7717648,46.1191906 69.1131952,47.8320079 C68.5278006,49.4179498 68.5643878,51.130767 69.1863696,52.4629583 C69.3327182,52.7167089 69.4424803,52.907022 69.6620033,52.907022 L72.0035831,52.907022 Z" id="形状"></path>
        </g>
    </g>
</svg>