<svg viewBox="0 0 1024 1024" version="1.1" xmlns="http://www.w3.org/2000/svg" xmlns:xlink="http://www.w3.org/1999/xlink" width="200" height="200"><path d="M803.6 859.2c0 26.6-20.4 49.2-48.4 51.8-21.2 2-48.6-11-54.8-39.8-5.6-26-13.2-50.8-29-72.4-6-8.2-12.8-16-20-23.4-7.6-8-9.4-14-4.4-19.8 5-5.8 12.8-5 20.8 3.2 20.8 21 45.4 35.2 73.6 43.6 7.2 2.2 14.8 3.4 22.2 5.2 24.6 6.2 40 26.2 40 51.6z" fill="#FC6401"></path><path d="M698.2 549.8c0.2-28.4 20.8-50.2 49.6-52.6 25.6-2.2 50.6 17.6 55 45.2 6 36.2 22.8 66.2 48.4 92 3.2 3.2 5.6 9.2 5.2 13.8-0.4 7.2-9.8 10.6-16.2 6.4-3.4-2.2-6.2-5-9-7.8-25.4-24.6-55.6-39.4-90.4-45.4-24.8-4.6-42.6-26.2-42.6-51.6z" fill="#2DBD00"></path><path d="M595.4 765.2c-26.6 0-49.2-20.4-51.8-48.4-2-21.2 11-48.6 39.8-54.8 26-5.6 50.8-13.2 72.4-29 8.2-6 16-12.8 23.4-20 8-7.6 14-9.4 19.8-4.4 5.8 5 5 12.8-3.2 20.8-21 20.8-35.2 45.4-43.6 73.6-2.2 7.2-3.4 14.8-5.2 22.2-6.2 24.6-26.2 40-51.6 40z" fill="#FFCD00"></path><path d="M898.8 650c28.4 0.2 50.2 20.8 52.6 49.6 2.2 25.6-17.6 50.6-45.2 55-36.2 6-66.2 22.8-92 48.4-3.2 3.2-9.2 5.6-13.8 5.2-7.2-0.4-10.6-9.8-6.4-16.2 2.2-3.4 5-6.2 7.8-9 24.6-25.4 39.4-55.6 45.4-90.4 4.6-25 26.2-42.8 51.6-42.6z" fill="#0084F0"></path><path d="M734 208.6c-110.4-108.4-244.8-139.8-392.4-100C81.6 178.8 1.2 449.2 132.6 625.6c6.4 8.6 7.6 24.4 5.2 35.4-7 32.4-17.4 64.2-26 96.2-4.6 17.2-7.4 34.6 8 48.4 16.6 14.8 34.2 11.8 52.2 2.6 29.6-15 59.8-29.2 89-45 19-10.4 36.2-10.8 57.6-4.8 42.8 11.8 87.2 18.4 109.6 23 43.8-0.8 83.6-5.2 120.2-13.6-13.8-12-23-29.2-24.8-49-0.4-5.4-0.2-10.8 0.6-16.2-57.8 12.4-119.2 7.4-183.2-14-42.2-14.2-76.8-17.8-113.4 7-3.4 2.2-7.8 2.8-24.6 8.2 33.8-58.4 8.8-95-19.6-136.6-63.4-92-50.4-210.8 24.6-296.4 122.8-139.8 363-139.8 485.8 0.2 52.8 60.2 73.6 135.2 61.8 206.2 28 1.6 52.8 20.6 63 47.2 32-108.8 4-228.8-84.6-315.8z" fill="#0083EF"></path></svg>
