<svg viewBox="0 0 1024 1024" version="1.1" xmlns="http://www.w3.org/2000/svg" width="200" height="200"><path d="M735.899826 924.582957a467.656348 467.656348 0 0 1-223.944348 56.765217c-81.029565 0-157.295304-20.569043-223.855304-56.765217H735.944348z m111.081739-83.878957c-15.582609 15.894261-32.322783 30.675478-49.997913 44.210087H227.06087a467.166609 467.166609 0 0 1-49.997913-44.210087h669.96313zM912.517565 756.869565c-9.349565 15.36-19.589565 30.052174-30.675478 44.165565H142.157913a475.225043 475.225043 0 0 1-30.675478-44.165565h801.03513z m66.159305-294.956522a467.033043 467.033043 0 0 1-44.432696 255.198609H89.755826a467.033043 467.033043 0 0 1-44.477217-254.664348l138.106434 2.715826 180.313044 201.19374 147.945739-173.100522 183.563131 179.734261 156.850086-211.033044h126.619827zM512 42.651826c204.176696 0 377.856 130.359652 442.412522 312.409044H824.987826l-131.650783 157.161739-177.730782-164.062609-156.493913 165.888L235.52 356.173913H69.186783C133.431652 173.545739 307.46713 42.651826 512 42.651826z" fill="#0070B6"></path></svg>
