<svg viewBox="0 0 1113 1024" version="1.1" xmlns="http://www.w3.org/2000/svg" width="200" height="200"><path d="M107.287 512.928c0-79.047-0.045-158.094 0.03-237.141 0.02-21.15 1.256-42.135 9.203-62.181 23.74-59.883 67.166-95.237 130.865-105.518 8.582-1.385 17.221-1.667 25.889-1.667 159.718 0.009 319.436-0.021 479.155 0.019 74.315 0.019 133.182 41.364 157.993 111.108 6.12 17.204 8.542 35.132 8.54 53.403-0.022 161.072 0.122 322.144-0.072 483.215-0.091 75.418-50.342 141.59-119.876 158.868-15.044 3.738-30.331 5.422-45.807 5.423-160.26 0.014-320.521 0.29-480.78-0.12-71.188-0.182-121.825-33.848-152.353-97.864-10.72-22.48-12.842-46.672-12.817-71.218 0.081-78.774 0.03-157.551 0.03-236.327z m283.66-4.813v136.454H254.062v138.583h138.402V645.64h138.004v137.437h138.576V644.705h137.443V505.977H668.339V367.658H530.496V229.98H391.685v138.154H254.216c-0.365 1.798-0.66 2.576-0.661 3.354-0.035 43.047 0.079 86.094-0.188 129.139-0.042 6.738 3.542 6.504 8.205 6.495 39.798-0.073 79.596-0.06 119.394-0.007 3.173 0.005 6.462-0.676 9.981 1z" fill="#4D70D4"></path></svg>
