<svg viewBox="0 0 1024 1024" version="1.1" xmlns="http://www.w3.org/2000/svg" p-id="6224" width="200" height="200"><path d="M776.416 1024H247.648a41.184 41.184 0 0 1-41.056-41.024V591.808c0-22.56 18.464-41.056 41.056-41.056h49.664v-63.232c0-118.4 96.352-214.688 214.688-214.688s214.688 96.352 214.688 214.688v63.232h49.664c22.56 0 41.056 18.464 41.056 41.056v391.168a41.184 41.184 0 0 1-41.024 41.056z m-237.632-216.416a54.4 54.4 0 0 0-26.688-101.728h-0.128a54.4 54.4 0 0 0-27.072 101.568l0.256 0.128v52.992a26.784 26.784 0 0 0 53.568 0v-52.992z m-118.336-256.832h183.168v-63.232c0-50.464-41.088-91.552-91.552-91.552s-91.552 41.088-91.552 91.552v63.232z m-226.432-58.304H66.432a37.44 37.44 0 1 1 0-74.944h127.584a37.44 37.44 0 1 1 0 74.944z m89.888-200.704h-0.096c-9.024 0-17.312-3.232-23.744-8.576l0.064 0.064-100.896-82.976a37.44 37.44 0 1 1 47.68-57.856l-0.064-0.064 100.896 82.976a37.44 37.44 0 0 1-23.808 66.4h-0.064zM512 203.52a37.44 37.44 0 0 1-37.472-37.472V37.44a37.44 37.44 0 1 1 74.944 0v128.608A37.44 37.44 0 0 1 512 203.52z m228.096 88.224h-0.16a37.44 37.44 0 0 1-23.744-66.336l0.064-0.064 100.896-82.976a37.44 37.44 0 0 1 47.68 57.824l-0.064 0.064-100.896 82.976c-6.4 5.312-14.72 8.544-23.776 8.544z m217.472 200.704h-128.8a37.44 37.44 0 1 1 0-74.944h128.8a37.44 37.44 0 1 1 0 74.944z" fill="#003A70" p-id="6225"></path></svg>
